<?xml version="1.0" encoding="UTF-8" standalone="no"?>
<!-- Created with Inkscape (http://www.inkscape.org/) -->

<svg
   xmlns:svg="http://www.w3.org/2000/svg"
   xmlns="http://www.w3.org/2000/svg"
   version="1.1"
   width="469.47586"
   height="302.73416"
   id="svg2">
  <defs
     id="defs4" />
  <g
     transform="translate(-8.8573947,-8.3254533)"
     id="layer1">
    <path
       d="m 142.51404,233.54898 c -0.1149,0.0273 -4.54061,0.23896 -4.54061,0.23896 l -2.70511,-4.89125 m 2.33904,-0.42496 c -0.037,-0.0862 -0.80792,-3.5207 -0.80792,-3.5207 l 3.45786,-2.78585 m 3.43691,1.43893 c -0.037,-0.0862 -0.80792,-3.52071 -0.80792,-3.52071 l 3.45786,-2.78584 m 0.65243,1.77237 c 0.0624,-0.0408 2.64475,-1.11376 2.64475,-1.11376 l 2.65301,2.32508 m 2.16959,5.7734 c -0.037,-0.0862 -0.80796,-3.5207 -0.80796,-3.5207 l 3.45787,-2.78585 m 0.65243,1.77237 c 0.0625,-0.0408 2.64474,-1.11374 2.64474,-1.11374 l 2.65303,2.32508 m -0.65608,2.88644 c 0.0624,-0.0408 2.64475,-1.11375 2.64475,-1.11375 l 2.65303,2.32508 m -1.2978,0.75296 c 0.0405,0.0433 1.23327,1.91742 1.23327,1.91742 l -1.45675,2.39416 m -4.92953,8.26296 c -0.037,-0.0862 -0.80794,-3.52071 -0.80794,-3.52071 l 3.45786,-2.78584 m 0.65243,1.77237 c 0.0624,-0.0408 2.64474,-1.11375 2.64474,-1.11375 l 2.65302,2.32507 m -0.65607,2.88645 c 0.0625,-0.0408 2.64475,-1.11374 2.64475,-1.11374 l 2.65303,2.32508 m -1.2978,0.75296 c 0.0405,0.0433 1.23327,1.91742 1.23327,1.91742 l -1.45675,2.39415 m -4.22146,2.4874 c 0.0625,-0.0408 2.64475,-1.11375 2.64475,-1.11375 l 2.65303,2.32509 m -1.2978,0.75295 c 0.0405,0.0433 1.23328,1.91741 1.23328,1.91741 l -1.45676,2.39417 m -2.34859,-0.11869 c 0.0405,0.0433 1.23327,1.9174 1.23327,1.9174 l -1.45675,2.39417 m -0.76674,-0.91267 c -0.0283,0.0375 -1.33186,1.22735 -1.33186,1.22735 l -2.07286,-0.81261 m -14.17051,1.68051 c -0.037,-0.0862 -0.80793,-3.52071 -0.80793,-3.52071 l 3.45786,-2.78585 m 0.65243,1.77237 c 0.0625,-0.0408 2.64476,-1.11375 2.64476,-1.11375 l 2.653,2.32508 m -0.65606,2.88645 c 0.0625,-0.0408 2.64474,-1.11374 2.64474,-1.11374 l 2.65301,2.32507 m -1.29777,0.75296 c 0.0405,0.0433 1.23327,1.91742 1.23327,1.91742 l -1.45676,2.39416 m -4.22145,2.4874 c 0.0625,-0.0408 2.64475,-1.11375 2.64475,-1.11375 l 2.65303,2.32507 m -1.2978,0.75297 c 0.0405,0.0433 1.23326,1.9174 1.23326,1.9174 l -1.45675,2.39417 m -2.34859,-0.11869 c 0.0404,0.0433 1.23328,1.9174 1.23328,1.9174 l -1.45676,2.39414 m -0.76673,-0.91262 c -0.0283,0.0376 -1.33187,1.22732 -1.33187,1.22732 l -2.07284,-0.81262 m -7.14055,-2.72774 c 0.0624,-0.0408 2.64475,-1.11374 2.64475,-1.11374 l 2.653,2.32505 m -1.29778,0.75297 c 0.0404,0.0434 1.23327,1.91746 1.23327,1.91746 l -1.45675,2.39414 m -2.3486,-0.11872 c 0.0404,0.0434 1.23328,1.91746 1.23328,1.91746 l -1.45675,2.39414 m -0.76674,-0.91268 c -0.0283,0.0376 -1.33188,1.22738 -1.33188,1.22738 l -2.07283,-0.81262 m -2.52388,-2.9635 c 0.0405,0.0434 1.23327,1.91746 1.23327,1.91746 l -1.45675,2.39414 m -0.76672,-0.91268 c -0.0283,0.0376 -1.33189,1.22738 -1.33189,1.22738 l -2.07282,-0.81262 m -0.2283,-1.85418 c -0.0283,0.0376 -1.33187,1.22732 -1.33187,1.22732 l -2.07284,-0.81263 m 0.60938,-0.7248 c -0.0332,-0.0168 -1.14264,-0.87447 -1.14264,-0.87447 l 0.35247,-1.73326 m -14.34824,-14.66687 c -0.037,-0.0862 -0.80794,-3.52071 -0.80794,-3.52071 l 3.45786,-2.78585 m 0.65243,1.77237 c 0.0625,-0.0408 2.64474,-1.11374 2.64474,-1.11374 l 2.65304,2.32506 m -0.65606,2.88646 c 0.0624,-0.0408 2.64472,-1.11374 2.64472,-1.11374 l 2.65302,2.32507 m -1.2978,0.75296 c 0.0405,0.0433 1.23328,1.91742 1.23328,1.91742 l -1.45673,2.39416 m -4.22146,2.4874 c 0.0624,-0.0408 2.64475,-1.11375 2.64475,-1.11375 l 2.65301,2.32508 m -1.2978,0.75296 c 0.0405,0.0434 1.23326,1.9174 1.23326,1.9174 l -1.45673,2.39414 m -2.34861,-0.11865 c 0.0405,0.0434 1.23328,1.91739 1.23328,1.91739 l -1.45673,2.39414 m -0.76674,-0.91262 c -0.0283,0.0376 -1.33188,1.22732 -1.33188,1.22732 l -2.07284,-0.81256 m -7.14056,-2.72781 c 0.0625,-0.0408 2.64474,-1.11372 2.64474,-1.11372 l 2.65304,2.32504 m -1.2978,0.75297 c 0.0404,0.0434 1.23326,1.9174 1.23326,1.9174 l -1.45675,2.3942 m -2.34859,-0.11872 c 0.0405,0.0434 1.23328,1.91746 1.23328,1.91746 l -1.45676,2.39414 m -0.76672,-0.91268 c -0.0283,0.0376 -1.33188,1.22738 -1.33188,1.22738 l -2.07282,-0.81262 m -2.52389,-2.96343 c 0.0404,0.0434 1.23328,1.91739 1.23328,1.91739 l -1.45676,2.39414 m -0.76674,-0.91268 c -0.0283,0.0375 -1.33186,1.22738 -1.33186,1.22738 l -2.07285,-0.81262 m -0.22829,-1.85418 c -0.0283,0.0376 -1.33188,1.22732 -1.33188,1.22732 l -2.07283,-0.81263 m 0.60937,-0.72486 c -0.0332,-0.0169 -1.14263,-0.8744 -1.14263,-0.8744 l 0.35247,-1.73327 m -3.25298,-10.85975 c 0.0624,-0.0408 2.64473,-1.11378 2.64473,-1.11378 l 2.65302,2.32509 m -1.29778,0.75297 c 0.0404,0.0434 1.23327,1.91739 1.23327,1.91739 l -1.45676,2.39414 m -2.3486,-0.11865 c 0.0405,0.0434 1.23327,1.9174 1.23327,1.9174 l -1.45674,2.39414 m -0.76673,-0.91262 c -0.0283,0.0375 -1.33189,1.22732 -1.33189,1.22732 l -2.072817,-0.81263 m -2.523888,-2.96343 c 0.04042,0.0434 1.233266,1.91741 1.233266,1.91741 l -1.456748,2.39412 m -0.766721,-0.91261 c -0.02832,0.0376 -1.331873,1.22732 -1.331873,1.22732 L 91.51323,288.6675 m -0.228303,-1.85425 c -0.02832,0.0376 -1.331861,1.22737 -1.331861,1.22737 l -2.072854,-0.81261 m 0.609389,-0.72486 c -0.03329,-0.0168 -1.142653,-0.87447 -1.142653,-0.87447 l 0.352489,-1.73328 m 1.15819,-5.96105 c 0.04048,0.0434 1.233274,1.9174 1.233274,1.9174 l -1.456755,2.39414 m -0.766713,-0.91262 c -0.0283,0.0375 -1.331885,1.22731 -1.331885,1.22731 l -2.072828,-0.81261 m -0.228293,-1.85419 c -0.0283,0.0376 -1.331879,1.22738 -1.331879,1.22738 l -2.072828,-0.81262 m 0.60937,-0.72486 c -0.03329,-0.0168 -1.142634,-0.87447 -1.142634,-0.87447 l 0.352463,-1.73326 m 1.973989,-2.38041 c -0.0283,0.0375 -1.331866,1.22738 -1.331866,1.22738 l -2.072848,-0.81264 m 0.609389,-0.72484 c -0.03329,-0.017 -1.142652,-0.87445 -1.142652,-0.87445 l 0.352482,-1.73329 m 1.419831,-0.43222 c -0.03322,-0.017 -1.142633,-0.87445 -1.142633,-0.87445 l 0.352463,-1.7333 m 0.650581,0.37776 c 0.0089,-0.0284 0.528069,-1.01378 0.528069,-1.01378 l 1.404643,0.0388 m 3.939046,-28.80081 c -0.03705,-0.0862 -0.807949,-3.52071 -0.807949,-3.52071 l 3.45788,-2.78584 m 0.652432,1.77237 c 0.06238,-0.0408 2.64475,-1.11375 2.64475,-1.11375 l 2.65301,2.32507 m -0.65606,2.88645 c 0.06237,-0.0408 2.644738,-1.11374 2.644738,-1.11374 l 2.653019,2.32508 m -1.297791,0.75296 c 0.04042,0.0433 1.233275,1.91742 1.233275,1.91742 l -1.456757,2.39416 m -4.221449,2.48739 c 0.06246,-0.0408 2.644748,-1.11375 2.644748,-1.11375 l 2.65301,2.32508 m -1.297783,0.75297 c 0.04042,0.0433 1.233266,1.9174 1.233266,1.9174 l -1.456747,2.39416 m -2.348585,-0.11869 c 0.04042,0.0433 1.233266,1.91741 1.233266,1.91741 l -1.456748,2.39417 m -0.766739,-0.91266 c -0.02832,0.0376 -1.331864,1.22734 -1.331864,1.22734 l -2.072848,-0.8126 m -7.140549,-2.72777 c 0.06238,-0.0408 2.64475,-1.11375 2.64475,-1.11375 l 2.653008,2.32508 m -1.2978,0.75296 c 0.04048,0.0433 1.233286,1.91741 1.233286,1.91741 l -1.456747,2.39416 m -2.348614,-0.11869 c 0.04048,0.0433 1.233273,1.91742 1.233273,1.91742 l -1.456729,2.39416 m -0.766738,-0.91266 c -0.0283,0.0376 -1.331886,1.22734 -1.331886,1.22734 l -2.072828,-0.8126 m -2.523883,-2.96347 c 0.04048,0.0433 1.233273,1.91741 1.233273,1.91741 l -1.456754,2.39416 m -0.766713,-0.91266 c -0.0283,0.0376 -1.331886,1.22735 -1.331886,1.22735 l -2.072856,-0.81261 m -0.228287,-1.8542 c -0.0283,0.0376 -1.331866,1.22735 -1.331866,1.22735 l -2.072847,-0.81261 m 0.609395,-0.72484 c -0.03329,-0.017 -1.142652,-0.87445 -1.142652,-0.87445 l 0.352482,-1.7333 M 66.62832,249.99884 c 0.06244,-0.0408 2.644744,-1.11374 2.644744,-1.11374 l 2.653013,2.32508 m -1.29778,0.75295 c 0.04042,0.0433 1.233267,1.91742 1.233267,1.91742 l -1.456748,2.39416 m -2.348589,-0.11869 c 0.04042,0.0433 1.233267,1.91741 1.233267,1.91741 l -1.456747,2.39416 m -0.766739,-0.91266 c -0.0283,0.0376 -1.331866,1.22735 -1.331866,1.22735 l -2.072847,-0.81261 m -2.523883,-2.96347 c 0.04048,0.0433 1.233273,1.91743 1.233273,1.91743 l -1.456736,2.39416 m -0.766731,-0.91266 c -0.0283,0.0376 -1.331886,1.22734 -1.331886,1.22734 l -2.072834,-0.81261 m -0.228287,-1.85419 c -0.0283,0.0376 -1.331879,1.22734 -1.331879,1.22734 l -2.072828,-0.81261 m 0.609363,-0.72484 c -0.03329,-0.017 -1.142626,-0.87445 -1.142626,-0.87445 l 0.352463,-1.7333 m 1.15819,-5.96108 c 0.04048,0.0433 1.233273,1.91741 1.233273,1.91741 l -1.456729,2.39417 M 53.0967,253.48565 c -0.0283,0.0376 -1.331886,1.22734 -1.331886,1.22734 l -2.072828,-0.81261 m -0.228287,-1.85419 c -0.0283,0.0376 -1.331885,1.22734 -1.331885,1.22734 l -2.072828,-0.81261 m 0.60937,-0.72484 c -0.03329,-0.017 -1.142634,-0.87445 -1.142634,-0.87445 l 0.35247,-1.73329 m 1.974001,-2.3804 c -0.0283,0.0376 -1.331885,1.22734 -1.331885,1.22734 l -2.072822,-0.8126 m 0.609364,-0.72485 c -0.03329,-0.017 -1.142627,-0.87445 -1.142627,-0.87445 l 0.352463,-1.73329 m 1.419824,-0.43222 c -0.03329,-0.017 -1.142626,-0.87445 -1.142626,-0.87445 l 0.352482,-1.73329 m 0.650555,0.37775 c 0.0088,-0.0284 0.528068,-1.01378 0.528068,-1.01378 l 1.404645,0.0388 m 9.515814,-13.23439 c 0.06244,-0.0408 2.644743,-1.11375 2.644743,-1.11375 l 2.653008,2.32508 m -1.297781,0.75297 c 0.04042,0.0433 1.233274,1.91741 1.233274,1.91741 l -1.456755,2.39416 m -2.348588,-0.11868 c 0.04042,0.0433 1.233267,1.9174 1.233267,1.9174 l -1.456748,2.39416 m -0.766738,-0.91265 c -0.0283,0.0375 -1.331867,1.22734 -1.331867,1.22734 l -2.072846,-0.81261 m -2.523885,-2.96346 c 0.04048,0.0433 1.233274,1.91741 1.233274,1.91741 l -1.456735,2.39417 m -0.766732,-0.91267 c -0.0283,0.0376 -1.331885,1.22734 -1.331885,1.22734 l -2.072828,-0.8126 m -0.228288,-1.8542 c -0.0283,0.0375 -1.331885,1.22734 -1.331885,1.22734 l -2.072828,-0.8126 m 0.60937,-0.72484 c -0.03322,-0.017 -1.142633,-0.87446 -1.142633,-0.87446 l 0.352462,-1.73328 m 1.158197,-5.96109 c 0.04048,0.0433 1.233286,1.91741 1.233286,1.91741 l -1.456748,2.39417 m -0.766738,-0.91266 c -0.0283,0.0375 -1.331879,1.22735 -1.331879,1.22735 l -2.072834,-0.81262 m -0.228287,-1.85419 c -0.0283,0.0376 -1.331886,1.22735 -1.331886,1.22735 l -2.072828,-0.81262 m 0.60937,-0.72484 c -0.03322,-0.017 -1.142627,-0.87445 -1.142627,-0.87445 l 0.352463,-1.73329 m 1.974001,-2.3804 c -0.0283,0.0376 -1.331879,1.22735 -1.331879,1.22735 l -2.072828,-0.81262 m 0.609364,-0.72484 c -0.03329,-0.017 -1.142627,-0.87445 -1.142627,-0.87445 l 0.352462,-1.73328 m 1.419845,-0.43223 c -0.03329,-0.017 -1.142646,-0.87446 -1.142646,-0.87446 l 0.352482,-1.73328 m 0.650562,0.37776 c 0.0088,-0.0284 0.528068,-1.01378 0.528068,-1.01378 l 1.404638,0.0388 m 8.053768,-4.03083 c 0.04048,0.0433 1.233267,1.91742 1.233267,1.91742 l -1.456749,2.39416 m -0.766737,-0.91266 c -0.0283,0.0376 -1.33186,1.22735 -1.33186,1.22735 l -2.072854,-0.81261 m -0.228286,-1.8542 c -0.0283,0.0376 -1.331861,1.22735 -1.331861,1.22735 l -2.072854,-0.81262 m 0.60939,-0.72483 c -0.03329,-0.017 -1.142646,-0.87445 -1.142646,-0.87445 l 0.352482,-1.7333 m 1.973982,-2.3804 c -0.0283,0.0375 -1.331866,1.22735 -1.331866,1.22735 l -2.072848,-0.81261 m 0.609371,-0.72484 c -0.03322,-0.017 -1.142627,-0.87444 -1.142627,-0.87444 l 0.352462,-1.7333 m 1.419844,-0.43223 c -0.03329,-0.017 -1.142626,-0.87444 -1.142626,-0.87444 l 0.352456,-1.73329 m 0.650581,0.37776 c 0.0088,-0.0284 0.528075,-1.01379 0.528075,-1.01379 l 1.404638,0.0388 m 4.823399,0.0912 c -0.0283,0.0376 -1.33186,1.22735 -1.33186,1.22735 l -2.072854,-0.81261 m 0.609376,-0.72485 c -0.03329,-0.017 -1.142633,-0.87445 -1.142633,-0.87445 l 0.352482,-1.73328 m 1.419825,-0.43223 c -0.03322,-0.017 -1.142627,-0.87445 -1.142627,-0.87445 l 0.352463,-1.7333 m 0.650581,0.37777 c 0.0088,-0.0284 0.528068,-1.01379 0.528068,-1.01379 l 1.404645,0.0388 m 2.132801,1.21927 c -0.03329,-0.017 -1.142653,-0.87446 -1.142653,-0.87446 l 0.352489,-1.73328 m 0.650579,0.37776 c 0.0089,-0.0284 0.52807,-1.01379 0.52807,-1.01379 l 1.404618,0.0388 m 0.532415,1.05203 c 0.0089,-0.0283 0.528076,-1.01379 0.528076,-1.01379 l 1.404637,0.0388 m -0.206649,0.56079 c 0.02338,0.003 0.865577,0.27461 0.865577,0.27461 l 0.161734,1.10455 m 35.408783,-20.68601 c -0.03705,-0.0862 -0.807943,-3.52071 -0.807943,-3.52071 l 3.457854,-2.78585 m 0.652433,1.77237 c 0.06244,-0.0408 2.644752,-1.11375 2.644752,-1.11375 l 2.653028,2.32508 m -0.656079,2.88645 c 0.06246,-0.0408 2.644738,-1.11374 2.644738,-1.11374 l 2.653037,2.32507 m -1.297809,0.75297 c 0.04051,0.0433 1.233275,1.91741 1.233275,1.91741 l -1.456756,2.39416 m -4.221449,2.4874 c 0.06246,-0.0408 2.644738,-1.11375 2.644738,-1.11375 l 2.653037,2.32508 m -1.2978,0.75296 c 0.04051,0.0433 1.233266,1.91741 1.233266,1.91741 l -1.456757,2.39416 m -2.348585,-0.1187 c 0.04051,0.0433 1.233275,1.91742 1.233275,1.91742 l -1.456748,2.39416 m -0.766721,-0.91266 c -0.02832,0.0375 -1.331882,1.22735 -1.331882,1.22735 l -2.07283,-0.81261 m -7.140568,-2.72777 c 0.06244,-0.0408 2.644743,-1.11374 2.644743,-1.11374 l 2.653014,2.32507 m -1.29778,0.75296 c 0.04048,0.0433 1.233267,1.91742 1.233267,1.91742 l -1.456749,2.39416 m -2.348588,-0.1187 c 0.04042,0.0433 1.233267,1.91742 1.233267,1.91742 l -1.456748,2.39417 m -0.766738,-0.91267 c -0.0283,0.0376 -1.331867,1.22735 -1.331867,1.22735 l -2.072846,-0.81261 m -2.523884,-2.96347 c 0.04048,0.0433 1.233273,1.91742 1.233273,1.91742 l -1.456735,2.39416 m -0.766732,-0.91266 c -0.0283,0.0376 -1.331885,1.22735 -1.331885,1.22735 l -2.072831,-0.81262 m -0.228294,-1.85419 c -0.0283,0.0376 -1.331878,1.22735 -1.331878,1.22735 l -2.072829,-0.81262 m 0.609371,-0.72484 c -0.03329,-0.017 -1.142633,-0.87444 -1.142633,-0.87444 l 0.352463,-1.7333 m -3.252974,-10.8598 c 0.06237,-0.0408 2.644724,-1.11374 2.644724,-1.11374 l 2.653033,2.32507 m -1.297806,0.75296 c 0.04048,0.0433 1.233274,1.91742 1.233274,1.91742 l -1.456755,2.39417 m -2.348588,-0.1187 c 0.04048,0.0433 1.233267,1.91741 1.233267,1.91741 l -1.456749,2.39416 m -0.766718,-0.91266 c -0.0283,0.0375 -1.331886,1.22735 -1.331886,1.22735 L 63.83648,196.8393 m -2.523883,-2.96346 c 0.04042,0.0433 1.233273,1.91741 1.233273,1.91741 l -1.456755,2.39417 m -0.766731,-0.91267 c -0.0283,0.0375 -1.331867,1.22734 -1.331867,1.22734 l -2.072846,-0.8126 m -0.228294,-1.8542 c -0.0283,0.0376 -1.33186,1.22734 -1.33186,1.22734 l -2.072847,-0.8126 m 0.609363,-0.72484 c -0.03322,-0.017 -1.142626,-0.87446 -1.142626,-0.87446 l 0.352462,-1.73328 m 1.158216,-5.96109 c 0.04042,0.0433 1.233267,1.91742 1.233267,1.91742 l -1.456748,2.39415 m -0.766738,-0.91265 c -0.0283,0.0376 -1.331867,1.22734 -1.331867,1.22734 l -2.072846,-0.81261 m -0.228288,-1.85419 c -0.0283,0.0376 -1.33186,1.22734 -1.33186,1.22734 l -2.072853,-0.81261 m 0.60939,-0.72484 c -0.03329,-0.017 -1.142653,-0.87445 -1.142653,-0.87445 l 0.352488,-1.73329 m 1.973982,-2.3804 c -0.0283,0.0376 -1.33186,1.22735 -1.33186,1.22735 l -2.072847,-0.81262 m 0.609364,-0.72484 c -0.03322,-0.017 -1.142627,-0.87444 -1.142627,-0.87444 l 0.352462,-1.73329 m 1.419845,-0.43223 c -0.03329,-0.017 -1.142626,-0.87445 -1.142626,-0.87445 l 0.352462,-1.73329 m 0.650574,0.37776 c 0.0089,-0.0284 0.528069,-1.01379 0.528069,-1.01379 l 1.404644,0.0388 m 9.515814,-13.23437 c 0.06237,-0.0408 2.644724,-1.11374 2.644724,-1.11374 l 2.653027,2.32508 m -1.297799,0.75295 c 0.04048,0.0433 1.233273,1.91742 1.233273,1.91742 l -1.456755,2.39416 m -2.348588,-0.11869 c 0.04048,0.0433 1.233266,1.91741 1.233266,1.91741 l -1.456747,2.39417 m -0.766719,-0.91267 c -0.0283,0.0375 -1.331879,1.22736 -1.331879,1.22736 l -2.072828,-0.81263 m -2.523883,-2.96346 c 0.04041,0.0433 1.233266,1.91743 1.233266,1.91743 l -1.456748,2.39415 m -0.766738,-0.91266 c -0.0283,0.0375 -1.331866,1.22734 -1.331866,1.22734 l -2.072848,-0.81261 m -0.228286,-1.85419 c -0.0283,0.0375 -1.331866,1.22734 -1.331866,1.22734 l -2.072854,-0.81262 m 0.609376,-0.72483 c -0.03329,-0.017 -1.142633,-0.87446 -1.142633,-0.87446 l 0.352482,-1.73328 m 1.158197,-5.96109 c 0.04048,0.0433 1.233273,1.91741 1.233273,1.91741 l -1.456755,2.39417 m -0.766738,-0.91267 c -0.0283,0.0375 -1.33186,1.22735 -1.33186,1.22735 l -2.072854,-0.81261 m -0.228287,-1.8542 c -0.0283,0.0375 -1.331859,1.22735 -1.331859,1.22735 l -2.072854,-0.81261 m 0.609396,-0.72484 c -0.03329,-0.017 -1.142652,-0.87446 -1.142652,-0.87446 l 0.352481,-1.73328 m 1.973983,-2.3804 c -0.0283,0.0376 -1.33186,1.22734 -1.33186,1.22734 l -2.072854,-0.81261 m 0.609376,-0.72483 c -0.03329,-0.017 -1.142633,-0.87446 -1.142633,-0.87446 l 0.352463,-1.73329 m 1.419844,-0.43222 c -0.03329,-0.017 -1.142627,-0.87445 -1.142627,-0.87445 l 0.352463,-1.73329 m 0.650581,0.37776 c 0.0088,-0.0284 0.528068,-1.01378 0.528068,-1.01378 l 1.404638,0.0388 m 8.053749,-4.03083 c 0.04048,0.0433 1.233273,1.91741 1.233273,1.91741 l -1.456735,2.39417 m -0.766738,-0.91266 c -0.0283,0.0376 -1.33188,1.22733 -1.33188,1.22733 l -2.072827,-0.8126 m -0.228293,-1.8542 c -0.0283,0.0376 -1.331886,1.22734 -1.331886,1.22734 l -2.072827,-0.8126 m 0.609375,-0.72484 c -0.03329,-0.017 -1.142633,-0.87445 -1.142633,-0.87445 l 0.352463,-1.73329 m 1.974001,-2.38041 c -0.0283,0.0376 -1.331879,1.22735 -1.331879,1.22735 l -2.072827,-0.81261 m 0.609369,-0.72484 c -0.03329,-0.017 -1.142633,-0.87445 -1.142633,-0.87445 l 0.352463,-1.73329 m 1.419825,-0.43222 c -0.03322,-0.017 -1.142627,-0.87445 -1.142627,-0.87445 l 0.352463,-1.73329 m 0.650574,0.37776 c 0.0088,-0.0284 0.528076,-1.01379 0.528076,-1.01379 l 1.404637,0.0388 m 4.823424,0.0912 c -0.0283,0.0376 -1.331886,1.22735 -1.331886,1.22735 l -2.072827,-0.81262 m 0.60937,-0.72483 c -0.03329,-0.017 -1.142634,-0.87446 -1.142634,-0.87446 l 0.352463,-1.73329 m 1.419832,-0.43222 c -0.03329,-0.017 -1.142633,-0.87446 -1.142633,-0.87446 l 0.352462,-1.73329 m 0.65058,0.37776 c 0.0088,-0.0284 0.52807,-1.01378 0.52807,-1.01378 l 1.404644,0.0388 m 2.1328,1.21928 c -0.03322,-0.017 -1.142633,-0.87444 -1.142633,-0.87444 l 0.352469,-1.73329 m 0.650575,0.37775 c 0.0089,-0.0284 0.528075,-1.01378 0.528075,-1.01378 l 1.404637,0.0388 m 0.532422,1.05202 c 0.0088,-0.0284 0.528069,-1.01379 0.528069,-1.01379 l 1.404643,0.0388 m -0.206674,0.56079 c 0.02338,0.003 0.865584,0.27463 0.865584,0.27463 l 0.161727,1.10454 m 23.077596,-0.85598 c 0.06238,-0.0408 2.644746,-1.11374 2.644746,-1.11374 l 2.653027,2.32508 m -1.2978,0.75296 c 0.04048,0.0433 1.233274,1.91741 1.233274,1.91741 l -1.456755,2.39416 m -2.348588,-0.11869 c 0.04048,0.0433 1.233267,1.91741 1.233267,1.91741 l -1.456755,2.39416 m -0.766731,-0.91265 c -0.0283,0.0376 -1.331863,1.22735 -1.331863,1.22735 l -2.072853,-0.81263 m -2.523858,-2.96345 c 0.04042,0.0433 1.233266,1.91742 1.233266,1.91742 l -1.456747,2.39416 m -0.766745,-0.91266 c -0.0283,0.0376 -1.33186,1.22734 -1.33186,1.22734 l -2.072847,-0.81261 m -0.228287,-1.85419 c -0.0283,0.0376 -1.331885,1.22733 -1.331885,1.22733 l -2.072835,-0.8126 m 0.609376,-0.72484 c -0.03322,-0.017 -1.142633,-0.87446 -1.142633,-0.87446 l 0.352463,-1.73328 m 1.158216,-5.96109 c 0.04041,0.0433 1.233274,1.91742 1.233274,1.91742 l -1.456755,2.39416 m -0.766739,-0.91266 c -0.0283,0.0375 -1.331859,1.22735 -1.331859,1.22735 l -2.072854,-0.81262 m -0.228287,-1.85419 c -0.0283,0.0375 -1.331867,1.22735 -1.331867,1.22735 l -2.072846,-0.81263 m 0.609369,-0.72483 c -0.03322,-0.0169 -1.142627,-0.87445 -1.142627,-0.87445 l 0.352457,-1.73329 m 1.974008,-2.3804 c -0.0283,0.0376 -1.331879,1.22735 -1.331879,1.22735 l -2.072835,-0.81262 m 0.609377,-0.72483 c -0.03322,-0.017 -1.142634,-0.87445 -1.142634,-0.87445 l 0.352463,-1.7333 m 1.419845,-0.43222 c -0.03329,-0.017 -1.142627,-0.87445 -1.142627,-0.87445 l 0.352463,-1.73329 m 0.650581,0.37776 c 0.0088,-0.0283 0.528068,-1.01378 0.528068,-1.01378 l 1.404618,0.0388 m 8.053769,-4.03083 c 0.04048,0.0433 1.233273,1.91741 1.233273,1.91741 l -1.456755,2.39417 m -0.766718,-0.91266 c -0.0283,0.0376 -1.33188,1.22734 -1.33188,1.22734 l -2.072834,-0.81261 m -0.228286,-1.8542 c -0.0283,0.0376 -1.331887,1.22735 -1.331887,1.22735 l -2.072828,-0.81261 m 0.609371,-0.72483 c -0.03329,-0.017 -1.142627,-0.87446 -1.142627,-0.87446 l 0.352463,-1.73329 m 1.973982,-2.3804 c -0.0283,0.0375 -1.331861,1.22735 -1.331861,1.22735 l -2.072853,-0.81262 m 0.60939,-0.72483 c -0.03329,-0.017 -1.142647,-0.87446 -1.142647,-0.87446 l 0.352482,-1.73329 m 1.419826,-0.43222 c -0.03329,-0.017 -1.142627,-0.87446 -1.142627,-0.87446 l 0.352463,-1.73328 m 0.650573,0.37776 c 0.0088,-0.0284 0.528076,-1.01379 0.528076,-1.01379 l 1.404638,0.0388 m 4.823398,0.0912 c -0.0283,0.0376 -1.33186,1.22735 -1.33186,1.22735 l -2.072847,-0.81262 m 0.609389,-0.72483 c -0.03329,-0.017 -1.142653,-0.87446 -1.142653,-0.87446 l 0.352483,-1.73328 m 1.419831,-0.43222 c -0.03322,-0.017 -1.142633,-0.87446 -1.142633,-0.87446 l 0.352463,-1.73329 m 0.650574,0.37776 c 0.0089,-0.0284 0.528075,-1.01379 0.528075,-1.01379 l 1.404638,0.0388 m 2.132807,1.21928 c -0.03329,-0.017 -1.142633,-0.87445 -1.142633,-0.87445 l 0.352469,-1.73329 m 0.650574,0.37776 c 0.0089,-0.0284 0.528075,-1.01379 0.528075,-1.01379 l 1.404638,0.0388 m 0.532421,1.05203 c 0.0088,-0.0284 0.52807,-1.01378 0.52807,-1.01378 l 1.404617,0.0388 m -0.206648,0.56078 c 0.02338,0.003 0.865577,0.27462 0.865577,0.27462 l 0.161734,1.10455 m 11.658261,5.63703 c 0.04048,0.0433 1.233267,1.91742 1.233267,1.91742 l -1.456729,2.39416 m -0.766738,-0.91266 c -0.0283,0.0375 -1.331886,1.22735 -1.331886,1.22735 l -2.072828,-0.81262 m -0.228286,-1.85419 c -0.0283,0.0375 -1.331889,1.22734 -1.331889,1.22734 l -2.072827,-0.81261 m 0.609369,-0.72484 c -0.03329,-0.017 -1.142626,-0.87445 -1.142626,-0.87445 l 0.352456,-1.73329 m 1.974008,-2.3804 c -0.0283,0.0375 -1.33188,1.22735 -1.33188,1.22735 l -2.072833,-0.81262 m 0.609369,-0.72483 c -0.03329,-0.017 -1.142627,-0.87446 -1.142627,-0.87446 l 0.352463,-1.73329 m 1.419825,-0.43222 c -0.03322,-0.017 -1.142633,-0.87446 -1.142633,-0.87446 l 0.352469,-1.73328 m 0.650574,0.377759 c 0.0089,-0.02832 0.52807,-1.01379 0.52807,-1.01379 l 1.404643,0.03881 m 4.82342,0.09119 c -0.0283,0.03755 -1.331885,1.227351 -1.331885,1.227351 l -2.072828,-0.812615 m 0.609377,-0.724833 c -0.03329,-0.01703 -1.142636,-0.874452 -1.142636,-0.874452 l 0.352462,-1.733292 m 1.419828,-0.432221 c -0.03322,-0.01703 -1.142626,-0.874452 -1.142626,-0.874452 l 0.352481,-1.733292 m 0.650555,0.37776 c 0.0088,-0.02841 0.528069,-1.013791 0.528069,-1.013791 l 1.404644,0.0388 m 2.132807,1.219286 c -0.03322,-0.01703 -1.142626,-0.874452 -1.142626,-0.874452 l 0.352456,-1.733292 m 0.65058,0.377759 c 0.0089,-0.02832 0.52807,-1.01379 0.52807,-1.01379 l 1.404643,0.0388 m 0.532415,1.05203 c 0.0088,-0.02832 0.528069,-1.013781 0.528069,-1.013781 l 1.404644,0.0388 m -0.206675,0.560787 c 0.02345,0.0027 0.865584,0.274618 0.865584,0.274618 l 0.161734,1.104547 m 4.255828,5.751477 c -0.0283,0.03755 -1.331885,1.227343 -1.331885,1.227343 L 85.73361,98.122843 m 0.609376,-0.724842 c -0.03329,-0.01703 -1.142634,-0.874452 -1.142634,-0.874452 l 0.352463,-1.733292 m 1.419832,-0.432221 c -0.03329,-0.01703 -1.142633,-0.874452 -1.142633,-0.874452 l 0.352462,-1.733292 m 0.650574,0.377769 c 0.0089,-0.02841 0.528076,-1.013791 0.528076,-1.013791 l 1.404637,0.0388 m 2.13281,1.219277 C 90.865325,92.355324 89.755937,91.4979 89.755937,91.4979 l 0.35247,-1.733283 m 0.650577,0.377759 c 0.009,-0.02841 0.528076,-1.01379 0.528076,-1.01379 l 1.404635,0.0388 m 0.532423,1.052021 c 0.009,-0.02832 0.528067,-1.013781 0.528067,-1.013781 l 1.404644,0.0388 m -0.206678,0.560787 c 0.02339,0.0027 0.865579,0.274627 0.865579,0.274627 l 0.161735,1.104547 m 0.588264,3.787167 c -0.03325,-0.01703 -1.142653,-0.874452 -1.142653,-0.874452 l 0.352478,-1.733283 m 0.650585,0.37776 c 0.009,-0.02841 0.528068,-1.013791 0.528068,-1.013791 l 1.404625,0.0388 m 0.532414,1.052031 c 0.009,-0.02841 0.528068,-1.013791 0.528068,-1.013791 l 1.404636,0.0388 m -0.20664,0.560787 c 0.0234,0.0027 0.86558,0.274627 0.86558,0.274627 l 0.16173,1.104547 m -0.66254,1.835833 c 0.009,-0.02841 0.52808,-1.01379 0.52808,-1.01379 l 1.40463,0.0388 m -0.20665,0.560787 c 0.0234,0.0027 0.86559,0.274618 0.86559,0.274618 l 0.16173,1.104547 m -0.7505,0.560527 c 0.0235,0.0027 0.86557,0.274618 0.86557,0.274618 l 0.16174,1.104547 m -0.46712,-0.08505 c 0,0.01873 -0.0966,0.71494 -0.0966,0.71494 l -0.84228,0.277611 m 53.89782,21.139653 c -0.037,-0.0862 -0.80794,-3.5207 -0.80794,-3.5207 l 3.45788,-2.78584 m 0.65244,1.77236 c 0.0624,-0.0408 2.64474,-1.11375 2.64474,-1.11375 l 2.65301,2.32508 m -0.65606,2.88645 c 0.0624,-0.0408 2.64475,-1.11375 2.64475,-1.11375 l 2.65301,2.32508 m -1.29779,0.75296 c 0.0404,0.0433 1.23327,1.91741 1.23327,1.91741 l -1.45675,2.39416 m -4.22146,2.4874 c 0.0625,-0.0408 2.64475,-1.11375 2.64475,-1.11375 l 2.65301,2.32508 m -1.29777,0.75296 c 0.0404,0.0433 1.23326,1.91742 1.23326,1.91742 l -1.45674,2.39416 m -2.3486,-0.11869 c 0.0404,0.0433 1.23327,1.91741 1.23327,1.91741 l -1.45675,2.39416 m -0.76674,-0.91266 c -0.0283,0.0376 -1.33186,1.22735 -1.33186,1.22735 l -2.07285,-0.81262 m -7.14055,-2.72776 c 0.0624,-0.0408 2.64475,-1.11375 2.64475,-1.11375 l 2.65301,2.32508 m -1.29781,0.75297 c 0.0405,0.0433 1.23328,1.9174 1.23328,1.9174 l -1.45673,2.39417 m -2.34861,-0.11869 c 0.0405,0.0433 1.23327,1.9174 1.23327,1.9174 l -1.45674,2.39416 m -0.76673,-0.91265 c -0.0283,0.0376 -1.33188,1.22735 -1.33188,1.22735 l -2.07283,-0.81262 m -2.52389,-2.96345 c 0.0405,0.0433 1.23328,1.91741 1.23328,1.91741 l -1.45676,2.39416 m -0.76674,-0.91266 c -0.0283,0.0376 -1.33185,1.22735 -1.33185,1.22735 l -2.07286,-0.81262 m -0.22829,-1.85419 c -0.0283,0.0375 -1.33185,1.22734 -1.33185,1.22734 l -2.07286,-0.81261 m 0.6094,-0.72484 c -0.0333,-0.017 -1.14265,-0.87446 -1.14265,-0.87446 l 0.35248,-1.73328 m -3.253,-10.85975 c 0.0625,-0.0408 2.64474,-1.11374 2.64474,-1.11374 l 2.65302,2.32508 m -1.29779,0.75296 c 0.0404,0.0433 1.23327,1.91741 1.23327,1.91741 l -1.45675,2.39417 m -2.34858,-0.1187 c 0.0404,0.0433 1.23326,1.91742 1.23326,1.91742 l -1.45675,2.39415 m -0.76673,-0.91264 c -0.0283,0.0376 -1.33187,1.22733 -1.33187,1.22733 l -2.07285,-0.81261 m -2.52388,-2.96346 c 0.0405,0.0433 1.23327,1.91741 1.23327,1.91741 l -1.45674,2.39417 m -0.76673,-0.91267 c -0.0283,0.0375 -1.33188,1.22735 -1.33188,1.22735 l -2.07283,-0.81261 m -0.22829,-1.8542 c -0.0283,0.0375 -1.33188,1.22735 -1.33188,1.22735 l -2.07283,-0.81261 m 0.60937,-0.72485 c -0.0332,-0.017 -1.14263,-0.87444 -1.14263,-0.87444 l 0.35246,-1.73329 m 1.15819,-5.96109 c 0.0405,0.0433 1.23328,1.91742 1.23328,1.91742 l -1.45673,2.39416 m -0.76674,-0.91265 c -0.0283,0.0376 -1.33188,1.22734 -1.33188,1.22734 l -2.07283,-0.81262 m -0.2283,-1.85419 c -0.0283,0.0376 -1.33188,1.22735 -1.33188,1.22735 l -2.07283,-0.81262 m 0.60937,-0.72483 c -0.0333,-0.017 -1.14263,-0.87446 -1.14263,-0.87446 l 0.35246,-1.73329 m 1.97401,-2.3804 c -0.0283,0.0376 -1.33189,1.22735 -1.33189,1.22735 l -2.07282,-0.81261 m 0.60937,-0.72484 c -0.0332,-0.017 -1.14263,-0.87445 -1.14263,-0.87445 l 0.35247,-1.7333 m 1.41982,-0.43222 c -0.0332,-0.017 -1.14264,-0.87446 -1.14264,-0.87446 l 0.35249,-1.73328 m 0.65056,0.37776 c 0.009,-0.0284 0.52807,-1.01379 0.52807,-1.01379 l 1.40464,0.0388 m 9.51581,-13.23436 c 0.0625,-0.0408 2.64474,-1.11375 2.64474,-1.11375 l 2.65302,2.32507 m -1.29778,0.75297 c 0.0404,0.0433 1.23326,1.91741 1.23326,1.91741 l -1.45675,2.39416 m -2.34858,-0.11869 c 0.0404,0.0433 1.23326,1.91741 1.23326,1.91741 l -1.45674,2.39417 m -0.76674,-0.91266 c -0.0283,0.0375 -1.33187,1.22734 -1.33187,1.22734 l -2.07284,-0.81261 m -2.52389,-2.96346 c 0.0405,0.0433 1.23327,1.91741 1.23327,1.91741 l -1.45674,2.39416 m -0.76673,-0.91265 c -0.0283,0.0375 -1.33188,1.22735 -1.33188,1.22735 l -2.07283,-0.81262 m -0.22829,-1.8542 c -0.0283,0.0376 -1.33188,1.22735 -1.33188,1.22735 l -2.07282,-0.81262 m 0.60936,-0.72483 c -0.0332,-0.017 -1.14263,-0.87445 -1.14263,-0.87445 l 0.35246,-1.7333 m 1.15819,-5.96107 c 0.0405,0.0433 1.23328,1.91741 1.23328,1.91741 l -1.45673,2.39416 m -0.76674,-0.91266 c -0.0283,0.0375 -1.33189,1.22734 -1.33189,1.22734 l -2.07282,-0.8126 m -0.22829,-1.8542 c -0.0283,0.0375 -1.33189,1.22734 -1.33189,1.22734 l -2.07283,-0.8126 m 0.60937,-0.72485 c -0.0333,-0.017 -1.14263,-0.87446 -1.14263,-0.87446 l 0.35247,-1.73328 m 1.974,-2.38039 c -0.0283,0.0376 -1.33189,1.22733 -1.33189,1.22733 l -2.07282,-0.8126 m 0.60937,-0.72484 c -0.0332,-0.017 -1.14262,-0.87446 -1.14262,-0.87446 l 0.35246,-1.73328 m 1.41982,-0.43222 c -0.0333,-0.017 -1.14262,-0.87446 -1.14262,-0.87446 l 0.35247,-1.733292 m 0.65056,0.377769 c 0.009,-0.02841 0.52807,-1.013791 0.52807,-1.013791 l 1.40464,0.0388 m 8.05377,-4.030822 c 0.0405,0.04329 1.23326,1.917404 1.23326,1.917404 l -1.45674,2.394166 m -0.76674,-0.912656 c -0.0283,0.03755 -1.33187,1.227351 -1.33187,1.227351 l -2.07284,-0.812624 m -0.22829,-1.854197 c -0.0283,0.03755 -1.33186,1.227352 -1.33186,1.227352 l -2.07285,-0.812615 m 0.60939,-0.724834 c -0.0332,-0.01703 -1.14266,-0.874461 -1.14266,-0.874461 l 0.35249,-1.733283 m 1.97398,-2.3804 c -0.0283,0.03755 -1.33185,1.227342 -1.33185,1.227342 l -2.07286,-0.812615 m 0.60937,-0.724833 c -0.0333,-0.01703 -1.14263,-0.874452 -1.14263,-0.874452 l 0.35246,-1.733283 m 1.41986,-0.43223 c -0.0332,-0.01703 -1.14263,-0.874452 -1.14263,-0.874452 l 0.35246,-1.733292 m 0.65058,0.37776 c 0.009,-0.02841 0.52806,-1.013782 0.52806,-1.013782 l 1.40465,0.0388 m 4.82339,0.0912 c -0.0283,0.03755 -1.33186,1.227342 -1.33186,1.227342 l -2.07285,-0.812615 m 0.60937,-0.724834 c -0.0332,-0.01703 -1.14262,-0.874452 -1.14262,-0.874452 l 0.35248,-1.733283 m 1.41982,-0.43223 c -0.0333,-0.01703 -1.14263,-0.87446 -1.14263,-0.87446 l 0.35246,-1.733274 m 0.65058,0.37775 c 0.009,-0.02841 0.52808,-1.013781 0.52808,-1.013781 l 1.40463,0.0388 m 2.13281,1.219286 c -0.0332,-0.01703 -1.14265,-0.874452 -1.14265,-0.874452 l 0.35248,-1.733292 m 0.65058,0.37776 c 0.009,-0.02841 0.52808,-1.013782 0.52808,-1.013782 l 1.40461,0.0388 m 0.53242,1.052031 c 0.009,-0.02841 0.52808,-1.013791 0.52808,-1.013791 l 1.40463,0.0388 m -0.20665,0.560787 c 0.0234,0.0027 0.86558,0.274618 0.86558,0.274618 l 0.16173,1.104547 m 23.07759,-0.855972 c 0.0624,-0.04078 2.64475,-1.113742 2.64475,-1.113742 l 2.65301,2.325078 m -1.29778,0.752956 c 0.0404,0.04329 1.23327,1.917413 1.23327,1.917413 l -1.45675,2.394165 M 145.776,83.428144 c 0.0404,0.04329 1.23326,1.917413 1.23326,1.917413 l -1.45674,2.394165 m -0.76673,-0.912656 c -0.0283,0.03755 -1.3319,1.227351 -1.3319,1.227351 l -2.07282,-0.812624 m -2.52388,-2.963457 c 0.0405,0.04329 1.23327,1.917422 1.23327,1.917422 l -1.45675,2.394156 m -0.76672,-0.912656 c -0.0283,0.03755 -1.33189,1.227342 -1.33189,1.227342 l -2.07282,-0.812615 m -0.22829,-1.854187 c -0.0283,0.03755 -1.33189,1.227333 -1.33189,1.227333 l -2.07283,-0.812606 m 0.60937,-0.724834 c -0.0332,-0.01703 -1.14263,-0.87446 -1.14263,-0.87446 l 0.35247,-1.733284 m 1.15818,-5.961086 c 0.0405,0.04329 1.23328,1.917414 1.23328,1.917414 l -1.45676,2.394156 m -0.76671,-0.912656 c -0.0283,0.03755 -1.33188,1.227351 -1.33188,1.227351 l -2.07283,-0.812839 m -0.22829,-1.854197 c -0.0283,0.03755 -1.33188,1.227343 -1.33188,1.227343 l -2.07283,-0.812615 m 0.60937,-0.724834 c -0.0333,-0.01703 -1.14263,-0.874452 -1.14263,-0.874452 l 0.35246,-1.733283 m 1.974,-2.380409 c -0.0283,0.03755 -1.33188,1.227351 -1.33188,1.227351 l -2.07283,-0.812615 m 0.60937,-0.724833 c -0.0332,-0.01703 -1.14263,-0.874452 -1.14263,-0.874452 l 0.35247,-1.733292 m 1.41982,-0.43223 c -0.0332,-0.01703 -1.14263,-0.874443 -1.14263,-0.874443 l 0.35246,-1.733292 m 0.65058,0.37776 c 0.009,-0.02832 0.52808,-1.013782 0.52808,-1.013782 l 1.40464,0.03881 m 8.05377,-4.030831 c 0.0404,0.04329 1.23326,1.917413 1.23326,1.917413 l -1.45675,2.394166 m -0.76673,-0.912665 c -0.0283,0.03755 -1.33187,1.227342 -1.33187,1.227342 l -2.07285,-0.812606 m -0.22828,-1.854197 c -0.0283,0.03755 -1.33187,1.227343 -1.33187,1.227343 l -2.07285,-0.812606 m 0.60937,-0.724843 c -0.0332,-0.01703 -1.14263,-0.874452 -1.14263,-0.874452 l 0.35247,-1.733283 m 1.974,-2.380409 c -0.0283,0.03755 -1.33188,1.227351 -1.33188,1.227351 l -2.07283,-0.812615 m 0.60937,-0.724834 c -0.0332,-0.01703 -1.14263,-0.87446 -1.14263,-0.87446 l 0.35246,-1.733283 m 1.41984,-0.432221 c -0.0332,-0.01703 -1.14262,-0.874461 -1.14262,-0.874461 l 0.35246,-1.733283 m 0.65057,0.37776 c 0.009,-0.02841 0.52807,-1.013791 0.52807,-1.013791 l 1.40463,0.03881 m 4.82341,0.09119 c -0.0283,0.03755 -1.33187,1.227351 -1.33187,1.227351 l -2.07284,-0.812615 m 0.60937,-0.724834 c -0.0333,-0.01703 -1.14262,-0.874452 -1.14262,-0.874452 l 0.35246,-1.733292 m 1.41985,-0.432221 c -0.0332,-0.01703 -1.14263,-0.874451 -1.14263,-0.874451 l 0.35245,-1.733292 m 0.65059,0.377759 c 0.009,-0.02832 0.52807,-1.01379 0.52807,-1.01379 l 1.40464,0.0388 m 2.13278,1.219286 c -0.0333,-0.01703 -1.14263,-0.874452 -1.14263,-0.874452 l 0.35247,-1.733292 m 0.65057,0.37776 c 0.009,-0.02832 0.52807,-1.013791 0.52807,-1.013791 l 1.40464,0.0388 m 0.53243,1.052031 c 0.009,-0.02841 0.52806,-1.013791 0.52806,-1.013791 l 1.40465,0.0388 m -0.20666,0.560787 c 0.0234,0.0027 0.86559,0.274618 0.86559,0.274618 l 0.16171,1.104547 m 11.65827,5.637044 c 0.0405,0.04329 1.23327,1.917404 1.23327,1.917404 l -1.45675,2.394165 m -0.76674,-0.912665 c -0.0283,0.03755 -1.33186,1.227351 -1.33186,1.227351 l -2.07285,-0.812615 m -0.22829,-1.854196 c -0.0283,0.03755 -1.33186,1.227351 -1.33186,1.227351 l -2.07284,-0.812615 m 0.60938,-0.724834 c -0.0332,-0.01703 -1.14265,-0.87446 -1.14265,-0.87446 l 0.35249,-1.733283 m 1.97398,-2.3804 c -0.0283,0.03755 -1.33187,1.227342 -1.33187,1.227342 l -2.07284,-0.812606 m 0.60937,-0.724843 c -0.0333,-0.01703 -1.14264,-0.874452 -1.14264,-0.874452 l 0.35247,-1.733292 m 1.41984,-0.43222 c -0.0332,-0.01703 -1.14262,-0.874461 -1.14262,-0.874461 l 0.35246,-1.733283 m 0.65057,0.377759 c 0.009,-0.02832 0.52808,-1.01379 0.52808,-1.01379 l 1.40464,0.0388 m 4.8234,0.0912 c -0.0283,0.03755 -1.33186,1.227343 -1.33186,1.227343 L 144.77819,43.3568 m 0.60938,-0.724825 c -0.0333,-0.01703 -1.14264,-0.874461 -1.14264,-0.874461 l 0.35249,-1.733292 m 1.41983,-0.432212 c -0.0332,-0.01703 -1.14264,-0.874461 -1.14264,-0.874461 l 0.35246,-1.733292 m 0.65059,0.37776 c 0.009,-0.02832 0.52806,-1.013791 0.52806,-1.013791 l 1.40465,0.03881 m 2.13281,1.219286 c -0.0333,-0.01694 -1.14265,-0.874452 -1.14265,-0.874452 l 0.35247,-1.733292 m 0.65059,0.377759 c 0.009,-0.02832 0.52807,-1.013781 0.52807,-1.013781 l 1.40461,0.0388 m 0.53243,1.05203 c 0.009,-0.02832 0.52806,-1.01379 0.52806,-1.01379 l 1.40465,0.0388 m -0.20665,0.560787 c 0.0234,0.0027 0.86558,0.274627 0.86558,0.274627 l 0.16172,1.104538 m 4.25581,5.751486 c -0.0283,0.03755 -1.33186,1.227343 -1.33186,1.227343 l -2.07285,-0.812616 m 0.60937,-0.724833 c -0.0333,-0.01703 -1.14263,-0.874461 -1.14263,-0.874461 l 0.35246,-1.733283 m 1.41985,-0.432221 c -0.0332,-0.01703 -1.14263,-0.874461 -1.14263,-0.874461 l 0.35246,-1.733283 m 0.65058,0.37776 c 0.009,-0.02841 0.52807,-1.013791 0.52807,-1.013791 l 1.40465,0.03881 m 2.1328,1.219286 c -0.0333,-0.01703 -1.14266,-0.874461 -1.14266,-0.874461 l 0.35249,-1.733283 m 0.65058,0.377759 c 0.009,-0.02832 0.52807,-1.013781 0.52807,-1.013781 l 1.40462,0.0388 m 0.53241,1.05203 c 0.009,-0.02841 0.52808,-1.013781 0.52808,-1.013781 l 1.40464,0.0388 m -0.20666,0.560787 c 0.0234,0.0027 0.86559,0.274618 0.86559,0.274618 l 0.16171,1.104556 m 0.58826,3.787167 c -0.0333,-0.01703 -1.14263,-0.874461 -1.14263,-0.874461 l 0.35247,-1.733283 m 0.65057,0.37776 c 0.009,-0.02841 0.52807,-1.013782 0.52807,-1.013782 l 1.40465,0.0388 m 0.53241,1.052031 c 0.009,-0.02841 0.52808,-1.013782 0.52808,-1.013782 l 1.40463,0.0388 m -0.20667,0.560787 c 0.0234,0.0027 0.86561,0.274618 0.86561,0.274618 l 0.16171,1.104556 m -0.66253,1.835824 c 0.009,-0.02841 0.52808,-1.01379 0.52808,-1.01379 l 1.40464,0.0388 m -0.20666,0.560796 c 0.0234,0.0027 0.86559,0.274609 0.86559,0.274609 l 0.16171,1.104556 m -0.75047,0.560518 c 0.0234,0.0027 0.86558,0.274618 0.86558,0.274618 l 0.16171,1.104547 m -0.46712,-0.08505 c 0,0.01873 -0.0965,0.71494 -0.0965,0.71494 l -0.84228,0.277611 m 21.03069,24.88131 c 0.0624,-0.04078 2.64475,-1.113733 2.64475,-1.113733 l 2.65303,2.32507 m -1.2978,0.752965 c 0.0405,0.04328 1.23327,1.917413 1.23327,1.917413 l -1.45675,2.394165 m -2.34859,-0.1187 c 0.0404,0.04329 1.23327,1.917413 1.23327,1.917413 l -1.45675,2.394166 m -0.76672,-0.912656 c -0.0283,0.03755 -1.33189,1.227342 -1.33189,1.227342 L 190.8096,78.745458 M 188.28573,75.782 c 0.0404,0.04329 1.23327,1.917414 1.23327,1.917414 l -1.45676,2.394165 m -0.76673,-0.912665 c -0.0283,0.03755 -1.33186,1.227351 -1.33186,1.227351 l -2.07286,-0.812615 m -0.22828,-1.854196 c -0.0283,0.03755 -1.33189,1.227342 -1.33189,1.227342 L 180.2578,78.15619 m 0.60936,-0.724834 c -0.0333,-0.01703 -1.14263,-0.874461 -1.14263,-0.874461 l 0.35247,-1.733292 m 1.15821,-5.961077 c 0.0404,0.04329 1.23327,1.917413 1.23327,1.917413 l -1.45675,2.394156 m -0.76674,-0.912656 c -0.0283,0.03755 -1.33186,1.227342 -1.33186,1.227342 l -2.07285,-0.812606 m -0.22829,-1.854196 c -0.0283,0.03755 -1.33186,1.227342 -1.33186,1.227342 l -2.07285,-0.812615 m 0.60937,-0.724834 c -0.0333,-0.01703 -1.14263,-0.874451 -1.14263,-0.874451 l 0.35247,-1.733292 m 1.97399,-2.3804 c -0.0283,0.03755 -1.33188,1.227351 -1.33188,1.227351 l -2.07283,-0.812615 m 0.60937,-0.724843 c -0.0332,-0.01703 -1.14262,-0.874443 -1.14262,-0.874443 l 0.35246,-1.733292 m 1.41985,-0.432229 c -0.0333,-0.01703 -1.14264,-0.874443 -1.14264,-0.874443 l 0.35247,-1.733292 m 0.65057,0.377759 c 0.009,-0.02841 0.52808,-1.01379 0.52808,-1.01379 l 1.40464,0.03881 m 8.05375,-4.030831 c 0.0405,0.04329 1.23326,1.917413 1.23326,1.917413 l -1.45674,2.394156 m -0.76673,-0.912647 c -0.0283,0.03755 -1.33188,1.227342 -1.33188,1.227342 l -2.07283,-0.812615 m -0.22828,-1.854196 c -0.0283,0.03755 -1.33189,1.227342 -1.33189,1.227342 l -2.07282,-0.812606 m 0.60937,-0.724843 c -0.0332,-0.01703 -1.14264,-0.874451 -1.14264,-0.874451 l 0.35246,-1.733284 m 1.97399,-2.380399 c -0.0283,0.03755 -1.33186,1.227342 -1.33186,1.227342 l -2.07285,-0.812615 m 0.60939,-0.724834 c -0.0333,-0.01703 -1.14265,-0.874461 -1.14265,-0.874461 l 0.35248,-1.733283 m 1.41983,-0.43222 c -0.0333,-0.01703 -1.14264,-0.874461 -1.14264,-0.874461 l 0.35247,-1.733283 m 0.65058,0.377759 c 0.009,-0.02841 0.52806,-1.01379 0.52806,-1.01379 l 1.40465,0.0388 m 4.82342,0.09119 c -0.0283,0.03755 -1.33189,1.227342 -1.33189,1.227342 l -2.07282,-0.812615 m 0.60936,-0.724833 c -0.0333,-0.01703 -1.14263,-0.874461 -1.14263,-0.874461 l 0.35247,-1.733283 m 1.41983,-0.432221 c -0.0332,-0.01703 -1.14264,-0.874461 -1.14264,-0.874461 l 0.35246,-1.733283 m 0.65059,0.37776 c 0.009,-0.02841 0.52807,-1.013782 0.52807,-1.013782 l 1.40464,0.03881 m 2.1328,1.219286 c -0.0333,-0.01703 -1.14262,-0.874461 -1.14262,-0.874461 l 0.35246,-1.733283 m 0.65057,0.377759 c 0.009,-0.02841 0.52807,-1.013781 0.52807,-1.013781 l 1.40465,0.03881 m 0.53242,1.05203 c 0.009,-0.02841 0.52806,-1.01379 0.52806,-1.01379 l 1.40463,0.0388 m -0.20666,0.560787 c 0.0235,0.0027 0.86559,0.274627 0.86559,0.274627 l 0.16173,1.104538 m 11.65825,5.637034 c 0.0405,0.04329 1.23327,1.917414 1.23327,1.917414 l -1.45673,2.394165 m -0.76674,-0.912656 c -0.0283,0.03755 -1.33188,1.227342 -1.33188,1.227342 l -2.07283,-0.812606 m -0.22828,-1.854205 c -0.0283,0.03755 -1.33188,1.227351 -1.33188,1.227351 l -2.07284,-0.812615 m 0.60938,-0.724843 c -0.0332,-0.01703 -1.14264,-0.874443 -1.14264,-0.874443 l 0.35246,-1.733292 m 1.97401,-2.3804 c -0.0283,0.03755 -1.33188,1.227343 -1.33188,1.227343 l -2.07283,-0.812616 m 0.60937,-0.724833 c -0.0333,-0.01703 -1.14263,-0.874452 -1.14263,-0.874452 l 0.35246,-1.733292 m 1.41982,-0.432221 c -0.0332,-0.01703 -1.14262,-0.874452 -1.14262,-0.874452 l 0.35246,-1.733292 m 0.65058,0.377769 c 0.009,-0.02841 0.52807,-1.013791 0.52807,-1.013791 l 1.40464,0.0388 m 4.82342,0.09119 c -0.0283,0.03755 -1.33189,1.227351 -1.33189,1.227351 l -2.07282,-0.812624 m 0.60937,-0.724834 c -0.0332,-0.01703 -1.14263,-0.874452 -1.14263,-0.874452 l 0.35245,-1.733292 m 1.41986,-0.43222 c -0.0332,-0.01703 -1.14266,-0.874452 -1.14266,-0.874452 l 0.35248,-1.733292 m 0.65057,0.377759 c 0.009,-0.02832 0.52807,-1.013781 0.52807,-1.013781 l 1.40464,0.0388 m 2.1328,1.219285 c -0.0333,-0.01703 -1.14262,-0.874452 -1.14262,-0.874452 l 0.35246,-1.733292 m 0.65058,0.37776 c 0.009,-0.02832 0.52807,-1.013782 0.52807,-1.013782 l 1.40464,0.0388 m 0.53242,1.052022 c 0.009,-0.02832 0.52806,-1.013791 0.52806,-1.013791 l 1.40465,0.0388 m -0.20668,0.560787 c 0.0235,0.0027 0.86559,0.274618 0.86559,0.274618 l 0.16172,1.104547 m 4.25583,5.751478 c -0.0283,0.03755 -1.33188,1.227351 -1.33188,1.227351 L 205.30165,34.0884 m 0.60935,-0.72479 c -0.0333,-0.01703 -1.14263,-0.874461 -1.14263,-0.874461 l 0.35246,-1.733283 m 1.41983,-0.43222 c -0.0333,-0.01703 -1.14263,-0.874461 -1.14263,-0.874461 l 0.35249,-1.733283 m 0.65055,0.37775 c 0.009,-0.02832 0.52807,-1.013781 0.52807,-1.013781 l 1.40465,0.0388 m 2.13279,1.219276 c -0.0332,-0.01703 -1.14263,-0.874443 -1.14263,-0.874443 l 0.35247,-1.733292 m 0.65058,0.37776 c 0.009,-0.02832 0.52807,-1.013782 0.52807,-1.013782 l 1.40464,0.0388 m 0.53241,1.052022 c 0.009,-0.02832 0.52808,-1.013791 0.52808,-1.013791 l 1.40464,0.0388 m -0.20667,0.560788 c 0.0235,0.0027 0.86558,0.274617 0.86558,0.274617 l 0.16173,1.104547 m 0.58826,3.787176 c -0.0332,-0.01703 -1.14263,-0.87446 -1.14263,-0.87446 l 0.35247,-1.733283 m 0.65057,0.377759 c 0.009,-0.02841 0.52807,-1.01379 0.52807,-1.01379 l 1.40463,0.0388 m 0.53241,1.052022 c 0.009,-0.02841 0.52808,-1.013781 0.52808,-1.013781 l 1.40463,0.0388 m -0.20665,0.560797 c 0.0234,0.0027 0.86558,0.274608 0.86558,0.274608 l 0.16174,1.104557 m -0.66254,1.835815 c 0.009,-0.02832 0.52807,-1.013782 0.52807,-1.013782 l 1.40464,0.0388 m -0.20665,0.560788 c 0.0234,0.0027 0.86558,0.274626 0.86558,0.274626 l 0.16173,1.104538 m -0.75049,0.560528 c 0.0234,0.0027 0.86558,0.274618 0.86558,0.274618 l 0.16173,1.104547 m -0.46713,-0.08505 c 0,0.01873 -0.0965,0.714949 -0.0965,0.714949 l -0.84228,0.277611 m 3.8258,17.943006 c 0.0405,0.04329 1.23328,1.917414 1.23328,1.917414 l -1.45674,2.394156 m -0.76673,-0.912656 c -0.0283,0.03755 -1.33189,1.227342 -1.33189,1.227342 l -2.07283,-0.812606 m -0.22829,-1.854196 c -0.0283,0.03755 -1.33189,1.227342 -1.33189,1.227342 l -2.07282,-0.812606 m 0.60936,-0.724843 c -0.0333,-0.01703 -1.14263,-0.874461 -1.14263,-0.874461 l 0.35247,-1.733283 m 1.97401,-2.3804 c -0.0283,0.03755 -1.33189,1.227343 -1.33189,1.227343 l -2.07282,-0.812607 m 0.60937,-0.724833 c -0.0333,-0.01703 -1.14264,-0.874461 -1.14264,-0.874461 l 0.35246,-1.733292 m 1.41983,-0.432212 c -0.0333,-0.01703 -1.14263,-0.874461 -1.14263,-0.874461 l 0.35246,-1.733292 m 0.65059,0.377769 c 0.009,-0.02832 0.52807,-1.013791 0.52807,-1.013791 l 1.40464,0.03881 m 4.82342,0.09119 c -0.0283,0.03755 -1.33189,1.227342 -1.33189,1.227342 l -2.07283,-0.812606 m 0.60937,-0.724834 c -0.0333,-0.01703 -1.14263,-0.874461 -1.14263,-0.874461 l 0.35247,-1.733283 m 1.41981,-0.43222 c -0.0332,-0.01703 -1.14262,-0.874461 -1.14262,-0.874461 l 0.35248,-1.733283 m 0.65055,0.377759 c 0.009,-0.02841 0.52808,-1.01379 0.52808,-1.01379 l 1.40464,0.03881 m 2.13281,1.219285 c -0.0333,-0.01703 -1.14263,-0.874461 -1.14263,-0.874461 l 0.35246,-1.733292 m 0.65058,0.377769 c 0.009,-0.02832 0.52807,-1.013791 0.52807,-1.013791 l 1.40464,0.0388 m 0.53242,1.052031 c 0.009,-0.02841 0.52807,-1.013791 0.52807,-1.013791 l 1.40464,0.0388 m -0.20667,0.560788 c 0.0234,0.0027 0.86558,0.274617 0.86558,0.274617 l 0.16174,1.104547 m 4.25582,5.751478 c -0.0283,0.03755 -1.33188,1.227351 -1.33188,1.227351 l -2.07283,-0.812615 m 0.60937,-0.724834 c -0.0332,-0.01703 -1.14263,-0.874452 -1.14263,-0.874452 l 0.35246,-1.733292 m 1.41983,-0.43222 c -0.0333,-0.01703 -1.14264,-0.874461 -1.14264,-0.874461 l 0.35247,-1.733283 m 0.65058,0.377759 c 0.009,-0.02841 0.52807,-1.013781 0.52807,-1.013781 l 1.40464,0.03881 m 2.13281,1.219276 c -0.0332,-0.01703 -1.14263,-0.87446 -1.14263,-0.87446 l 0.35246,-1.733284 m 0.65058,0.37776 c 0.009,-0.02832 0.52807,-1.013782 0.52807,-1.013782 l 1.40464,0.0388 m 0.53242,1.052031 c 0.009,-0.02841 0.52806,-1.013791 0.52806,-1.013791 l 1.40465,0.0388 m -0.20668,0.560788 c 0.0234,0.0027 0.86559,0.274617 0.86559,0.274617 l 0.16172,1.104547 m 0.58827,3.787176 c -0.0333,-0.01703 -1.14265,-0.874451 -1.14265,-0.874451 l 0.35248,-1.733292 m 0.65058,0.377768 c 0.009,-0.02841 0.52807,-1.01379 0.52807,-1.01379 l 1.40462,0.0388 m 0.53242,1.052022 c 0.009,-0.02841 0.52806,-1.013781 0.52806,-1.013781 l 1.40465,0.0388 m -0.20665,0.560797 c 0.0234,0.0027 0.86558,0.274617 0.86558,0.274617 l 0.16173,1.104547 m -0.66253,1.835825 c 0.009,-0.02841 0.52807,-1.013791 0.52807,-1.013791 l 1.40464,0.03881 m -0.20665,0.560788 c 0.0234,0.0027 0.86558,0.274617 0.86558,0.274617 l 0.16173,1.104547 m -0.7505,0.560519 c 0.0234,0.0027 0.86558,0.274626 0.86558,0.274626 l 0.16174,1.104548 m -0.46713,-0.08505 c 0,0.01873 -0.0965,0.714949 -0.0965,0.714949 l -0.84227,0.277611 m -2.81713,9.894403 c -0.0283,0.03755 -1.33186,1.227342 -1.33186,1.227342 l -2.07286,-0.812615 m 0.60937,-0.724834 c -0.0332,-0.01703 -1.14262,-0.874452 -1.14262,-0.874452 l 0.35247,-1.733292 m 1.41984,-0.432221 c -0.0333,-0.01703 -1.14263,-0.874451 -1.14263,-0.874451 l 0.35246,-1.733292 m 0.65058,0.377759 c 0.009,-0.02841 0.52807,-1.013781 0.52807,-1.013781 l 1.40464,0.0388 m 2.13281,1.219277 c -0.0332,-0.01703 -1.14265,-0.874452 -1.14265,-0.874452 l 0.35248,-1.733283 m 0.65057,0.37776 c 0.009,-0.02841 0.52808,-1.013791 0.52808,-1.013791 l 1.40463,0.0388 m 0.53241,1.052022 c 0.009,-0.02841 0.52807,-1.013782 0.52807,-1.013782 l 1.40464,0.03881 m -0.20666,0.560787 c 0.0234,0.0027 0.86559,0.274627 0.86559,0.274627 l 0.16172,1.104538 m 0.58825,3.787176 c -0.0333,-0.01703 -1.14263,-0.874461 -1.14263,-0.874461 l 0.35246,-1.733283 m 0.65058,0.37776 c 0.009,-0.02841 0.52808,-1.013791 0.52808,-1.013791 l 1.40464,0.03881 m 0.53241,1.052022 c 0.009,-0.02841 0.52807,-1.013782 0.52807,-1.013782 l 1.40465,0.0388 m -0.20668,0.560787 c 0.0234,0.0027 0.8656,0.274618 0.8656,0.274618 l 0.16171,1.104547 m -0.66251,1.835825 c 0.009,-0.02841 0.52807,-1.013782 0.52807,-1.013782 l 1.40464,0.03881 m -0.20667,0.560787 c 0.0234,0.0027 0.8656,0.274618 0.8656,0.274618 l 0.16171,1.104547 m -0.75048,0.560519 c 0.0234,0.0027 0.86559,0.274626 0.86559,0.274626 l 0.16171,1.104547 m -0.46713,-0.08505 c 0,0.01873 -0.0965,0.71494 -0.0965,0.71494 l -0.84227,0.277611 m -3.91899,4.117053 c -0.0332,-0.01703 -1.14265,-0.874452 -1.14265,-0.874452 l 0.35248,-1.733292 m 0.65056,0.37776 c 0.009,-0.02832 0.52807,-1.013782 0.52807,-1.013782 l 1.40464,0.0388 m 0.53241,1.052022 c 0.009,-0.02832 0.52807,-1.013782 0.52807,-1.013782 l 1.40465,0.0388 m -0.20665,0.560796 c 0.0234,0.0027 0.86557,0.274618 0.86557,0.274618 l 0.16172,1.104547 m -0.66251,1.835824 c 0.009,-0.02841 0.52807,-1.01379 0.52807,-1.01379 l 1.40464,0.0388 m -0.20665,0.560796 c 0.0234,0.0027 0.86558,0.274618 0.86558,0.274618 l 0.16171,1.104547 m -0.75048,0.560527 c 0.0234,0.0027 0.86558,0.274618 0.86558,0.274618 l 0.16173,1.104547 m -0.46712,-0.08505 c 0,0.01873 -0.0966,0.714949 -0.0966,0.714949 l -0.84227,0.277602 m -2.88333,0.978266 c 0.009,-0.02841 0.52807,-1.013782 0.52807,-1.013782 l 1.40464,0.03881 m -0.20665,0.560778 c 0.0234,0.0027 0.86558,0.274618 0.86558,0.274618 l 0.16171,1.104556 m -0.75047,0.560519 c 0.0235,0.0027 0.86558,0.274626 0.86558,0.274626 l 0.16173,1.104539 m -0.46712,-0.08505 c 0,0.01873 -0.0965,0.71494 -0.0965,0.71494 l -0.84229,0.277611 m -1.52727,-0.267413 c 0.0234,0.0027 0.86558,0.274618 0.86558,0.274618 l 0.16172,1.104547 m -0.46713,-0.08505 c 0,0.01873 -0.0965,0.71494 -0.0965,0.71494 l -0.84229,0.277611 m -0.54129,-0.510664 c 0,0.01873 -0.0965,0.714949 -0.0965,0.714949 l -0.84228,0.277611 m 0.003,-0.377195 c -0.0145,0.0036 -0.57272,0.02223 -0.57272,0.02223 l -0.33243,-0.621182 m 23.98852,78.297324 c -0.037,-0.0862 -0.80794,-3.5207 -0.80794,-3.5207 l 3.45785,-2.78586 m 0.65244,1.77237 c 0.0624,-0.0408 2.64474,-1.11375 2.64474,-1.11375 l 2.65303,2.32508 m -0.65608,2.88645 c 0.0625,-0.0408 2.64474,-1.11375 2.64474,-1.11375 l 2.65304,2.32508 m -1.29781,0.75297 c 0.0405,0.0433 1.23327,1.91741 1.23327,1.91741 l -1.45675,2.39416 m -4.22145,2.4874 c 0.0625,-0.0408 2.64475,-1.11375 2.64475,-1.11375 l 2.65302,2.32508 m -1.2978,0.75296 c 0.0405,0.0433 1.23327,1.91742 1.23327,1.91742 l -1.45675,2.39415 m -2.34858,-0.11869 c 0.0405,0.0433 1.23326,1.91742 1.23326,1.91742 l -1.45674,2.39415 m -0.76673,-0.91265 c -0.0283,0.0376 -1.33188,1.22734 -1.33188,1.22734 l -2.07283,-0.81261 m -7.14056,-2.72777 c 0.0624,-0.0408 2.64475,-1.11374 2.64475,-1.11374 l 2.653,2.32508 m -1.29778,0.75295 c 0.0404,0.0433 1.23327,1.91742 1.23327,1.91742 l -1.45675,2.39416 m -2.34859,-0.1187 c 0.0404,0.0433 1.23327,1.91742 1.23327,1.91742 l -1.45675,2.39417 m -0.76673,-0.91266 c -0.0283,0.0375 -1.33187,1.22734 -1.33187,1.22734 l -2.07285,-0.81261 m -2.52388,-2.96347 c 0.0405,0.0433 1.23327,1.91742 1.23327,1.91742 l -1.45673,2.39416 m -0.76674,-0.91265 c -0.0283,0.0376 -1.33189,1.22734 -1.33189,1.22734 l -2.07282,-0.81262 m -0.22829,-1.85419 c -0.0283,0.0376 -1.33188,1.22735 -1.33188,1.22735 l -2.07283,-0.81262 m 0.60937,-0.72484 c -0.0333,-0.017 -1.14264,-0.87444 -1.14264,-0.87444 l 0.35247,-1.73329 m -3.253,-10.85975 c 0.0625,-0.0408 2.64475,-1.11374 2.64475,-1.11374 l 2.65303,2.32508 m -1.2978,0.75295 c 0.0405,0.0433 1.23327,1.91742 1.23327,1.91742 l -1.45675,2.39416 m -2.3486,-0.11869 c 0.0404,0.0433 1.23327,1.91741 1.23327,1.91741 l -1.45675,2.39416 m -0.76671,-0.91266 c -0.0283,0.0375 -1.33189,1.22735 -1.33189,1.22735 l -2.07283,-0.81262 m -2.52388,-2.96346 c 0.0404,0.0433 1.23328,1.91742 1.23328,1.91742 l -1.45676,2.39416 m -0.76673,-0.91265 c -0.0283,0.0375 -1.33187,1.22734 -1.33187,1.22734 l -2.07284,-0.81262 m -0.2283,-1.85419 c -0.0283,0.0375 -1.33186,1.22734 -1.33186,1.22734 l -2.07285,-0.81261 m 0.60937,-0.72483 c -0.0333,-0.017 -1.14263,-0.87446 -1.14263,-0.87446 l 0.35246,-1.73328 m 1.15822,-5.96109 c 0.0404,0.0433 1.23326,1.91741 1.23326,1.91741 l -1.45675,2.39416 m -0.76674,-0.91266 c -0.0283,0.0376 -1.33186,1.22735 -1.33186,1.22735 l -2.07285,-0.81261 m -0.22828,-1.8542 c -0.0283,0.0376 -1.33186,1.22735 -1.33186,1.22735 l -2.07285,-0.81261 m 0.60937,-0.72484 c -0.0333,-0.017 -1.14263,-0.87446 -1.14263,-0.87446 l 0.35246,-1.73329 m 1.974,-2.3804 c -0.0283,0.0376 -1.33188,1.22735 -1.33188,1.22735 l -2.07282,-0.81261 m 0.60936,-0.72484 c -0.0332,-0.017 -1.14263,-0.87445 -1.14263,-0.87445 l 0.35246,-1.73329 m 1.41985,-0.43223 c -0.0333,-0.017 -1.14262,-0.87444 -1.14262,-0.87444 l 0.35246,-1.73329 m 0.65057,0.37776 c 0.009,-0.0284 0.52807,-1.01379 0.52807,-1.01379 l 1.40464,0.0388 m 9.5158,-13.23438 c 0.0624,-0.0407 2.64474,-1.11375 2.64474,-1.11375 l 2.65303,2.32508 m -1.2978,0.75297 c 0.0405,0.0433 1.23327,1.9174 1.23327,1.9174 l -1.45675,2.39417 m -2.34859,-0.11869 c 0.0405,0.0433 1.23326,1.91741 1.23326,1.91741 l -1.45675,2.39416 m -0.76671,-0.91266 c -0.0283,0.0375 -1.33188,1.22735 -1.33188,1.22735 l -2.07283,-0.81261 m -2.52388,-2.96347 c 0.0404,0.0433 1.23327,1.91742 1.23327,1.91742 l -1.45675,2.39416 m -0.76674,-0.91266 c -0.0283,0.0376 -1.33186,1.22734 -1.33186,1.22734 l -2.07285,-0.8126 m -0.2283,-1.8542 c -0.0283,0.0375 -1.33186,1.22734 -1.33186,1.22734 l -2.07285,-0.81261 m 0.60937,-0.72484 c -0.0333,-0.017 -1.14263,-0.87446 -1.14263,-0.87446 l 0.35247,-1.73328 m 1.15821,-5.96109 c 0.0404,0.0433 1.23327,1.91742 1.23327,1.91742 l -1.45675,2.39416 m -0.76673,-0.91265 c -0.0283,0.0375 -1.33187,1.22734 -1.33187,1.22734 l -2.07286,-0.81262 m -0.22828,-1.85418 c -0.0283,0.0376 -1.33186,1.22734 -1.33186,1.22734 l -2.07285,-0.81262 m 0.60937,-0.72483 c -0.0333,-0.017 -1.14263,-0.87446 -1.14263,-0.87446 l 0.35248,-1.73328 m 1.97398,-2.3804 c -0.0283,0.0376 -1.33187,1.22735 -1.33187,1.22735 l -2.07284,-0.81262 m 0.60938,-0.72484 c -0.0333,-0.017 -1.14264,-0.87445 -1.14264,-0.87445 l 0.35246,-1.73329 m 1.41985,-0.43222 c -0.0332,-0.017 -1.14263,-0.87446 -1.14263,-0.87446 l 0.35247,-1.73329 m 0.65057,0.37776 c 0.009,-0.0283 0.52807,-1.01378 0.52807,-1.01378 l 1.40465,0.0388 m 8.05374,-4.03084 c 0.0405,0.0433 1.23328,1.91743 1.23328,1.91743 l -1.45676,2.39415 m -0.76672,-0.91265 c -0.0283,0.0376 -1.33188,1.22734 -1.33188,1.22734 l -2.07282,-0.81262 m -0.2283,-1.85418 c -0.0283,0.0375 -1.33189,1.22734 -1.33189,1.22734 l -2.07282,-0.81262 m 0.60937,-0.72483 c -0.0332,-0.017 -1.14263,-0.87446 -1.14263,-0.87446 l 0.35247,-1.73328 m 1.97399,-2.3804 c -0.0283,0.0375 -1.33188,1.22734 -1.33188,1.22734 l -2.07282,-0.81261 m 0.60937,-0.72484 c -0.0333,-0.017 -1.14263,-0.87445 -1.14263,-0.87445 l 0.35246,-1.73328 m 1.41982,-0.43223 c -0.0333,-0.017 -1.14262,-0.87446 -1.14262,-0.87446 l 0.35246,-1.73328 m 0.65058,0.37775 c 0.009,-0.0284 0.52807,-1.01378 0.52807,-1.01378 l 1.40463,0.0388 m 4.82343,0.0912 c -0.0283,0.0376 -1.33188,1.22734 -1.33188,1.22734 l -2.07283,-0.8126 m 0.60937,-0.72485 c -0.0332,-0.017 -1.14264,-0.87445 -1.14264,-0.87445 l 0.35247,-1.73328 m 1.41982,-0.43223 c -0.0332,-0.017 -1.14262,-0.87446 -1.14262,-0.87446 l 0.35246,-1.73328 m 0.65057,0.37776 c 0.009,-0.0283 0.52807,-1.01379 0.52807,-1.01379 l 1.40465,0.0388 m 2.1328,1.21928 c -0.0333,-0.017 -1.14263,-0.87446 -1.14263,-0.87446 l 0.35247,-1.73328 m 0.65058,0.37775 c 0.009,-0.0284 0.52806,-1.01378 0.52806,-1.01378 l 1.40465,0.0388 m 0.53241,1.05204 c 0.009,-0.0284 0.52808,-1.0138 0.52808,-1.0138 l 1.40464,0.0388 m -0.20668,0.56079 c 0.0235,0.003 0.86558,0.27461 0.86558,0.27461 l 0.16174,1.10455 m 23.07759,-0.85597 c 0.0625,-0.0408 2.64474,-1.11375 2.64474,-1.11375 l 2.65304,2.32508 m -1.29781,0.75296 c 0.0405,0.0433 1.23328,1.91741 1.23328,1.91741 l -1.45676,2.39416 m -2.34859,-0.11869 c 0.0405,0.0433 1.23327,1.91742 1.23327,1.91742 l -1.45675,2.39416 m -0.76674,-0.91266 c -0.0283,0.0376 -1.33185,1.22734 -1.33185,1.22734 l -2.07286,-0.81261 m -2.52386,-2.96347 c 0.0404,0.0433 1.23327,1.91743 1.23327,1.91743 l -1.45675,2.39415 m -0.76674,-0.91265 c -0.0283,0.0376 -1.33188,1.22735 -1.33188,1.22735 l -2.07283,-0.81262 m -0.22829,-1.85419 c -0.0283,0.0375 -1.33188,1.22735 -1.33188,1.22735 l -2.07283,-0.81262 m 0.60937,-0.72484 c -0.0333,-0.017 -1.14263,-0.87445 -1.14263,-0.87445 l 0.35246,-1.73329 m 1.15822,-5.96108 c 0.0404,0.0433 1.23327,1.91741 1.23327,1.91741 l -1.45676,2.39416 m -0.76674,-0.91266 c -0.0283,0.0375 -1.33186,1.22735 -1.33186,1.22735 l -2.07285,-0.81261 m -0.22828,-1.8542 c -0.0283,0.0375 -1.33189,1.22734 -1.33189,1.22734 l -2.07283,-0.8126 m 0.60937,-0.72485 c -0.0333,-0.017 -1.14263,-0.87446 -1.14263,-0.87446 l 0.35247,-1.73328 m 1.974,-2.38039 c -0.0283,0.0375 -1.33188,1.22734 -1.33188,1.22734 l -2.07283,-0.81261 m 0.60937,-0.72484 c -0.0333,-0.017 -1.14263,-0.87446 -1.14263,-0.87446 l 0.35246,-1.733281 m 1.41984,-0.43222 c -0.0333,-0.01703 -1.14265,-0.874461 -1.14265,-0.874461 l 0.35249,-1.733292 m 0.65058,0.377768 c 0.009,-0.02832 0.52807,-1.01379 0.52807,-1.01379 l 1.40462,0.0388 m 8.05376,-4.030822 c 0.0405,0.04329 1.23328,1.917404 1.23328,1.917404 l -1.45676,2.394165 m -0.76671,-0.912656 c -0.0283,0.03755 -1.33188,1.227351 -1.33188,1.227351 l -2.07283,-0.812624 m -0.22831,-1.854187 c -0.0283,0.03755 -1.33187,1.227351 -1.33187,1.227351 l -2.07285,-0.812624 m 0.6094,-0.724834 c -0.0332,-0.01703 -1.14263,-0.874451 -1.14263,-0.874451 l 0.35246,-1.733293 m 1.97398,-2.380399 c -0.0283,0.03755 -1.33186,1.227351 -1.33186,1.227351 l -2.07286,-0.812615 m 0.6094,-0.724843 c -0.0333,-0.01703 -1.14265,-0.874452 -1.14265,-0.874452 l 0.35248,-1.733283 m 1.41983,-0.432229 c -0.0333,-0.01703 -1.14263,-0.874452 -1.14263,-0.874452 l 0.35246,-1.733283 m 0.65058,0.37775 c 0.009,-0.02841 0.52808,-1.013781 0.52808,-1.013781 l 1.40463,0.0388 m 4.8234,0.09119 c -0.0283,0.03755 -1.33187,1.227351 -1.33187,1.227351 l -2.07284,-0.812615 m 0.60939,-0.724833 c -0.0332,-0.01703 -1.14265,-0.874461 -1.14265,-0.874461 l 0.35248,-1.733283 m 1.41983,-0.43223 c -0.0332,-0.01703 -1.14263,-0.874452 -1.14263,-0.874452 l 0.35246,-1.733283 m 0.65057,0.377751 c 0.009,-0.02832 0.52808,-1.013782 0.52808,-1.013782 l 1.40464,0.0388 m 2.13281,1.219277 c -0.0333,-0.01694 -1.14263,-0.874443 -1.14263,-0.874443 l 0.35246,-1.733292 m 0.65058,0.377759 c 0.009,-0.02841 0.52807,-1.013781 0.52807,-1.013781 l 1.40464,0.0388 m 0.53242,1.052039 c 0.009,-0.02841 0.52807,-1.01379 0.52807,-1.01379 l 1.40461,0.0388 m -0.20664,0.560787 c 0.0234,0.0027 0.86557,0.274618 0.86557,0.274618 l 0.16174,1.104547 m 11.65826,5.637043 c 0.0404,0.04329 1.23327,1.917405 1.23327,1.917405 l -1.45675,2.394165 m -0.76672,-0.912656 c -0.0283,0.03755 -1.33188,1.227351 -1.33188,1.227351 l -2.07283,-0.812624 m -0.22829,-1.854187 c -0.0283,0.03755 -1.33189,1.227342 -1.33189,1.227342 l -2.07283,-0.812615 m 0.60937,-0.724834 c -0.0333,-0.01703 -1.14263,-0.874461 -1.14263,-0.874461 l 0.35246,-1.733283 m 1.97401,-2.3804 c -0.0283,0.03755 -1.33188,1.227343 -1.33188,1.227343 l -2.07283,-0.812616 m 0.60937,-0.724833 c -0.0332,-0.01703 -1.14263,-0.874452 -1.14263,-0.874452 l 0.35246,-1.733283 m 1.41983,-0.43223 c -0.0333,-0.01703 -1.14264,-0.874452 -1.14264,-0.874452 l 0.35247,-1.733283 m 0.65058,0.377751 c 0.009,-0.02832 0.52808,-1.013782 0.52808,-1.013782 l 1.40463,0.0388 m 4.82342,0.09119 c -0.0283,0.03755 -1.33188,1.227342 -1.33188,1.227342 l -2.07284,-0.812606 m 0.60937,-0.724843 c -0.0332,-0.01703 -1.14262,-0.874452 -1.14262,-0.874452 l 0.35246,-1.733283 m 1.41982,-0.432229 c -0.0333,-0.01703 -1.14262,-0.874461 -1.14262,-0.874461 l 0.35247,-1.733274 m 0.65056,0.37775 c 0.009,-0.02841 0.52808,-1.013781 0.52808,-1.013781 l 1.40464,0.03881 m 2.13281,1.219276 c -0.0333,-0.01703 -1.14264,-0.874452 -1.14264,-0.874452 l 0.35247,-1.733283 m 0.65058,0.37776 c 0.009,-0.02832 0.52806,-1.013791 0.52806,-1.013791 l 1.40465,0.03881 m 0.53241,1.052031 c 0.009,-0.02832 0.52808,-1.013782 0.52808,-1.013782 l 1.40464,0.0388 m -0.20668,0.560778 c 0.0234,0.0027 0.86559,0.274618 0.86559,0.274618 l 0.16173,1.104547 m 4.25583,5.751478 c -0.0283,0.03755 -1.33189,1.227342 -1.33189,1.227342 L 279.3622,71.30998 m 0.60938,-0.724834 c -0.0333,-0.01703 -1.14263,-0.874452 -1.14263,-0.874452 l 0.35246,-1.733292 m 1.41982,-0.43222 c -0.0333,-0.01703 -1.14263,-0.874461 -1.14263,-0.874461 l 0.35246,-1.733283 m 0.65058,0.377759 c 0.009,-0.02841 0.52808,-1.01379 0.52808,-1.01379 l 1.40463,0.0388 m 2.13281,1.219285 c -0.0333,-0.01703 -1.14262,-0.874452 -1.14262,-0.874452 l 0.35246,-1.733292 m 0.65057,0.37776 c 0.009,-0.02841 0.52808,-1.013791 0.52808,-1.013791 l 1.40463,0.03881 m 0.53242,1.052031 c 0.009,-0.02841 0.52807,-1.013782 0.52807,-1.013782 l 1.40462,0.0388 m -0.20665,0.560787 c 0.0234,0.0027 0.86558,0.274618 0.86558,0.274618 l 0.16173,1.104547 m 0.58827,3.787167 c -0.0333,-0.01703 -1.14265,-0.874451 -1.14265,-0.874451 l 0.35247,-1.733292 m 0.65059,0.377759 c 0.009,-0.02841 0.52807,-1.013781 0.52807,-1.013781 l 1.40462,0.0388 m 0.53242,1.052031 c 0.009,-0.02841 0.52806,-1.01379 0.52806,-1.01379 l 1.40465,0.0388 m -0.20665,0.560788 c 0.0234,0.0027 0.86558,0.274617 0.86558,0.274617 l 0.1617,1.104547 m -0.6625,1.835834 c 0.009,-0.02841 0.52807,-1.013791 0.52807,-1.013791 l 1.40464,0.0388 m -0.20666,0.560787 c 0.0234,0.0027 0.86559,0.274618 0.86559,0.274618 l 0.16171,1.104547 m -0.75048,0.560519 c 0.0234,0.0027 0.86558,0.274626 0.86558,0.274626 l 0.16173,1.104548 m -0.46712,-0.08505 c 0,0.01873 -0.0965,0.71494 -0.0965,0.71494 l -0.84228,0.277611 m 21.03073,24.881319 c 0.0624,-0.04078 2.64474,-1.113742 2.64474,-1.113742 l 2.65302,2.325078 m -1.29781,0.752956 c 0.0405,0.04329 1.23329,1.917407 1.23329,1.917407 l -1.45675,2.39417 m -2.34861,-0.1187 c 0.0405,0.0433 1.23327,1.91742 1.23327,1.91742 l -1.45673,2.39416 m -0.76674,-0.91266 c -0.0283,0.0375 -1.33188,1.22734 -1.33188,1.22734 l -2.07283,-0.8126 m -2.52389,-2.96346 c 0.0405,0.0433 1.23328,1.91741 1.23328,1.91741 l -1.45676,2.39416 m -0.76683,-0.91266 c -0.0283,0.0375 -1.33189,1.22734 -1.33189,1.22734 l -2.07285,-0.81261 m -0.22828,-1.8542 c -0.0283,0.0375 -1.33187,1.22735 -1.33187,1.22735 l -2.07284,-0.81262 m 0.60938,-0.72483 c -0.0332,-0.017 -1.14265,-0.87445 -1.14265,-0.87445 l 0.35249,-1.7333 m 1.15819,-5.96107 c 0.0405,0.04329 1.23328,1.917404 1.23328,1.917404 l -1.45676,2.394166 m -0.76672,-0.91267 c -0.0283,0.0375 -1.33188,1.22735 -1.33188,1.22735 l -2.07282,-0.81261 m -0.2283,-1.854187 c -0.0283,0.03755 -1.33188,1.227337 -1.33188,1.227337 l -2.07283,-0.81261 m 0.60937,-0.724834 c -0.0333,-0.01703 -1.14263,-0.874461 -1.14263,-0.874461 l 0.35246,-1.733283 m 1.97398,-2.3804 c -0.0283,0.03755 -1.33185,1.227343 -1.33185,1.227343 l -2.07285,-0.812606 m 0.60939,-0.724843 c -0.0333,-0.01703 -1.14265,-0.874452 -1.14265,-0.874452 l 0.35247,-1.733292 m 1.41983,-0.432221 c -0.0333,-0.01703 -1.14263,-0.874452 -1.14263,-0.874452 l 0.35247,-1.733292 m 0.65058,0.37776 c 0.009,-0.02841 0.52807,-1.013782 0.52807,-1.013782 l 1.40464,0.0388 m 8.05377,-4.030831 c 0.0404,0.04329 1.23327,1.917423 1.23327,1.917423 l -1.45676,2.394156 m -0.76674,-0.912656 c -0.0283,0.03755 -1.33188,1.227351 -1.33188,1.227351 l -2.07283,-0.812615 m -0.22829,-1.854196 c -0.0283,0.03755 -1.33187,1.227342 -1.33187,1.227342 l -2.07284,-0.812615 m 0.60937,-0.724834 c -0.0332,-0.01703 -1.14263,-0.874452 -1.14263,-0.874452 l 0.35247,-1.733283 m 1.974,-2.380409 c -0.0283,0.03755 -1.33188,1.227343 -1.33188,1.227343 l -2.07283,-0.812607 m 0.60937,-0.724842 c -0.0333,-0.01703 -1.14263,-0.874452 -1.14263,-0.874452 l 0.35246,-1.733283 m 1.41985,-0.43223 c -0.0333,-0.01703 -1.14265,-0.874452 -1.14265,-0.874452 l 0.35248,-1.733283 m 0.65056,0.37776 c 0.009,-0.02841 0.52809,-1.013791 0.52809,-1.013791 l 1.40462,0.0388 m 4.82342,0.09119 c -0.0283,0.03755 -1.33188,1.227342 -1.33188,1.227342 l -2.07283,-0.812615 m 0.60937,-0.724834 c -0.0332,-0.01703 -1.14264,-0.874461 -1.14264,-0.874461 l 0.35246,-1.733283 m 1.41986,-0.43222 c -0.0333,-0.01703 -1.14266,-0.874461 -1.14266,-0.874461 l 0.35249,-1.733283 m 0.65058,0.377759 c 0.009,-0.02841 0.52806,-1.013781 0.52806,-1.013781 l 1.40463,0.0388 m 2.1328,1.219276 c -0.0333,-0.01703 -1.14262,-0.874461 -1.14262,-0.874461 l 0.35246,-1.733283 m 0.65057,0.37776 c 0.009,-0.02841 0.52808,-1.013791 0.52808,-1.013791 l 1.40463,0.0388 m 0.53242,1.052031 c 0.009,-0.02841 0.52807,-1.013782 0.52807,-1.013782 l 1.40465,0.03881 m -0.20667,0.560779 c 0.0234,0.0027 0.8656,0.274617 0.8656,0.274617 l 0.1617,1.104556 m 11.65828,5.637035 c 0.0404,0.04329 1.23328,1.917413 1.23328,1.917413 l -1.45676,2.394165 m -0.76674,-0.912665 c -0.0283,0.03755 -1.33185,1.227352 -1.33185,1.227352 l -2.07286,-0.812616 m -0.22828,-1.854187 c -0.0283,0.03755 -1.33187,1.227333 -1.33187,1.227333 l -2.07284,-0.812606 m 0.60937,-0.724842 c -0.0333,-0.01703 -1.14264,-0.874452 -1.14264,-0.874452 l 0.35247,-1.733283 m 1.974,-2.3804 c -0.0283,0.03755 -1.33188,1.227333 -1.33188,1.227333 l -2.07283,-0.812606 m 0.60937,-0.724834 c -0.0333,-0.01703 -1.14263,-0.87446 -1.14263,-0.87446 l 0.35246,-1.733284 m 1.41984,-0.43222 c -0.0332,-0.01703 -1.14262,-0.874461 -1.14262,-0.874461 l 0.35247,-1.733283 m 0.65056,0.377759 c 0.009,-0.02841 0.52808,-1.01379 0.52808,-1.01379 l 1.40464,0.0388 m 4.8234,0.0912 c -0.0283,0.03755 -1.33186,1.227343 -1.33186,1.227343 l -2.07285,-0.812615 m 0.60937,-0.724834 c -0.0332,-0.01703 -1.14264,-0.874461 -1.14264,-0.874461 l 0.35247,-1.733283 m 1.41985,-0.432221 c -0.0333,-0.01703 -1.14263,-0.87446 -1.14263,-0.87446 l 0.35246,-1.733284 m 0.65058,0.37776 c 0.009,-0.02832 0.52807,-1.013782 0.52807,-1.013782 l 1.40464,0.0388 m 2.13278,1.219286 c -0.0333,-0.01694 -1.14262,-0.874461 -1.14262,-0.874461 l 0.35248,-1.733283 m 0.65055,0.37776 c 0.009,-0.02841 0.52808,-1.013782 0.52808,-1.013782 l 1.40464,0.0388 m 0.53242,1.052022 c 0.009,-0.02832 0.52807,-1.013782 0.52807,-1.013782 l 1.40464,0.0388 m -0.20665,0.560787 c 0.0234,0.0027 0.86558,0.274618 0.86558,0.274618 l 0.16171,1.104547 m 4.25583,5.751477 c -0.0283,0.03755 -1.33189,1.227352 -1.33189,1.227352 l -2.07282,-0.812615 m 0.60937,-0.724834 c -0.0333,-0.01703 -1.14264,-0.874461 -1.14264,-0.874461 l 0.35246,-1.733283 m 1.41985,-0.43223 c -0.0333,-0.01703 -1.14263,-0.874452 -1.14263,-0.874452 l 0.35247,-1.733283 m 0.65057,0.37776 c 0.009,-0.02841 0.52807,-1.013791 0.52807,-1.013791 l 1.40464,0.0388 m 2.13279,1.219286 c -0.0333,-0.01703 -1.14263,-0.874461 -1.14263,-0.874461 l 0.35246,-1.733283 m 0.65058,0.37776 c 0.009,-0.02832 0.52808,-1.013782 0.52808,-1.013782 l 1.40463,0.0388 m 0.53241,1.052031 c 0.009,-0.02832 0.52808,-1.013791 0.52808,-1.013791 l 1.40463,0.0388 m -0.20664,0.560787 c 0.0234,0.0027 0.86558,0.274618 0.86558,0.274618 l 0.16171,1.104547 m 0.58826,3.787167 c -0.0332,-0.01703 -1.14263,-0.874452 -1.14263,-0.874452 l 0.35247,-1.733283 m 0.65057,0.37776 c 0.009,-0.02841 0.52807,-1.013791 0.52807,-1.013791 l 1.40465,0.03881 m 0.53241,1.052022 c 0.009,-0.02841 0.52808,-1.013782 0.52808,-1.013782 l 1.40464,0.0388 m -0.20668,0.560787 c 0.0235,0.0027 0.86558,0.274618 0.86558,0.274618 l 0.16174,1.104547 m -0.66252,1.835825 c 0.009,-0.02832 0.52807,-1.013782 0.52807,-1.013782 l 1.40464,0.03881 m -0.20667,0.560796 c 0.0234,0.0027 0.86558,0.274609 0.86558,0.274609 l 0.16173,1.104556 m -0.75047,0.560518 c 0.0234,0.0027 0.86558,0.274627 0.86558,0.274627 l 0.16171,1.104547 m -0.46713,-0.08505 c 0,0.01873 -0.0965,0.714949 -0.0965,0.714949 l -0.84229,0.277611 m 3.8258,17.943007 c 0.0404,0.04329 1.23327,1.917404 1.23327,1.917404 l -1.45675,2.394165 m -0.76673,-0.912656 c -0.0283,0.03755 -1.33187,1.227342 -1.33187,1.227342 l -2.07285,-0.812606 m -0.22829,-1.854196 c -0.0283,0.03755 -1.33186,1.227342 -1.33186,1.227342 l -2.07285,-0.812615 m 0.60937,-0.724834 c -0.0333,-0.01703 -1.14263,-0.87446 -1.14263,-0.87446 l 0.35246,-1.733283 m 1.97401,-2.3804 c -0.0283,0.03755 -1.33188,1.227351 -1.33188,1.227351 l -2.07284,-0.812615 M 340.4585,78.4168 c -0.0333,-0.01703 -1.14263,-0.874461 -1.14263,-0.874461 l 0.35247,-1.733292 m 1.41985,-0.432211 c -0.0333,-0.01703 -1.14263,-0.874461 -1.14263,-0.874461 l 0.35246,-1.733292 m 0.65058,0.377759 c 0.009,-0.02841 0.52807,-1.013781 0.52807,-1.013781 l 1.40464,0.0388 m 4.8234,0.09119 c -0.0283,0.03755 -1.33189,1.227343 -1.33189,1.227343 l -2.07283,-0.812606 m 0.60938,-0.724843 c -0.0333,-0.01703 -1.14263,-0.874452 -1.14263,-0.874452 l 0.35246,-1.733283 m 1.41984,-0.43223 c -0.0333,-0.01703 -1.14263,-0.874452 -1.14263,-0.874452 l 0.35246,-1.733292 m 0.65058,0.377769 c 0.009,-0.02841 0.52808,-1.0138 0.52808,-1.0138 l 1.40463,0.03881 m 2.13279,1.219286 c -0.0332,-0.01703 -1.14262,-0.874461 -1.14262,-0.874461 l 0.35245,-1.733292 m 0.65059,0.377769 c 0.009,-0.02832 0.52806,-1.013782 0.52806,-1.013782 l 1.40465,0.0388 m 0.53241,1.05203 c 0.009,-0.02841 0.52807,-1.01379 0.52807,-1.01379 l 1.40464,0.03881 m -0.20664,0.560787 c 0.0234,0.0027 0.86557,0.274627 0.86557,0.274627 l 0.16172,1.104538 m 4.25582,5.751486 c -0.0283,0.03755 -1.33188,1.227343 -1.33188,1.227343 l -2.07284,-0.812607 m 0.60938,-0.724842 c -0.0333,-0.01703 -1.14263,-0.874461 -1.14263,-0.874461 l 0.35246,-1.733283 m 1.41985,-0.432221 c -0.0333,-0.01703 -1.14263,-0.874461 -1.14263,-0.874461 l 0.35246,-1.733283 m 0.65058,0.37776 c 0.009,-0.02841 0.52807,-1.013791 0.52807,-1.013791 l 1.40465,0.03881 m 2.13277,1.219277 c -0.0333,-0.01703 -1.14262,-0.874452 -1.14262,-0.874452 l 0.35247,-1.733292 m 0.65056,0.37776 c 0.009,-0.02832 0.52808,-1.013782 0.52808,-1.013782 l 1.40464,0.0388 m 0.53242,1.05203 c 0.009,-0.02841 0.52807,-1.01379 0.52807,-1.01379 l 1.40465,0.0388 m -0.20666,0.560778 c 0.0234,0.0027 0.86559,0.274627 0.86559,0.274627 l 0.1617,1.104547 m 0.58826,3.787176 c -0.0333,-0.01703 -1.14263,-0.874452 -1.14263,-0.874452 l 0.35246,-1.733292 m 0.65058,0.37776 c 0.009,-0.02841 0.52808,-1.013782 0.52808,-1.013782 l 1.40463,0.03881 m 0.53241,1.052031 c 0.009,-0.02841 0.52808,-1.013791 0.52808,-1.013791 l 1.40463,0.03881 m -0.20666,0.560787 c 0.0235,0.0027 0.86559,0.274618 0.86559,0.274618 l 0.16172,1.104547 m -0.66251,1.835833 c 0.009,-0.02841 0.52806,-1.01379 0.52806,-1.01379 l 1.40464,0.0388 m -0.20665,0.560787 c 0.0234,0.0027 0.86558,0.274618 0.86558,0.274618 l 0.16172,1.104547 m -0.75048,0.560527 c 0.0234,0.0027 0.86557,0.274618 0.86557,0.274618 l 0.16173,1.104547 m -0.46712,-0.08505 c 6.4e-4,0.01873 -0.0965,0.71494 -0.0965,0.71494 l -0.84228,0.277611 m -2.81713,9.894412 c -0.0283,0.03755 -1.33187,1.227351 -1.33187,1.227351 l -2.07284,-0.812624 m 0.60937,-0.724834 c -0.0333,-0.01703 -1.14262,-0.874451 -1.14262,-0.874451 l 0.35246,-1.733292 m 1.41984,-0.432221 c -0.0333,-0.01703 -1.14265,-0.874452 -1.14265,-0.874452 l 0.35247,-1.733292 m 0.65058,0.377769 c 0.009,-0.02841 0.52808,-1.013791 0.52808,-1.013791 l 1.40463,0.0388 m 2.1328,1.219285 c -0.0333,-0.01703 -1.14263,-0.874451 -1.14263,-0.874451 l 0.35247,-1.733292 m 0.65057,0.377759 c 0.009,-0.02841 0.52808,-1.01379 0.52808,-1.01379 l 1.40463,0.0388 m 0.53243,1.052031 c 0.009,-0.02841 0.52806,-1.01379 0.52806,-1.01379 l 1.40464,0.0388 m -0.20666,0.560788 c 0.0234,0.0027 0.86558,0.274617 0.86558,0.274617 l 0.16173,1.104557 m 0.58825,3.787167 c -0.0333,-0.01703 -1.14264,-0.874452 -1.14264,-0.874452 l 0.35247,-1.733292 m 0.65058,0.377768 c 0.009,-0.02841 0.52808,-1.01379 0.52808,-1.01379 l 1.40463,0.0388 m 0.53242,1.052021 c 0.009,-0.02832 0.52806,-1.013781 0.52806,-1.013781 l 1.40465,0.0388 m -0.20666,0.560787 c 0.0234,0.0027 0.86558,0.274627 0.86558,0.274627 l 0.16172,1.104538 m -0.66251,1.835833 c 0.009,-0.02841 0.52807,-1.01379 0.52807,-1.01379 l 1.40463,0.0388 m -0.20665,0.560788 c 0.0234,0.0027 0.86558,0.274626 0.86558,0.274626 l 0.16172,1.104539 m -0.75048,0.560536 c 0.0234,0.0027 0.86558,0.274609 0.86558,0.274609 l 0.16173,1.104556 m -0.46713,-0.08505 c 6.4e-4,0.01873 -0.0965,0.714949 -0.0965,0.714949 l -0.84228,0.27762 m -3.91899,4.117034 c -0.0333,-0.01703 -1.14263,-0.874451 -1.14263,-0.874451 l 0.35246,-1.733284 m 0.65058,0.37776 c 0.009,-0.02832 0.52807,-1.013781 0.52807,-1.013781 l 1.40463,0.0388 m 0.53242,1.052031 c 0.009,-0.02832 0.52807,-1.013791 0.52807,-1.013791 l 1.40464,0.0388 m -0.20667,0.560788 c 0.0235,0.0027 0.8656,0.274617 0.8656,0.274617 l 0.16172,1.104547 m -0.66251,1.835825 c 0.009,-0.02841 0.52806,-1.013791 0.52806,-1.013791 l 1.40464,0.0388 m -0.20666,0.560787 c 0.0234,0.0027 0.86558,0.274618 0.86558,0.274618 l 0.16173,1.104547 m -0.75049,0.560528 c 0.0234,0.0027 0.86559,0.274617 0.86559,0.274617 l 0.16172,1.104548 m -0.46712,-0.08505 c 6.4e-4,0.01873 -0.0965,0.714949 -0.0965,0.714949 l -0.84228,0.277611 m -2.88332,0.978256 c 0.009,-0.02841 0.52807,-1.013781 0.52807,-1.013781 l 1.40463,0.0388 m -0.20665,0.560787 c 0.0234,0.0027 0.86558,0.274618 0.86558,0.274618 l 0.16173,1.104547 m -0.7505,0.560527 c 0.0234,0.0027 0.86559,0.274618 0.86559,0.274618 l 0.16173,1.104547 m -0.46713,-0.08505 c 6.6e-4,0.01873 -0.0965,0.71494 -0.0965,0.71494 l -0.84227,0.277611 m -1.52729,-0.267412 c 0.0235,0.0027 0.86558,0.274617 0.86558,0.274617 l 0.16172,1.104547 m -0.46711,-0.08505 c 6.4e-4,0.01873 -0.0966,0.714939 -0.0966,0.714939 l -0.84228,0.277622 M 381.334,99.708275 c 6.5e-4,0.01873 -0.0965,0.714945 -0.0965,0.714945 l -0.84228,0.27762 m 0.003,-0.3772 c -0.0145,0.004 -0.57271,0.0222 -0.57271,0.0222 l -0.33243,-0.621186 m -9.17278,45.070266 c 0.0624,-0.0408 2.64475,-1.11375 2.64475,-1.11375 l 2.65302,2.32508 m -1.29779,0.75296 c 0.0404,0.0433 1.23327,1.91741 1.23327,1.91741 l -1.45674,2.39416 m -2.34861,-0.11869 c 0.0404,0.0433 1.23328,1.91742 1.23328,1.91742 l -1.45675,2.39416 m -0.76673,-0.91266 c -0.0283,0.0376 -1.33187,1.22734 -1.33187,1.22734 l -2.07284,-0.81261 m -2.52388,-2.96346 c 0.0405,0.0433 1.23327,1.91741 1.23327,1.91741 l -1.45675,2.39416 m -0.76674,-0.91266 c -0.0283,0.0376 -1.33187,1.22736 -1.33187,1.22736 l -2.07284,-0.81262 m -0.2283,-1.8542 c -0.0283,0.0376 -1.33186,1.22736 -1.33186,1.22736 l -2.07285,-0.81263 m 0.6094,-0.72483 c -0.0333,-0.017 -1.14265,-0.87445 -1.14265,-0.87445 l 0.35247,-1.7333 m 1.1582,-5.96107 c 0.0405,0.0433 1.23327,1.91741 1.23327,1.91741 l -1.45675,2.39416 m -0.76672,-0.91266 c -0.0283,0.0375 -1.33188,1.22735 -1.33188,1.22735 l -2.07283,-0.81261 m -0.22828,-1.8542 c -0.0283,0.0375 -1.3319,1.22734 -1.3319,1.22734 l -2.07284,-0.8126 m 0.60939,-0.72485 c -0.0333,-0.017 -1.14263,-0.87446 -1.14263,-0.87446 l 0.35247,-1.73327 m 1.97398,-2.3804 c -0.0283,0.0376 -1.33187,1.22734 -1.33187,1.22734 l -2.07284,-0.81261 m 0.60939,-0.72484 c -0.0333,-0.017 -1.14265,-0.87446 -1.14265,-0.87446 l 0.35248,-1.73328 m 1.41982,-0.43222 c -0.0333,-0.017 -1.14262,-0.87446 -1.14262,-0.87446 l 0.35246,-1.73329 m 0.65057,0.37776 c 0.009,-0.0283 0.52807,-1.01379 0.52807,-1.01379 l 1.40464,0.0388 m 8.05378,-4.03082 c 0.0404,0.0433 1.23327,1.9174 1.23327,1.9174 l -1.45675,2.39417 m -0.76674,-0.91266 c -0.0283,0.0376 -1.33189,1.22734 -1.33189,1.22734 l -2.07282,-0.81261 m -0.2283,-1.8542 c -0.0283,0.0376 -1.33188,1.22735 -1.33188,1.22735 l -2.07283,-0.81261 m 0.60937,-0.72484 c -0.0333,-0.017 -1.14263,-0.87445 -1.14263,-0.87445 l 0.35246,-1.73329 m 1.97401,-2.3804 c -0.0283,0.0375 -1.33189,1.22735 -1.33189,1.22735 l -2.07282,-0.81262 m 0.60937,-0.72484 c -0.0332,-0.017 -1.14263,-0.87445 -1.14263,-0.87445 l 0.35246,-1.73329 m 1.41985,-0.43222 c -0.0333,-0.017 -1.14266,-0.87445 -1.14266,-0.87445 l 0.35249,-1.7333 m 0.65056,0.37776 c 0.009,-0.0283 0.52807,-1.01378 0.52807,-1.01378 l 1.40464,0.0388 m 4.82342,0.0912 c -0.0283,0.0376 -1.33189,1.22734 -1.33189,1.22734 l -2.07283,-0.8126 m 0.60937,-0.72484 c -0.0332,-0.017 -1.14262,-0.87446 -1.14262,-0.87446 l 0.35246,-1.73329 m 1.41984,-0.43222 c -0.0333,-0.017 -1.14265,-0.87445 -1.14265,-0.87445 l 0.35249,-1.73329 m 0.65057,0.37777 c 0.009,-0.0284 0.52808,-1.01379 0.52808,-1.01379 l 1.40461,0.0388 m 2.13282,1.21929 c -0.0333,-0.017 -1.14264,-0.87446 -1.14264,-0.87446 l 0.35247,-1.73329 m 0.65058,0.37776 c 0.009,-0.0283 0.52807,-1.01379 0.52807,-1.01379 l 1.40464,0.0388 m 0.53241,1.05203 c 0.009,-0.0283 0.52808,-1.01379 0.52808,-1.01379 l 1.40464,0.0388 m -0.20668,0.56079 c 0.0234,0.003 0.86561,0.27461 0.86561,0.27461 l 0.16171,1.10455 m 11.65826,5.63704 c 0.0404,0.0433 1.23328,1.91741 1.23328,1.91741 l -1.45675,2.39416 m -0.76673,-0.91266 c -0.0283,0.0375 -1.33188,1.22735 -1.33188,1.22735 l -2.07283,-0.81261 m -0.22829,-1.8542 c -0.0283,0.0375 -1.33187,1.22734 -1.33187,1.22734 l -2.07285,-0.8126 m 0.60938,-0.72484 c -0.0333,-0.017 -1.14264,-0.87446 -1.14264,-0.87446 l 0.35247,-1.73328 m 1.974,-2.3804 c -0.0283,0.0375 -1.33188,1.22734 -1.33188,1.22734 l -2.07283,-0.81261 m 0.60938,-0.72484 c -0.0333,-0.017 -1.14264,-0.87445 -1.14264,-0.87445 l 0.35246,-1.73329 m 1.41985,-0.43222 c -0.0333,-0.017 -1.14264,-0.87446 -1.14264,-0.87446 l 0.35247,-1.73329 m 0.65057,0.37776 c 0.009,-0.0284 0.52807,-1.01379 0.52807,-1.01379 l 1.40464,0.0388 m 4.82341,0.0912 c -0.0283,0.0375 -1.33187,1.22736 -1.33187,1.22736 l -2.07285,-0.81262 m 0.60938,-0.72483 c -0.0333,-0.017 -1.14263,-0.87446 -1.14263,-0.87446 l 0.35246,-1.73329 m 1.41984,-0.43222 c -0.0333,-0.017 -1.14263,-0.87446 -1.14263,-0.87446 l 0.35247,-1.73328 m 0.65057,0.37776 c 0.009,-0.0284 0.52808,-1.01378 0.52808,-1.01378 l 1.40463,0.0388 m 2.1328,1.21929 c -0.0332,-0.017 -1.14263,-0.87446 -1.14263,-0.87446 l 0.35246,-1.73329 m 0.65058,0.37776 c 0.009,-0.0284 0.52807,-1.01379 0.52807,-1.01379 l 1.40464,0.0388 m 0.53242,1.05203 c 0.009,-0.0284 0.52807,-1.01379 0.52807,-1.01379 l 1.40464,0.0388 m -0.20666,0.5608 c 0.0234,0.003 0.86558,0.27462 0.86558,0.27462 l 0.16173,1.10453 m 4.25581,5.75149 c -0.0283,0.0376 -1.33187,1.22734 -1.33187,1.22734 l -2.07284,-0.8126 m 0.60938,-0.72484 c -0.0333,-0.017 -1.14263,-0.87446 -1.14263,-0.87446 l 0.35246,-1.73328 m 1.41984,-0.43222 c -0.0332,-0.017 -1.14264,-0.87446 -1.14264,-0.87446 l 0.35247,-1.73329 m 0.65058,0.37776 c 0.009,-0.0283 0.52807,-1.01379 0.52807,-1.01379 l 1.40464,0.0388 m 2.1328,1.21928 c -0.0333,-0.017 -1.14263,-0.87446 -1.14263,-0.87446 l 0.35247,-1.73328 m 0.65057,0.37775 c 0.009,-0.0284 0.52807,-1.01378 0.52807,-1.01378 l 1.40463,0.0388 m 0.53243,1.05203 c 0.009,-0.0284 0.52806,-1.01378 0.52806,-1.01378 l 1.40464,0.0388 m -0.20666,0.56079 c 0.0235,0.003 0.86559,0.27461 0.86559,0.27461 l 0.16172,1.10455 m 0.58825,3.78718 c -0.0333,-0.017 -1.14264,-0.87447 -1.14264,-0.87447 l 0.35247,-1.73328 m 0.65058,0.37776 c 0.009,-0.0283 0.52808,-1.01379 0.52808,-1.01379 l 1.40463,0.0388 m 0.53242,1.05203 c 0.009,-0.0284 0.52807,-1.01379 0.52807,-1.01379 l 1.40464,0.0388 m -0.20666,0.56079 c 0.0234,0.003 0.86557,0.27461 0.86557,0.27461 l 0.16174,1.10456 m -0.66252,1.83582 c 0.009,-0.0283 0.52806,-1.01379 0.52806,-1.01379 l 1.40465,0.0388 m -0.20667,0.56079 c 0.0235,0.003 0.86559,0.27462 0.86559,0.27462 l 0.16172,1.10454 m -0.75049,0.56053 c 0.0234,0.003 0.86559,0.27462 0.86559,0.27462 l 0.16172,1.10454 m -0.46712,-0.085 c 6.5e-4,0.0187 -0.0965,0.71494 -0.0965,0.71494 l -0.84228,0.27762 m 3.82581,17.943 c 0.0404,0.0433 1.23327,1.91742 1.23327,1.91742 l -1.45675,2.39415 m -0.76674,-0.91265 c -0.0283,0.0376 -1.33186,1.22734 -1.33186,1.22734 l -2.07285,-0.81261 m -0.22828,-1.85419 c -0.0283,0.0375 -1.33189,1.22734 -1.33189,1.22734 l -2.07283,-0.81261 m 0.60937,-0.72484 c -0.0332,-0.017 -1.14262,-0.87446 -1.14262,-0.87446 l 0.35246,-1.73328 m 1.974,-2.3804 c -0.0283,0.0376 -1.33188,1.22734 -1.33188,1.22734 l -2.07284,-0.81261 m 0.60937,-0.72483 c -0.0332,-0.017 -1.14263,-0.87446 -1.14263,-0.87446 l 0.35247,-1.73329 m 1.41984,-0.43222 c -0.0333,-0.017 -1.14263,-0.87446 -1.14263,-0.87446 l 0.35246,-1.73328 m 0.65058,0.37776 c 0.009,-0.0283 0.52807,-1.01379 0.52807,-1.01379 l 1.40463,0.0388 m 4.82341,0.0912 c -0.0283,0.0375 -1.33186,1.22735 -1.33186,1.22735 l -2.07284,-0.81261 m 0.60937,-0.72484 c -0.0333,-0.017 -1.14263,-0.87446 -1.14263,-0.87446 l 0.35247,-1.73328 m 1.41983,-0.43222 c -0.0333,-0.017 -1.14263,-0.87446 -1.14263,-0.87446 l 0.35247,-1.73329 m 0.65057,0.37776 c 0.009,-0.0284 0.52807,-1.01379 0.52807,-1.01379 l 1.40464,0.0388 m 2.1328,1.21928 c -0.0333,-0.017 -1.14264,-0.87446 -1.14264,-0.87446 l 0.35247,-1.73328 m 0.65058,0.37776 c 0.009,-0.0283 0.52808,-1.01379 0.52808,-1.01379 l 1.40463,0.0388 m 0.53241,1.05203 c 0.009,-0.0284 0.52808,-1.01379 0.52808,-1.01379 l 1.40463,0.0388 m -0.20665,0.56079 c 0.0234,0.003 0.86558,0.27461 0.86558,0.27461 l 0.16172,1.10455 m 4.25582,5.75148 c -0.0283,0.0375 -1.33188,1.22735 -1.33188,1.22735 l -2.07282,-0.81262 m 0.60936,-0.72483 c -0.0332,-0.017 -1.14262,-0.87445 -1.14262,-0.87445 l 0.35245,-1.73329 m 1.41985,-0.43222 c -0.0333,-0.017 -1.14265,-0.87446 -1.14265,-0.87446 l 0.35249,-1.73329 m 0.65057,0.37776 c 0.009,-0.0284 0.52808,-1.01378 0.52808,-1.01378 l 1.40461,0.0388 m 2.13281,1.21928 c -0.0333,-0.017 -1.14263,-0.87445 -1.14263,-0.87445 l 0.35246,-1.73328 m 0.65059,0.37776 c 0.009,-0.0284 0.52806,-1.01379 0.52806,-1.01379 l 1.40465,0.0388 m 0.53241,1.05203 c 0.009,-0.0284 0.52807,-1.01379 0.52807,-1.01379 l 1.40464,0.0388 m -0.20667,0.56079 c 0.0234,0.003 0.8656,0.27462 0.8656,0.27462 l 0.16172,1.10454 m 0.58825,3.78718 c -0.0333,-0.017 -1.14262,-0.87445 -1.14262,-0.87445 l 0.35246,-1.73329 m 0.65057,0.37776 c 0.009,-0.0284 0.52807,-1.01378 0.52807,-1.01378 l 1.40465,0.0388 m 0.53242,1.05202 c 0.009,-0.0284 0.52807,-1.01379 0.52807,-1.01379 l 1.40464,0.0388 m -0.20668,0.56078 c 0.0234,0.003 0.86559,0.27463 0.86559,0.27463 l 0.16173,1.10455 m -0.66252,1.83582 c 0.009,-0.0284 0.52807,-1.01378 0.52807,-1.01378 l 1.40464,0.0388 m -0.20667,0.56078 c 0.0234,0.003 0.86558,0.27462 0.86558,0.27462 l 0.16174,1.10455 m -0.75049,0.56053 c 0.0234,0.003 0.86559,0.27461 0.86559,0.27461 l 0.16172,1.10455 m -0.46714,-0.085 c 0,0.0187 -0.0965,0.71494 -0.0965,0.71494 l -0.84228,0.27761 m -2.81712,9.89441 c -0.0283,0.0376 -1.33189,1.22735 -1.33189,1.22735 l -2.07284,-0.81262 m 0.60938,-0.72483 c -0.0332,-0.017 -1.14265,-0.87445 -1.14265,-0.87445 l 0.35249,-1.7333 m 1.41982,-0.43222 c -0.0332,-0.017 -1.14263,-0.87445 -1.14263,-0.87445 l 0.35247,-1.73329 m 0.65057,0.37777 c 0.009,-0.0284 0.52807,-1.01379 0.52807,-1.01379 l 1.40464,0.0388 m 2.13282,1.21929 c -0.0333,-0.017 -1.14264,-0.87446 -1.14264,-0.87446 l 0.35246,-1.73329 m 0.65059,0.37776 c 0.009,-0.0284 0.52806,-1.01379 0.52806,-1.01379 l 1.40465,0.0388 m 0.53241,1.05202 c 0.009,-0.0284 0.52807,-1.01378 0.52807,-1.01378 l 1.40464,0.0388 m -0.20667,0.56079 c 0.0234,0.003 0.86558,0.27462 0.86558,0.27462 l 0.16174,1.10455 m 0.58825,3.78716 c -0.0333,-0.017 -1.14265,-0.87445 -1.14265,-0.87445 l 0.35249,-1.73328 m 0.65057,0.37775 c 0.009,-0.0283 0.52807,-1.01378 0.52807,-1.01378 l 1.40463,0.0388 m 0.53241,1.05203 c 0.009,-0.0284 0.52808,-1.01379 0.52808,-1.01379 l 1.40464,0.0388 m -0.20666,0.56078 c 0.0234,0.003 0.86559,0.27462 0.86559,0.27462 l 0.16171,1.10455 m -0.66252,1.83582 c 0.009,-0.0284 0.52807,-1.01378 0.52807,-1.01378 l 1.40464,0.0388 m -0.20665,0.56078 c 0.0234,0.003 0.86558,0.27462 0.86558,0.27462 l 0.16172,1.10455 m -0.75048,0.56053 c 0.0234,0.003 0.86558,0.27461 0.86558,0.27461 l 0.16173,1.10455 m -0.46712,-0.0851 c 0,0.0187 -0.0965,0.71495 -0.0965,0.71495 l -0.84228,0.2776 m -3.919,4.11707 c -0.0333,-0.017 -1.14262,-0.87447 -1.14262,-0.87447 l 0.35246,-1.73328 m 0.65057,0.37776 c 0.009,-0.0284 0.52808,-1.01379 0.52808,-1.01379 l 1.40464,0.0388 m 0.53242,1.05203 c 0.009,-0.0283 0.52807,-1.01379 0.52807,-1.01379 l 1.40462,0.0388 m -0.20666,0.56079 c 0.0235,0.003 0.86559,0.27462 0.86559,0.27462 l 0.16173,1.10455 m -0.66252,1.83584 c 0.009,-0.0284 0.52807,-1.0138 0.52807,-1.0138 l 1.40462,0.0388 m -0.20665,0.56079 c 0.0234,0.003 0.86558,0.27461 0.86558,0.27461 l 0.16174,1.10455 m -0.75051,0.56053 c 0.0235,0.003 0.86561,0.27462 0.86561,0.27462 l 0.16172,1.10454 m -0.46713,-0.085 c 0,0.0187 -0.0966,0.71494 -0.0966,0.71494 l -0.84227,0.27762 m -2.88331,0.97825 c 0.009,-0.0284 0.52807,-1.01378 0.52807,-1.01378 l 1.40464,0.0388 m -0.20667,0.56078 c 0.0234,0.003 0.86558,0.27462 0.86558,0.27462 l 0.16174,1.10455 m -0.75051,0.56052 c 0.0235,0.003 0.86561,0.27462 0.86561,0.27462 l 0.1617,1.10455 m -0.46711,-0.085 c 0,0.0187 -0.0966,0.71494 -0.0966,0.71494 l -0.84227,0.27761 m -1.52728,-0.26742 c 0.0234,0.003 0.86559,0.27463 0.86559,0.27463 l 0.16173,1.10454 m -0.46713,-0.085 c 0,0.0187 -0.0965,0.71494 -0.0965,0.71494 l -0.84227,0.27761 m -0.54129,-0.51065 c 0,0.0187 -0.0965,0.71494 -0.0965,0.71494 l -0.84228,0.27761 m 0.003,-0.37719 c -0.0145,0.004 -0.57272,0.0222 -0.57272,0.0222 l -0.33243,-0.62119 m -16.59568,19.86081 c 0.0404,0.0433 1.23328,1.9174 1.23328,1.9174 l -1.45676,2.39417 m -0.76674,-0.91266 c -0.0283,0.0376 -1.33186,1.22735 -1.33186,1.22735 l -2.07285,-0.81262 m -0.2283,-1.85419 c -0.0283,0.0376 -1.33186,1.22735 -1.33186,1.22735 l -2.07285,-0.81262 m 0.60937,-0.72483 c -0.0333,-0.017 -1.14262,-0.87446 -1.14262,-0.87446 l 0.35246,-1.73329 m 1.97401,-2.3804 c -0.0283,0.0376 -1.33189,1.22735 -1.33189,1.22735 l -2.07283,-0.81262 m 0.60937,-0.72483 c -0.0333,-0.017 -1.14262,-0.87446 -1.14262,-0.87446 l 0.35246,-1.73328 m 1.41984,-0.43223 c -0.0333,-0.017 -1.14263,-0.87445 -1.14263,-0.87445 l 0.35246,-1.73329 m 0.65059,0.37776 c 0.009,-0.0284 0.52807,-1.01378 0.52807,-1.01378 l 1.40461,0.0388 m 4.82342,0.0912 c -0.0283,0.0376 -1.33188,1.22735 -1.33188,1.22735 l -2.07282,-0.81262 m 0.60937,-0.72484 c -0.0333,-0.017 -1.14264,-0.87445 -1.14264,-0.87445 l 0.35246,-1.73328 m 1.41985,-0.43223 c -0.0332,-0.017 -1.14263,-0.87446 -1.14263,-0.87446 l 0.35247,-1.73329 m 0.65056,0.37776 c 0.009,-0.0284 0.52808,-1.01378 0.52808,-1.01378 l 1.40464,0.0388 m 2.13279,1.21929 c -0.0333,-0.017 -1.14263,-0.87445 -1.14263,-0.87445 l 0.35246,-1.73328 m 0.65058,0.37775 c 0.009,-0.0284 0.52807,-1.01379 0.52807,-1.01379 l 1.40464,0.0388 m 0.53241,1.05203 c 0.009,-0.0283 0.52808,-1.01378 0.52808,-1.01378 l 1.40464,0.0388 m -0.20665,0.56079 c 0.0234,0.003 0.86558,0.27462 0.86558,0.27462 l 0.16171,1.10455 m 4.25583,5.75147 c -0.0283,0.0375 -1.33187,1.22735 -1.33187,1.22735 l -2.07285,-0.81261 m 0.60937,-0.72484 c -0.0332,-0.017 -1.14262,-0.87446 -1.14262,-0.87446 l 0.35247,-1.73329 m 1.41984,-0.43222 c -0.0333,-0.017 -1.14264,-0.87445 -1.14264,-0.87445 l 0.35247,-1.73329 m 0.65058,0.37777 c 0.009,-0.0284 0.52807,-1.01379 0.52807,-1.01379 l 1.40464,0.0388 m 2.13281,1.21928 c -0.0333,-0.017 -1.14265,-0.87445 -1.14265,-0.87445 l 0.35248,-1.73329 m 0.65056,0.37776 c 0.009,-0.0284 0.52807,-1.01379 0.52807,-1.01379 l 1.40464,0.0388 m 0.53242,1.05202 c 0.009,-0.0284 0.52807,-1.01378 0.52807,-1.01378 l 1.40464,0.0388 m -0.20666,0.56079 c 0.0234,0.003 0.86559,0.27463 0.86559,0.27463 l 0.16171,1.10453 m 0.58826,3.78718 c -0.0333,-0.017 -1.14263,-0.87446 -1.14263,-0.87446 l 0.35246,-1.73328 m 0.65058,0.37776 c 0.009,-0.0284 0.52807,-1.0138 0.52807,-1.0138 l 1.40464,0.0388 m 0.53242,1.05203 c 0.009,-0.0284 0.52806,-1.01379 0.52806,-1.01379 l 1.40465,0.0388 m -0.20667,0.56079 c 0.0234,0.003 0.86558,0.27462 0.86558,0.27462 l 0.16173,1.10455 m -0.66251,1.83582 c 0.009,-0.0283 0.52807,-1.01378 0.52807,-1.01378 l 1.40464,0.0388 m -0.20668,0.56079 c 0.0235,0.003 0.86559,0.27462 0.86559,0.27462 l 0.16173,1.10455 m -0.75048,0.56051 c 0.0234,0.003 0.86558,0.27463 0.86558,0.27463 l 0.16171,1.10455 m -0.46712,-0.0851 c 0,0.0187 -0.0965,0.71494 -0.0965,0.71494 l -0.84228,0.27761 m -2.81712,9.89441 c -0.0283,0.0376 -1.33189,1.22735 -1.33189,1.22735 l -2.07283,-0.81262 m 0.60937,-0.72483 c -0.0332,-0.017 -1.14262,-0.87445 -1.14262,-0.87445 l 0.35247,-1.7333 m 1.41982,-0.43222 c -0.0333,-0.017 -1.14262,-0.87445 -1.14262,-0.87445 l 0.35245,-1.73329 m 0.65058,0.37776 c 0.009,-0.0284 0.52807,-1.01378 0.52807,-1.01378 l 1.40464,0.0388 m 2.13281,1.21928 c -0.0333,-0.017 -1.14263,-0.87445 -1.14263,-0.87445 l 0.35246,-1.73329 m 0.65058,0.37776 c 0.009,-0.0284 0.52807,-1.01379 0.52807,-1.01379 l 1.40465,0.0388 m 0.53241,1.05202 c 0.009,-0.0284 0.52807,-1.01378 0.52807,-1.01378 l 1.40464,0.0388 m -0.20668,0.5608 c 0.0235,0.003 0.86559,0.27462 0.86559,0.27462 l 0.16174,1.10454 m 0.58825,3.78718 c -0.0333,-0.017 -1.14265,-0.87446 -1.14265,-0.87446 l 0.35249,-1.73328 m 0.65057,0.37775 c 0.009,-0.0284 0.52808,-1.01379 0.52808,-1.01379 l 1.40461,0.0388 m 0.53242,1.05203 c 0.009,-0.0284 0.52807,-1.01379 0.52807,-1.01379 l 1.40464,0.0388 m -0.20665,0.5608 c 0.0234,0.003 0.86558,0.27462 0.86558,0.27462 l 0.16173,1.10455 m -0.66254,1.83582 c 0.009,-0.0284 0.52808,-1.01379 0.52808,-1.01379 l 1.40464,0.0388 m -0.20666,0.56079 c 0.0234,0.003 0.86559,0.27463 0.86559,0.27463 l 0.16173,1.10454 m -0.7505,0.56052 c 0.0234,0.003 0.86558,0.27462 0.86558,0.27462 l 0.16174,1.10455 m -0.46713,-0.085 c 0,0.0187 -0.0965,0.71494 -0.0965,0.71494 l -0.84228,0.27761 m -3.91899,4.11704 c -0.0332,-0.017 -1.14263,-0.87444 -1.14263,-0.87444 l 0.35245,-1.73329 m 0.65059,0.37776 c 0.009,-0.0284 0.52807,-1.01378 0.52807,-1.01378 l 1.40464,0.0388 m 0.53241,1.05202 c 0.009,-0.0284 0.52807,-1.01379 0.52807,-1.01379 l 1.40465,0.0388 m -0.20667,0.56079 c 0.0235,0.003 0.86558,0.27462 0.86558,0.27462 l 0.16173,1.10454 m -0.66251,1.83583 c 0.009,-0.0284 0.52807,-1.01379 0.52807,-1.01379 l 1.40464,0.0388 m -0.20668,0.56079 c 0.0234,0.003 0.86559,0.27462 0.86559,0.27462 l 0.16173,1.10454 m -0.75048,0.56053 c 0.0234,0.003 0.86558,0.27462 0.86558,0.27462 l 0.16172,1.10455 m -0.46713,-0.085 c 0,0.0187 -0.0965,0.71494 -0.0965,0.71494 l -0.84228,0.27762 m -2.88332,0.97825 c 0.009,-0.0284 0.52807,-1.01378 0.52807,-1.01378 l 1.40464,0.0388 m -0.20667,0.56077 c 0.0235,0.003 0.86558,0.27462 0.86558,0.27462 l 0.16173,1.10456 m -0.75047,0.56052 c 0.0234,0.003 0.86558,0.27462 0.86558,0.27462 l 0.16171,1.10454 m -0.46713,-0.085 c 0,0.0187 -0.0965,0.71494 -0.0965,0.71494 l -0.84228,0.27761 m -1.5273,-0.26741 c 0.0234,0.003 0.86558,0.27462 0.86558,0.27462 l 0.16174,1.10455 m -0.46713,-0.0851 c 0,0.0187 -0.0965,0.71494 -0.0965,0.71494 l -0.84228,0.27761 m -0.54129,-0.51066 c 0,0.0187 -0.0965,0.71494 -0.0965,0.71494 l -0.84228,0.27762 m 0.003,-0.3772 c -0.0145,0.004 -0.57272,0.0222 -0.57272,0.0222 l -0.33243,-0.62119 m -13.51862,5.44776 c -0.0283,0.0376 -1.33189,1.22734 -1.33189,1.22734 l -2.07283,-0.81261 m 0.60937,-0.72484 c -0.0333,-0.017 -1.14263,-0.87445 -1.14263,-0.87445 l 0.35246,-1.73329 m 1.41983,-0.43222 c -0.0333,-0.017 -1.14263,-0.87446 -1.14263,-0.87446 l 0.35246,-1.73328 m 0.65059,0.37776 c 0.009,-0.0284 0.52806,-1.01379 0.52806,-1.01379 l 1.40465,0.0388 m 2.1328,1.21929 c -0.0333,-0.017 -1.14263,-0.87446 -1.14263,-0.87446 l 0.35246,-1.73328 m 0.65058,0.37776 c 0.009,-0.0284 0.52808,-1.0138 0.52808,-1.0138 l 1.40464,0.0388 m 0.53241,1.05203 c 0.009,-0.0284 0.52807,-1.01379 0.52807,-1.01379 l 1.40463,0.0388 m -0.20666,0.56079 c 0.0235,0.003 0.86558,0.27462 0.86558,0.27462 l 0.16173,1.10455 m 0.58826,3.78717 c -0.0332,-0.017 -1.14265,-0.87446 -1.14265,-0.87446 l 0.35249,-1.73328 m 0.65057,0.37776 c 0.009,-0.0284 0.52807,-1.01379 0.52807,-1.01379 l 1.40462,0.0388 m 0.53242,1.05203 c 0.009,-0.0284 0.52807,-1.01378 0.52807,-1.01378 l 1.40464,0.0388 m -0.20665,0.56078 c 0.0234,0.003 0.86558,0.27462 0.86558,0.27462 l 0.16172,1.10455 m -0.66252,1.83582 c 0.009,-0.0283 0.52807,-1.01378 0.52807,-1.01378 l 1.40465,0.0388 m -0.20666,0.56078 c 0.0234,0.003 0.86558,0.27462 0.86558,0.27462 l 0.16171,1.10455 m -0.75047,0.56052 c 0.0234,0.003 0.86558,0.27462 0.86558,0.27462 l 0.16173,1.10454 m -0.46713,-0.085 c 0,0.0187 -0.0965,0.71494 -0.0965,0.71494 l -0.84228,0.27762 m -3.919,4.11705 c -0.0332,-0.017 -1.14262,-0.87445 -1.14262,-0.87445 l 0.35246,-1.73329 m 0.65058,0.37775 c 0.009,-0.0284 0.52807,-1.01378 0.52807,-1.01378 l 1.40464,0.0388 m 0.53242,1.05202 c 0.009,-0.0284 0.52807,-1.01378 0.52807,-1.01378 l 1.40462,0.0388 m -0.20665,0.5608 c 0.0235,0.003 0.86557,0.27462 0.86557,0.27462 l 0.16174,1.10454 m -0.66252,1.83583 c 0.009,-0.0283 0.52808,-1.01378 0.52808,-1.01378 l 1.40461,0.0388 m -0.20665,0.5608 c 0.0235,0.003 0.86558,0.27461 0.86558,0.27461 l 0.16174,1.10455 m -0.75049,0.56052 c 0.0234,0.003 0.86559,0.27462 0.86559,0.27462 l 0.16171,1.10455 m -0.46712,-0.085 c 0,0.0187 -0.0965,0.71494 -0.0965,0.71494 l -0.84228,0.27761 m -2.8833,0.97826 c 0.009,-0.0284 0.52806,-1.01379 0.52806,-1.01379 l 1.40465,0.0388 m -0.20667,0.56078 c 0.0234,0.003 0.86558,0.27462 0.86558,0.27462 l 0.16172,1.10455 m -0.75049,0.56053 c 0.0234,0.003 0.86561,0.27461 0.86561,0.27461 l 0.16171,1.10455 m -0.46713,-0.0851 c 0,0.0187 -0.0965,0.71494 -0.0965,0.71494 l -0.84229,0.27762 m -1.52727,-0.26742 c 0.0234,0.003 0.86558,0.27462 0.86558,0.27462 l 0.16174,1.10455 m -0.46713,-0.0851 c 0,0.0187 -0.0965,0.71495 -0.0965,0.71495 l -0.84228,0.27761 m -0.5413,-0.51066 c 0,0.0187 -0.0965,0.71494 -0.0965,0.71494 l -0.84227,0.27761 m 0.003,-0.37719 c -0.0146,0.004 -0.5727,0.0222 -0.5727,0.0222 l -0.33243,-0.62119 m -8.12843,-0.85154 c -0.0333,-0.017 -1.14263,-0.87445 -1.14263,-0.87445 l 0.35246,-1.73329 m 0.65058,0.37776 c 0.009,-0.0284 0.52808,-1.01379 0.52808,-1.01379 l 1.40463,0.0388 m 0.53242,1.05203 c 0.009,-0.0284 0.52807,-1.01379 0.52807,-1.01379 l 1.40464,0.0388 m -0.20666,0.56079 c 0.0234,0.003 0.86558,0.27462 0.86558,0.27462 l 0.16172,1.10454 m -0.6625,1.83583 c 0.009,-0.0283 0.52806,-1.01379 0.52806,-1.01379 l 1.40464,0.0388 m -0.20667,0.56079 c 0.0234,0.003 0.8656,0.27462 0.8656,0.27462 l 0.16171,1.10455 m -0.75047,0.56051 c 0.0234,0.003 0.86558,0.27463 0.86558,0.27463 l 0.16171,1.10455 m -0.4671,-0.085 c 0,0.0187 -0.0966,0.71495 -0.0966,0.71495 l -0.84227,0.27761 m -2.88333,0.97826 c 0.009,-0.0284 0.52807,-1.01378 0.52807,-1.01378 l 1.40464,0.0388 m -0.20664,0.56079 c 0.0234,0.003 0.86557,0.27462 0.86557,0.27462 l 0.16172,1.10454 m -0.75048,0.56053 c 0.0234,0.003 0.86558,0.27462 0.86558,0.27462 l 0.16174,1.10454 m -0.46713,-0.085 c 0,0.0187 -0.0965,0.71494 -0.0965,0.71494 l -0.84228,0.27762 m -1.5273,-0.26742 c 0.0235,0.003 0.86558,0.27461 0.86558,0.27461 l 0.16174,1.10455 m -0.46712,-0.085 c 0,0.0187 -0.0965,0.71495 -0.0965,0.71495 l -0.84229,0.27761 m -0.54126,-0.51067 c 0,0.0187 -0.0965,0.71496 -0.0965,0.71496 l -0.84228,0.27761 m 0.003,-0.3772 c -0.0145,0.004 -0.57269,0.0222 -0.57269,0.0222 l -0.33246,-0.62118 m -3.75784,-2.50391 c 0.009,-0.0284 0.52807,-1.01379 0.52807,-1.01379 l 1.40464,0.0388 m -0.20668,0.56079 c 0.0235,0.003 0.86559,0.27462 0.86559,0.27462 l 0.16173,1.10455 m -0.75048,0.56052 c 0.0234,0.003 0.86558,0.27462 0.86558,0.27462 l 0.16171,1.10454 m -0.46712,-0.085 c 0,0.0187 -0.0965,0.71494 -0.0965,0.71494 l -0.84228,0.27761 m -1.52729,-0.26743 c 0.0234,0.003 0.86558,0.27463 0.86558,0.27463 l 0.16173,1.10455 m -0.46711,-0.085 c 0,0.0187 -0.0966,0.71495 -0.0966,0.71495 l -0.84228,0.27761 m -0.5413,-0.51065 c 0,0.0187 -0.0965,0.71494 -0.0965,0.71494 l -0.84228,0.27761 m 0.003,-0.37719 c -0.0146,0.004 -0.57272,0.0222 -0.57272,0.0222 l -0.33243,-0.62119 m -1.15988,-2.12264 c 0.0235,0.003 0.86559,0.27461 0.86559,0.27461 l 0.16173,1.10455 m -0.46712,-0.085 c 0,0.0187 -0.0965,0.71494 -0.0965,0.71494 l -0.84228,0.27762 m -0.54129,-0.51067 c 0,0.0187 -0.0965,0.71495 -0.0965,0.71495 l -0.84228,0.27761 m 0.003,-0.37719 c -0.0145,0.004 -0.57271,0.0222 -0.57271,0.0222 l -0.33244,-0.62118 m 0,-1.23179 c 0,0.0187 -0.0965,0.71494 -0.0965,0.71494 l -0.84228,0.27762 m 0.003,-0.37719 c -0.0145,0.004 -0.57269,0.0222 -0.57269,0.0222 l -0.33245,-0.62118 m 0.32561,-0.49344 c -0.0146,0.004 -0.5727,0.0222 -0.5727,0.0222 l -0.33244,-0.62119 m 0.29554,-0.0495 c -0.004,-0.0109 -0.0957,-0.44515 -0.0957,-0.44515 l 0.44068,-0.34511"
       id="path3829"
       style="fill:none;stroke:#000000;stroke-width:2.10891199;stroke-linecap:round;stroke-linejoin:bevel;stroke-miterlimit:4;stroke-opacity:1" />
  </g>
</svg>
