<?xml version="1.0" encoding="utf-8"?>
<!-- Generator: Adobe Illustrator 19.0.0, SVG Export Plug-In . SVG Version: 6.00 Build 0)  -->
<svg version="1.1" id="图层_1" xmlns="http://www.w3.org/2000/svg" xmlns:xlink="http://www.w3.org/1999/xlink" x="0px" y="0px"
	 viewBox="0 0 800 800" style="enable-background:new 0 0 800 800;" xml:space="preserve">
<style type="text/css">
	.st0{fill:#FFFFFF;}
</style>
<path d="M409.2,88.9c32.2-0.2,61.7,7.7,85.9,30.2c17,15.8,28.2,35.3,37,56.4c13.1,31.6,20.2,64.8,26.7,98.2
	c9.2,46.9,17.4,94,27.8,140.6c12.4,55.3,31.8,108.6,49.8,162.4c7.9,23.7,14.8,47.7,21.7,71.7c1.7,6,2,12.5,1.9,18.8
	c0,8.4-4.1,13.9-12.3,15.4c-7.4,1.3-15.3,1.9-22.7,0.7c-22.3-3.5-42-12.7-57.5-29.7c-3.1-3.4-6.9-3.4-10.6-2.2
	c-6.9,2.4-13.8,4.9-20.4,8.1c-15.4,7.6-30.4,15.9-45.7,23.6c-13.7,6.9-27.9,8.4-42.5,2.5c-11.7-4.8-23.5-9.5-35.2-14.2
	c-7.4-3-14.7-6.2-22.3-8.6c-9.1-2.9-17-0.6-23.6,6.5c-8.9,9.6-18.8,17.9-30.7,23.6C304,708.6,270,698.7,251,668
	c-2.6-4.2-5.5-8.4-9-11.9c-5.3-5.6-12.4-7.7-19.7-5.6c-7.3,2-14.4,5.1-21.4,8c-6.8,2.8-13.2,6.5-20.1,8.8
	c-12.4,4.2-20.8-0.4-25.7-12.7c-5-12.6-4.2-24.5,3.2-35.8c6.6-10,13.4-19.9,20.6-29.5c24.2-32.3,45.4-66.2,59.5-104.2
	c12-32.3,18.8-65.6,21.7-99.8c3.7-43.7,6.4-87.4,10.2-131.1c2.4-27.8,7.2-55.2,16.7-81.5c19.3-53.9,56.6-81.4,113.7-83.9
	C403.5,88.7,406.4,88.9,409.2,88.9z M409.2,95.5c-0.8,0-1.7,0-2.5,0c-2.8,0.1-5.7,0.1-8.5,0.3c-47,2.6-81.2,24.2-100.3,68
	c-11.5,26.4-17.2,54.4-19.9,82.8c-3.7,39.3-6.2,78.7-9.2,118.1c-2.4,31.3-6.1,62.3-14.4,92.7c-12.7,46.8-35,88.7-63.8,127.5
	c-9.9,13.4-19.3,27.1-28.4,41.1c-6.4,9.9-4.1,20.2,1,30c2.9,5.5,7,7.3,12.9,5.7c4.6-1.3,9.1-3.2,13.5-5.1c8.2-3.6,16.2-8,24.6-10.9
	c16.8-5.8,30-0.8,39.6,14.2c1.4,2.2,2.8,4.6,4.2,6.8c16.7,25.5,45.8,33.9,73.6,21.3c12.1-5.5,22-13.7,30.9-23.3
	c7.9-8.5,17.6-11.5,28.6-8.5c7.8,2.2,15.3,5.4,22.9,8.4c12.4,4.9,24.7,9.9,37,14.9c12.4,5.1,24.5,3.8,36.2-2.1
	c13-6.5,25.6-13.6,38.7-19.8c9.9-4.7,20-9.1,30.3-12.7c5.7-2,11.6-0.9,16.1,4c14.4,15.8,32.8,24.4,53.5,27.8
	c6.6,1.1,13.6,0.3,20.2-0.6c4.7-0.6,7.4-4.3,7.3-9.3c-0.1-4.2,0.1-8.5-1-12.4c-5.7-20.9-11.4-41.7-17.9-62.4
	c-15.5-49.4-32.2-98.5-47.2-148c-16.2-53.7-24-109.3-34.3-164.3c-6.3-33.4-13.3-66.7-25.9-98.4c-7.6-19.2-17.4-37.1-31.7-52.2
	C472,104.2,442.4,95.2,409.2,95.5z"/>
<path class="st0" d="M409.2,95.5c33.2-0.3,62.8,8.7,86.3,33.5c14.3,15.1,24.1,33.1,31.7,52.2c12.6,31.7,19.7,65,25.9,98.4
	c10.3,55,18.1,110.6,34.3,164.3c14.9,49.6,31.6,98.6,47.2,148c6.5,20.6,12.2,41.5,17.9,62.4c1.1,3.9,0.8,8.3,1,12.4
	c0.2,5.1-2.5,8.7-7.3,9.3c-6.7,0.9-13.7,1.7-20.2,0.6c-20.7-3.4-39.1-12-53.5-27.8c-4.5-4.9-10.4-6-16.1-4
	c-10.3,3.7-20.4,8-30.3,12.7c-13.1,6.3-25.7,13.4-38.7,19.8c-11.7,5.9-23.8,7.1-36.2,2.1c-12.3-5-24.7-10.1-37-14.9
	c-7.6-3-15.1-6.3-22.9-8.4c-11-3.1-20.7,0-28.6,8.5c-8.9,9.6-18.8,17.9-30.9,23.3c-27.8,12.6-56.8,4.2-73.6-21.3
	c-1.5-2.2-2.8-4.5-4.2-6.8c-9.6-15-22.8-20-39.6-14.2c-8.5,2.9-16.4,7.3-24.6,10.9c-4.4,1.9-8.9,3.8-13.5,5.1
	c-6,1.7-10.1-0.1-12.9-5.7c-5.1-9.8-7.3-20.1-1-30c9-14,18.5-27.7,28.4-41.1c28.7-38.8,51.1-80.7,63.8-127.5
	c8.3-30.4,11.9-61.4,14.4-92.7c3-39.4,5.5-78.8,9.2-118.1c2.7-28.4,8.3-56.3,19.9-82.8c19.1-43.8,53.3-65.3,100.3-68
	c2.8-0.2,5.7-0.2,8.5-0.3C407.5,95.5,408.3,95.5,409.2,95.5z M405.8,275.9c-7.9,0.2-16.1,4.4-22.4,12.2
	c-11.1,13.8-11.5,34.5-1.1,48.8c11.4,15.5,32.3,18.2,46.5,5.8c7.5-6.5,11.4-15,12.8-24.7C444.6,296,428.5,275.8,405.8,275.9z
	 M442.1,204.7c0.1,12.1,8.6,21.5,19.6,21.6c10.9,0.1,20.1-10,19.9-21.9c-0.1-11.9-9-21.6-19.8-21.6
	C450.6,182.7,442,192.3,442.1,204.7z M383.9,204.5c0-11.9-8.7-21.6-19.5-21.8c-11.1-0.2-20.1,9.6-20.1,21.7c0,12.1,9,21.9,20,21.8
	C375.1,226.2,383.8,216.5,383.9,204.5z"/>
<path d="M405.8,275.9c22.7-0.1,38.8,20.2,35.8,42.1c-1.3,9.7-5.3,18.2-12.8,24.7c-14.2,12.4-35.1,9.7-46.5-5.8
	c-10.5-14.3-10.1-35.1,1.1-48.8C389.7,280.3,397.9,276.1,405.8,275.9z M407.8,345.4c7.5,0.1,14.4-2.8,19.7-8.3
	c11.6-12.2,12.6-32.1,2.2-45.4c-11.7-15-32.3-14.6-43.4,0.8c-8.5,11.8-8.8,28.4-0.5,40.3C391,340.6,398.2,345.2,407.8,345.4z"/>
<path d="M442.1,204.7c-0.1-12.3,8.6-21.9,19.7-21.9c10.7,0,19.7,9.7,19.8,21.6c0.1,12-9,22-19.9,21.9
	C450.7,226.2,442.1,216.8,442.1,204.7z M476.3,204.6c0-9.7-6.2-16.9-14.6-16.9c-8.2,0-14.9,7.6-14.8,16.9
	c0.1,9.1,6.6,16.5,14.6,16.6C469.9,221.4,476.3,214.2,476.3,204.6z"/>
<path d="M383.9,204.5c0,12-8.7,21.6-19.6,21.7c-11,0.1-20-9.7-20-21.8c0-12.1,9-21.9,20.1-21.7C375.2,182.9,383.9,192.6,383.9,204.5
	z M349.4,204.5c0,9.5,6.5,16.8,14.9,16.7c8.2-0.1,14.7-7.6,14.6-17c-0.1-9.1-6.6-16.4-14.7-16.5
	C355.9,187.7,349.4,195.1,349.4,204.5z"/>
<path class="st0" d="M407.8,345.4c-9.6-0.2-16.8-4.8-22.1-12.5c-8.3-12-8-28.6,0.5-40.3c11.2-15.4,31.7-15.8,43.4-0.8
	c10.4,13.3,9.4,33.2-2.2,45.4C422.2,342.7,415.3,345.6,407.8,345.4z"/>
<path class="st0" d="M476.3,204.6c0,9.6-6.4,16.7-14.8,16.6c-8-0.1-14.5-7.5-14.6-16.6c-0.1-9.3,6.6-16.9,14.8-16.9
	C470.1,187.7,476.3,194.9,476.3,204.6z"/>
<path class="st0" d="M349.4,204.5c0-9.4,6.5-16.8,14.8-16.8c8.1,0.1,14.6,7.4,14.7,16.5c0.1,9.4-6.4,17-14.6,17
	C356,221.3,349.5,214,349.4,204.5z"/>
</svg>
