<?xml version="1.0" encoding="UTF-8" standalone="no"?>
<!-- Created with Inkscape (http://www.inkscape.org/) -->

<svg
   xmlns:dc="http://purl.org/dc/elements/1.1/"
   xmlns:cc="http://creativecommons.org/ns#"
   xmlns:rdf="http://www.w3.org/1999/02/22-rdf-syntax-ns#"
   xmlns:svg="http://www.w3.org/2000/svg"
   xmlns="http://www.w3.org/2000/svg"
   xmlns:sodipodi="http://sodipodi.sourceforge.net/DTD/sodipodi-0.dtd"
   xmlns:inkscape="http://www.inkscape.org/namespaces/inkscape"
   version="1.0"
   width="399.00409"
   height="432.22641"
   id="svg2"
   inkscape:version="0.48.1 "
   sodipodi:docname="lemmling_cartoon_ghost_coloring_book_colouring_drawing_black_white_line_art_christmas_xmas.svg">
  <metadata
     id="metadata18">
    <rdf:RDF>
      <cc:Work
         rdf:about="">
        <dc:format>image/svg+xml</dc:format>
        <dc:type
           rdf:resource="http://purl.org/dc/dcmitype/StillImage" />
      </cc:Work>
    </rdf:RDF>
  </metadata>
  <sodipodi:namedview
     pagecolor="#ffffff"
     bordercolor="#666666"
     borderopacity="1"
     objecttolerance="10"
     gridtolerance="10"
     guidetolerance="10"
     inkscape:pageopacity="0"
     inkscape:pageshadow="2"
     inkscape:window-width="640"
     inkscape:window-height="480"
     id="namedview16"
     showgrid="false"
     showguides="true"
     inkscape:guide-bbox="true"
     inkscape:zoom="0.67325826"
     inkscape:cx="123.20014"
     inkscape:cy="216.1132"
     inkscape:window-x="623"
     inkscape:window-y="75"
     inkscape:window-maximized="0"
     inkscape:current-layer="svg2" />
  <defs
     id="defs4" />
  <path
     inkscape:connector-curvature="0"
     style="fill:#ffffff;fill-opacity:0.62745098;fill-rule:nonzero;stroke:#000000;stroke-width:4;stroke-linecap:round;stroke-linejoin:round;stroke-miterlimit:4;stroke-opacity:1"
     id="path2383"
     d="m 350.76212,189.06649 c 0,88.1699 35.79133,110.8994 35.79133,151.79174 0,22.68064 -48.88377,6.13428 -68.74395,17.60056 -18.4201,10.63485 -10.87428,26.65472 -37.39519,36.93284 -19.05426,7.38443 -44.45977,-26.28197 -70.97978,-26.28197 -21.15381,0 -60.19689,28.37631 -78.53403,19.35723 -18.33713,-9.01907 -16.59785,-39.06597 -44.949456,-41.96901 -21.15906,-2.16656 -75.03916,27.11334 -75.03916,4.4327 0,-28.88522 33.27324,-60.35212 33.27324,-161.86409 0,-98.341341 68.673246,-178.154609 153.288496,-178.154609 84.61525,0 153.2885,79.813268 153.2885,178.154609 z" />
  <path
     inkscape:connector-curvature="0"
     style="fill:#ffffff;fill-opacity:1;fill-rule:nonzero;stroke:#000000;stroke-width:4;stroke-linecap:round;stroke-linejoin:round;stroke-miterlimit:4;stroke-opacity:1;stroke-dasharray:none"
     id="path2387"
     d="m 138.02955,89.96716 c -20.56311,2e-5 -37.25136,19.17438 -37.25136,42.80137 2e-5,23.62698 16.68825,42.80137 37.25136,42.80137 15.88829,1e-5 29.45986,-11.46059 34.81114,-27.56439 5.35129,16.1038 18.92284,27.5644 34.81115,27.56439 20.56311,0 37.25136,-19.17439 37.25135,-42.80137 0,-23.62699 -16.68825,-42.80135 -37.25135,-42.80137 -15.88517,0 -29.45768,11.42732 -34.81115,27.52611 -5.35347,-16.09879 -18.92597,-27.52611 -34.81114,-27.52611 z" />
  <path
     inkscape:connector-curvature="0"
     style="fill:#000000;fill-opacity:1;fill-rule:nonzero;stroke:none"
     id="path2389"
     d="m 214.94527,140.13128 a 16.129736,16.195543 0 0 1 -32.25947,0 16.129736,16.195543 0 1 1 32.25947,0 z" />
  <path
     inkscape:connector-curvature="0"
     style="fill:#000000;fill-opacity:1;fill-rule:nonzero;stroke:none"
     id="path2396"
     d="m 163.7592,140.13128 a 16.129736,16.195543 0 0 1 -32.25947,0 16.129736,16.195543 0 1 1 32.25947,0 z" />
</svg>
