<?xml version="1.0" encoding="utf-8"?>
<!-- Generator: Adobe Illustrator 19.0.0, SVG Export Plug-In . SVG Version: 6.00 Build 0)  -->
<svg version="1.1" id="图层_1" xmlns="http://www.w3.org/2000/svg" xmlns:xlink="http://www.w3.org/1999/xlink" x="0px" y="0px"
	 viewBox="0 0 800 800" style="enable-background:new 0 0 800 800;" xml:space="preserve">
<style type="text/css">
	.st0{fill:#FFFFFF;}
</style>
<path d="M480.2,422.1c0.4,6.7,1.2,13.3,1.2,19.9c0,45.9-32.4,85.3-77.5,94.5c-45.4,9.2-91-14.3-108.7-56.7c-3.3-8-4.6-16.9-6.3-25.5
	c-0.7-3.6,0.9-6.8,5.1-7.2c3.9-0.4,5.4,2.1,6.3,5.7c2.1,8.2,7.5,12.2,15.9,12.3c24.7,0.2,43.7-19.5,42.7-44.2
	c-0.2-4.4-2.3-6.3-6.4-5.1c-5.7,1.6-11.6,3-16.9,5.7c-9.4,4.7-19.9,2.7-25.7-5.6c-6.1-8.6-4.5-19.3,3.3-26.6
	c9.9-9.4,20.2-18.4,28.8-28.9c14.8-18.1,23.4-39.4,27.4-62.5c4-23,21.8-37.5,44.1-36.1c19,1.2,34.6,15.7,37.7,34.8
	c6.2,38.6,24.7,69.9,55.7,93.8c8.3,6.4,10.6,14.7,6.5,23.7c-3.8,8.3-12.8,12.7-22.5,10.8C487.3,424.1,483.8,423,480.2,422.1z
	 M476.6,417.6c5.1,1.8,9.2,3.5,13.4,4.7c9.1,2.4,17.2-1.2,21.1-9c3.9-7.9,1.9-15.1-6-21.3c-31.4-24.2-50-56-56.2-95.1
	c-3-18.6-19.3-32.7-37.9-32.9c-19.6-0.2-36,13.2-39.2,32.3c-3.4,20.3-10.5,39.2-21.6,56.5c-9.4,14.6-21.1,26.9-34.7,37.6
	c-7.8,6.2-9.4,15.8-4.2,23.6c5.3,7.8,14.4,9.6,23.3,5.4c5.8-2.7,12.1-4.4,18.4-6c4.6-1.1,7.7,1.7,8.1,6.4
	c1.9,24.5-16.7,46-41.2,47.5c-12.6,0.8-17.6-2.7-22.1-14.6c-0.5-1.3-2.4-2.1-3.7-3.2c-1,1.3-2.9,2.7-2.9,4c0.1,4.3,0.4,8.7,1.5,12.8
	c13.1,49.1,63.2,78.8,113.4,67.4c49-11.1,81.1-60.4,71.6-110C477.3,421.8,477,419.9,476.6,417.6z"/>
<path class="st0" d="M476.6,417.6c0.4,2.3,0.7,4.2,1,6.1c9.5,49.6-22.6,98.9-71.6,110c-50.2,11.4-100.3-18.3-113.4-67.4
	c-1.1-4.1-1.4-8.5-1.5-12.8c0-1.3,1.8-2.7,2.9-4c1.3,1,3.2,1.8,3.7,3.2c4.5,12,9.5,15.4,22.1,14.6c24.5-1.5,43.1-23,41.2-47.5
	c-0.4-4.7-3.5-7.6-8.1-6.4c-6.2,1.6-12.6,3.3-18.4,6c-8.9,4.2-18.1,2.5-23.3-5.4c-5.2-7.7-3.6-17.4,4.2-23.6
	c13.6-10.7,25.4-23,34.7-37.6c11.1-17.3,18.2-36.2,21.6-56.5c3.2-19.1,19.5-32.5,39.2-32.3c18.6,0.2,34.9,14.3,37.9,32.9
	c6.2,39.1,24.8,70.9,56.2,95.1c7.9,6.1,10,13.3,6,21.3c-3.8,7.8-12,11.4-21.1,9C485.8,421.1,481.7,419.4,476.6,417.6z M426.5,335.9
	c-1-3-1.8-7.1-3.7-10.7c-5.7-10.2-18.3-10.1-24.2,0c-3.2,5.4-3.7,11.3-2.5,17.4c1.7,8,7.6,13.8,14.2,14.1c6.7,0.3,12.6-5,14.8-13.3
	C425.7,341.4,425.9,339.3,426.5,335.9z M418,305.2c0,6.4,3.1,11.5,7.1,11.7c4.1,0.2,7.6-5.3,7.6-11.8c0-6.2-3.3-11.6-7.2-11.8
	C421.4,293.2,418,298.6,418,305.2z M403.3,305.1c0-6.8-3.2-12-7.4-11.8c-3.9,0.2-6.9,5.4-6.9,11.8c0,6.5,3,11.5,6.9,11.7
	C400,317.1,403.3,311.9,403.3,305.1z"/>
<path d="M426.5,335.9c-0.6,3.3-0.8,5.5-1.4,7.6c-2.2,8.3-8.1,13.5-14.8,13.3c-6.6-0.3-12.5-6-14.2-14.1c-1.3-6.1-0.7-12,2.5-17.4
	c5.9-10.1,18.5-10.3,24.2,0C424.7,328.8,425.5,333,426.5,335.9z"/>
<path d="M418,305.2c0-6.6,3.4-12,7.5-11.9c3.9,0.1,7.2,5.6,7.2,11.8c0,6.5-3.5,12-7.6,11.8C421.1,316.7,418,311.6,418,305.2z"/>
<path d="M403.3,305.1c0,6.8-3.2,12-7.4,11.8c-4-0.2-6.9-5.2-6.9-11.7c0-6.4,3-11.6,6.9-11.8C400,293.2,403.3,298.3,403.3,305.1z"/>
</svg>
