<?xml version="1.0" encoding="utf-8"?>
<!-- Generator: Adobe Illustrator 19.0.0, SVG Export Plug-In . SVG Version: 6.00 Build 0)  -->
<svg version="1.1" id="图层_1" xmlns="http://www.w3.org/2000/svg" xmlns:xlink="http://www.w3.org/1999/xlink" x="0px" y="0px"
	 viewBox="0 0 800 800" style="enable-background:new 0 0 800 800;" xml:space="preserve">
<style type="text/css">
	.st0{fill:#FFFFFF;}
</style>
<path d="M576,552c-5.9-5.4-11.9-10.6-17.6-16.2c-4.9-4.8-9.8-9.8-14.1-15.1c-2.9-3.6-4.9-8-6.3-12.6c7,6.8,14,13.7,21.1,20.5
	c5.6,5.5,11.3,10.9,16.9,16.4C576,547.3,576,549.7,576,552z"/>
<path d="M576,574c-5.7-0.6-11.5-1.1-15.7-5.9c-0.8-0.9-1.5-1.9-3.1-3.9c7.6-0.3,11.9,7.4,18.7,4.8C576,570.7,576,572.3,576,574z"/>
<path d="M389.2,452.9c-0.7-5.5-1.5-11.1-2-16.6c-1.4-13.9-2.5-27.8-4-41.7c-1.5-13.4-3-26.8-5.2-40.1c-2.4-14.1-3.3-28.7-10.8-41.3
	c-3.9-6.5-8.8-12.6-14.4-17.6c-6.4-5.9-13-5.5-20.1-0.5c-7.4,5.2-14.1,11.2-16.8,20.4c-7.2,24-15,47.9-21.6,72.1
	c-4.5,16.4-7.8,33.2-10.5,50c-2.2,13.4-5,26.8-2.8,40.7c3,19.3,13.4,33.6,29.7,43.3c5.8,3.5,13.2,3.3,19.8,0.2
	c10.5-5,18.6-12.7,25-22.3c1.2-1.7,2.3-3.5,4.5-4.9c0,3.3,0,6.5,0,8.5c-1.6,1.3-2.6,1.9-3.4,2.7c-5.3,5.2-10,11.1-16,15.5
	c-12.3,9-33.4,6.3-45.3-4.2c-19.6-17.2-24.1-38.7-19.5-62.5c3.9-20.1,9.7-39.7,14.7-59.5c4.9-19.2,9.6-38.4,14.8-57.6
	c2.1-7.9,4.7-15.6,7.7-23.2c6-15.1,7.7-16.8,21.7-25.6c-3.9-0.8-7.5-1.5-11-2.2c0-0.3,0-0.6,0-0.9c9.8-1.6,19.6-3.5,29.5-4.6
	c5.3-0.6,9.6,2.7,12.4,7.1c2.6,4.1,5.1,8.3,6.6,12.8c4.3,12.9,13.7,22.1,22.1,32.1c2,2.4,5.3,3.9,8.3,5.2c1.1,0.5,3.3-0.5,4.5-1.4
	c8.6-6.3,16.6-13.4,25.6-19.1c9.4-6.1,20-7.4,29.7-0.8c5.1,3.5,10,8.7,12.7,14.2c5.2,10.7,8.6,22.3,13.2,33.4
	c0.9,2.3,3.4,4.2,5.6,5.6c4.3,2.9,9.2,4.8,13.1,8c6.6,5.4,6.3,13.3,5.4,20.8c-0.5,4.2-2.4,8.2-3.2,12.4c-0.4,2.2-0.3,4.7,0.4,6.8
	c7.6,22.1,15.4,44.2,23,66.4c0.9,2.5,0.4,5.5,0.6,8.3c-0.6,0.1-1.3,0.3-1.9,0.4c-2.2-5.9-4.9-11.6-6.4-17.6
	c-4.8-19.7-11.8-38.7-19.5-57.5c-0.6-1.4-1.7-2.8-2.9-3.8c-4-3.2-8.5-5.8-12.2-9.3c-3.6-3.4-5.7-7.7-4-13.1c1.3-4.3-1-9.7,3.7-13.1
	c-5.8-15.6-11.1-31.4-17.6-46.7c-5.8-13.7-24.6-20-38.6-9.9c-7.7,5.6-14.8,11.8-21.9,18.1c-8.2,7.2-16.2,14.7-24.2,22.3
	c-1,0.9-1.5,2.7-1.5,4.1c0.5,17.7,1.1,35.5,1.8,53.2c0.4,9.1,1,18.2,1.5,27.3c0.1,2-0.2,4-0.3,5.9L389.2,452.9z M402.7,340.8
	c-11.2-3.1-16.4-12.1-24-20.1c2.4,13.8,4.5,26.4,6.8,39.4C391.4,353.5,396.8,347.5,402.7,340.8z M503.6,402.1c0.5,0,1.1,0,1.6,0
	c0.3-1.7,1.2-3.6,0.8-5.1c-0.9-3.5-3.3-6.8-3.6-10.3c-0.4-5.2-4-6.5-8.1-8C497.5,386.4,500.5,394.2,503.6,402.1z M346.8,286.7
	c6.6,4.7,13.4,9.4,19.4,13.7C359.5,286.8,354.3,283.2,346.8,286.7z M493.2,386.2c-2.8,8.1,1,12.3,5.7,16.3
	C497.1,397.4,495.3,392.4,493.2,386.2z"/>
<path d="M312.8,290.4c-13.8-0.5-17-10.4-20.7-20c-2.9-7.5-5.5-15.4-9.6-22.2c-8.6-14-34.7-13.3-43.6,0.7c-2.3,3.6-2.6,7.8-0.7,13.2
	c3.2-3,4.5-1.7,4.8,2.1c0.3,4.5,0.7,8.9,1.4,13.3c0.9,6.1,4.7,10.5,9.3,14.3c2.5,2.1,5.2,2.1,7.7-0.1c2.9-2.6,5.8-5.3,9.6-8.8
	c-1,2.3-1.6,3.7-2.2,4.9c-2.7,5.7-6.4,11-13.1,10.8c-7.1-0.2-11.9-5.6-13.2-12c-1.8-9.2-6.1-16.9-10.2-25
	c-4.5-8.9-1.3-19.4,7.9-24.7c19.3-11.2,44.3-10.5,52.8,17.8c3.6,12,8,23.7,17.5,32.5C311.4,288,311.9,289,312.8,290.4z"/>
<path d="M357.2,472c-1.3-1.4-2.7-2.2-3-3.3c-2.4-10.3-4.5-20.7-6.9-31c-1.1-4.7-2.9-9.2-3.8-13.9c-3.7-19.2-7.6-38.4-10.6-57.8
	c-0.9-5.8,0.7-12,1.2-18c0.7-0.1,1.4-0.2,2-0.3c0.7,1.8,1.7,3.6,2.1,5.4c3.5,21,6.7,42,10.2,63c2,12.1,4.4,24.1,6.7,36.2
	c0.2,0.8,1,1.6,2.1,3.1c-2.9,7.2,3.1,15.2,2.3,24.5C357.4,476.9,352,475.4,357.2,472z"/>
<path d="M503.7,480.6c-2.4-0.5-3.8-0.3-4.7-1c-1.7-1.3-3.4-2.8-4.5-4.6c-1.5-2.7-1.6-7.1-3.7-8.3c-5.1-2.8-7.7-7.7-11.2-11.7
	c-12.7-14.6-24.5-29.9-29.4-49.1c-1.6-6.3-1.8-12.9-2.7-19.3c0.8-0.2,1.5-0.4,2.3-0.7c1.1,2.4,2.5,4.6,3.2,7.1
	c4,15.2,11.2,28.7,20.4,41.3c6.9,9.5,13.5,19.2,20.2,28.8c2.8,4,6,7.8,8.7,12C503.3,476.9,503.4,479.3,503.7,480.6z"/>
<path d="M389,453c1.7-1.4,3.8-2.6,5.2-4.3c9.2-12,18.1-24.2,27.3-36.3c3-3.9,6.4-7.5,10.5-10.8c-4.4,7.3-8.8,14.6-13,21.9
	c-3.3,5.7-6.4,11.5-9.5,17.3c-5.3,9.8-10.2,19.8-16,29.2c-3.3,5.3-2.5,10.4-2.2,15.8c0.8,11.3,1.9,22.5,2.7,33.8
	c0.1,1.4-0.7,2.9-1,4.3c-1.2-1.5-3.3-2.8-3.4-4.4c-0.5-4.9-0.2-10-0.3-14.9c-0.2-15.4-0.5-30.9-0.7-46.3c0-1.8,0.5-3.6,0.8-5.4
	C389.2,452.9,389,453,389,453z"/>
<path d="M401.3,576c-1.7,4.5-10.9,9.9-16.8,10c-7.3,0.1-7.3,0.1-10.9,5.7c-0.7-3.7-1.9-6.8-1.8-9.9c0.2-7.5-3.4-13.3-7.7-18.9
	c-8.5-10.9-9.1-25.1-0.9-37.6c0.4,1.4,0.9,2.4,0.9,3.3c0.1,2.2,0.2,4.4-0.1,6.5c-1.5,10.3,1.1,18.9,7.9,27.1
	c3.9,4.8,5.1,11.9,7.9,19.1C386.7,582.6,394.2,580,401.3,576L401.3,576z"/>
<path d="M401.3,576c5.1-0.4,7-3.4,4.6-7.4c-4-6.6-7.8-13.6-12.8-19.5c-8.9-10.4-10-22.5-10-35.2c0-3.3,0.3-6.5,1.7-10.1
	c0.4,1.9,1.2,3.8,1.3,5.7c0.4,14.5,6.6,26.6,14.8,38.1c4.2,5.9,7.8,12.2,11.6,18.4c2,3.3,1.3,6.4-2.1,8
	C407.6,575.4,405.2,579.9,401.3,576C401.3,576,401.3,576,401.3,576z"/>
<path d="M261.1,418.2c3.8,24.4,2.6,48.6-1.1,72.6c-1.3,8-3.3,16-5.9,23.7c-2.3,7-7,12.5-14.5,14.6c-1.7,0.5-3.9-0.6-5.9-1
	c1.3-1.2,2.4-2.6,3.9-3.5c2.2-1.4,4.8-2.3,7-3.8c3.7-2.5,5.7-5.7,7-10.6c7.4-29,8.6-58.5,9.3-88.2
	C260.9,420.8,261,419.5,261.1,418.2z"/>
<path d="M257.1,386.7c-1.9-8.7-3.6-17.3-5.6-26c-3.1-13.4-6.3-26.8-9.8-40.1c-2.8-10.6-1.8-15.6,6.5-22.3
	c-0.8,30.5,9.1,58.7,10.8,88.1C258.4,386.5,257.7,386.6,257.1,386.7z"/>
<path d="M284,388.9c-10.5,6.4-20.6,1.7-21.6-9.5c-0.3-3.3-0.1-6.6,0.2-9.9c1.2-11.5,2.6-23,5-34.7c0.7,5.6,1.7,11.2,2.1,16.8
	c0.4,6,0.5,12,0.1,18c-0.6,11.3,1,14.2,11.8,18.3C282.2,388.1,282.8,388.4,284,388.9z"/>
<path d="M559.2,563c-1.9,0.1-3.4,0.7-4.2,0.1c-6.9-4.9-14.6-7.7-22.8-9.4c-5.8-1.2-9.7-6.9-9.6-12.6c0.1-6.1,0.3-12.2,0.6-18.3
	c0-0.9,0.7-1.8,1.2-3c5,4.8,4.1,10.9,4.2,16.2c0.1,8.6,0.4,10.7,8.5,12.7C545.8,550.9,552.8,555,559.2,563z"/>
<path d="M266.9,493.5c0.4,5.2,0.6,10.5,1.3,15.6c0.6,4.3,2,8.6,3.1,12.8c0.1,0.5,0.6,0.9,0.6,1.4c0.2,3.1,0.2,6.3,0.3,9.4
	c-2.2-1.3-4.5-2.7-7.4-4.4c-5.2,3.9-11.1,8.7-20.5,8.4c8.3-5.1,15.4-9.5,23.1-14.2c-3.8-8.4-4.3-18.5-2.5-28.8
	C265.7,493.6,266.3,493.6,266.9,493.5z"/>
<path d="M273.8,259.4c-11.3-0.7-22.2-1.4-33.1-2.1c1.7-3.7,9.1-6.5,17.2-6.2C268.5,251.5,271.5,253,273.8,259.4z"/>
<path d="M503,485c1.1,1.3,2.3,2.6,3.4,3.9c5-3.3,4.2,2.7,5.9,4.3c0.6,0.6-1.3,3.9-2.4,7c-3.2-5.9-5.5-10.3-7.8-14.6
	C502.5,485.4,502.8,485.2,503,485z"/>
<path class="st0" d="M402.7,340.8c-5.9,6.7-11.3,12.7-17.3,19.4c-2.2-13-4.4-25.6-6.8-39.4C386.3,328.7,391.5,337.7,402.7,340.8z"/>
<path class="st0" d="M503.6,402.1c-3.1-7.8-6.1-15.7-9.2-23.5c4.1,1.5,7.7,2.8,8.1,8c0.3,3.5,2.6,6.8,3.6,10.3
	c0.4,1.5-0.5,3.4-0.8,5.1C504.7,402.1,504.1,402.1,503.6,402.1z"/>
<path class="st0" d="M346.8,286.7c7.5-3.5,12.7,0,19.4,13.7C360.1,296.1,353.4,291.4,346.8,286.7z"/>
<path class="st0" d="M493.2,386.2c2.2,6.2,4,11.2,5.7,16.3C494.2,398.5,490.4,394.3,493.2,386.2z"/>
</svg>
