<?xml version="1.0" encoding="utf-8"?>
<!-- Generator: Adobe Illustrator 19.0.0, SVG Export Plug-In . SVG Version: 6.00 Build 0)  -->
<svg version="1.1" id="图层_1" xmlns="http://www.w3.org/2000/svg" xmlns:xlink="http://www.w3.org/1999/xlink" x="0px" y="0px"
	 viewBox="0 0 800 800" style="enable-background:new 0 0 800 800;" xml:space="preserve">
<style type="text/css">
	.st0{fill:#FFFFFF;}
</style>
<path d="M358.4,270.4c0.3-1.3,0.5-2.7,0.8-4.4c2.8,6.3,5.1,11.5,7.4,16.9c10.2-8,12.7-24.8,5.7-35c-0.1-0.1-0.2-0.2-0.3-0.4
	c-5.3-8.8-5.3-8.8-14.3-5.1c3-1.7,6.1-3.4,10-5.7c-2.1-1-3.8-1.8-5.9-2.9c7.2-2,7.5,6.6,12.8,7.3c0.2-0.2,1-0.8,1-0.9
	c0.4,1.8,0.4,4.2,1.5,5.9c3.3,5.2,2.8,10.6,2.3,16.3c-1.3,15.7-2,31.4-3,48c6.8-3.9,9.4-9.9,12.5-15.4c1.8-3.2,3-6.7,4.2-10.1
	c1.6-4.7,4.8-8.5,9.4-8.5c3.3,0,8,2.6,9.6,5.5c4.9,8.5,13.7,11.7,20.6,17.6c9.2,7.8,18.4,15.6,27.2,24c-6.5-4.9-13.3-9.4-19.5-14.7
	c-6.1-5.1-11.7-10.6-19.4-13.6c-4-1.6-6.8-6.1-10.3-9.1c-2.7-2.2-5.7-5.7-8.6-5.7c-4.1,0-7,3.5-8.7,7.9c-3.4,9.1-7.4,17.8-14.8,24.5
	c-3.4,3-0.8,5.6,1,7.7c2,2.3,4.8,4,7.4,5.7c0.9,0.6,2.5,0.5,3.7,0.2c10.8-2.9,18.2,4.2,16,15c-2.5,12.1-9.1,21.9-16.1,31.7
	c-2.6,3.6-3.8,8.3-5.6,12.5c0.6,0.6,1.1,1.1,1.7,1.7c3.5-1.1,7-2.1,10.3-3.5c6-2.6,12-4.6,18.8-3.1c5.5,1.2,8.3,3,8.3,8.8
	c0.1,9.9-0.8,19.8-1.2,29.6c-0.6,0-1.1-0.1-1.7-0.1c0.3-7,0.6-13.9,0.9-20.9c0-0.2,0.1-0.3,0.1-0.5c0.8-12.6-4.8-17.5-17.2-14.3
	c-4.2,1.1-8.1,3.7-12.1,5.6c-1.3,0.6-2.5,1.7-3.9,1.9c-2,0.3-4.9,0.7-5.8-0.4c-1.3-1.4-1.9-4.4-1.5-6.3c1.6-6.4,3.9-12.4,8.6-17.6
	c7.1-7.8,12.5-16.8,14.5-27.4c0.7-3.5,0.3-6.7-2.9-8.8c-3.6-2.4-7.4-3.7-11.6-0.9c-5.2,3.5-9.9,1.9-12.5-4c-0.2-0.5-0.4-0.9-0.5-1.4
	c-1.5-4.3-2.8-8-7.3-11.2c-7.2-5.1-9.5-14.1-11.5-22.5c-1-4.2-2.3-8.4-3.6-13.3c-10.8,3.8-20.2,7.8-26.7,16.6
	c-0.5,0.7-0.7,1.7-1.4,2c-7.3,3.6-11.7,10.1-16.7,16.1c-2.4,3-6.7,5-10.6,6.1c-9.9,2.7-20,4.6-30.3,5.9c8.1-2,16.2-3.6,24.1-6
	c5.2-1.5,10.2-3.7,14.9-6.4c2.2-1.2,3.4-4.2,5.1-6.4c-0.3-0.4-0.5-0.9-0.8-1.3c-5.9,1.7-11.8,3.6-17.8,5
	c-10.5,2.5-20.9,5.7-31.5,6.6c-8.8,0.7-16.5-3.8-22-11.4c-1.4-1.9-4.1-3.1-6.5-4.2c-7.3-3.1-11.9-9-15.6-15.5
	c-5.6-10-10.3-20.6-19-28.5c-7-6.4-14.3-12.5-21.2-18.9c-3.2-2.9-5.7-6.5-8.9-9.4c-3.8-3.6-7.9-7-11.9-10.4
	c-7.9-6.8-15.7-13.7-23.9-20.2c-2.9-2.3-3.3-4.9-4.2-8.1c0.8,0.2,1.2,0.2,1.3,0.4c5,9.4,14.3,14.6,21.4,22.1
	c0.1,0.1,0.2,0.2,0.4,0.3c18.5,11.5,31.4,29.3,48,43c7.3,6,11.7,15.9,16.5,24.6c4.7,8.4,9.4,17.2,19.3,19.6c7.3,1.8,12.4,4.9,17,11
	c4.6,6,12.2,4,18.7,3c3.7-0.6,7.2-2,10.7-3.5c-2,0.1-4.2,0.8-5.8,0.2c-2.7-1.1-6.3-2.6-7.2-4.9c-0.7-1.7,1.4-5.7,3.3-7.3
	c4.8-4,10.3-7.1,15.5-10.7c1.9-1.3,3.9-2.5,5.7-4c7-5.8,13.6-12.5,11.1-22.4c-2.8-10.8-9.8-18.4-21.9-20.3
	c8.5-1.4,15.6,3.5,21.4,15.2c7,14.3-2,23-12.4,32.1c5,0,9.1,0,13.3,0c0,0.3,0,0.5,0,0.8c-1.7,0-3.3,0.2-5,0
	c-10.3-1.7-17.9,3.7-25.1,9.6c-1.7,1.4-2.2,4.3-3.2,6.5c2.7,1,5.5,3.1,7.9,2.7c5.7-0.9,11.3-2.7,16.7-4.7c5.2-1.9,10.2-3.1,16-2.4
	c2.8,0.4,6.9-1.8,9-4c7.7-8.1,16.4-14.4,26.8-18.4c0.6-0.2,1-0.8,1.9-1.7c-6.6-8.8-13.3-17.3-19.6-26.1c-3.2-4.5-6.5-9.4-8.2-14.6
	c-4.1-12.1-7.4-24.4-10.7-36.8c-1.6-6.1-2.5-12.4-3.8-18.6c-0.4-1.8-1.2-3.5-1.9-5.3c-0.6-1.7-1.3-3.5-1.9-5.2
	c0.7-0.3,1.3-0.6,2-0.9c1.4,3.3,3.4,6.4,4.2,9.8c1.5,6.6,2.2,13.3,3.5,19.9c0.9,4.5,2.5,8.9,3.9,13.3c2.2,7,4.3,14,6.9,20.8
	c1.6,4.1,3.5,8.3,6.1,11.9c7.3,9.8,15.1,19.2,23,28.9C356.4,271.8,357.4,271.1,358.4,270.4c-2.6,3.6-0.8,7,0.5,10.5
	c0.4,1,1,1.9,1.3,2.8c1.8,5.1,3.6,10.3,5.4,15.6c1.5-1,2.6-1.7,3.7-2.4c-4.3,6.6-2.2,12.9,5.6,14.7c0.7-6.6,1.4-13.1,2.2-19.6
	c-0.5-0.1-1-0.3-1.4-0.4c-1.7,1.2-3.4,2.5-5.1,3.7c2.1-2.1,5.4-3.8,5.9-6.2c1.3-5.3,1.1-11,1.7-17.6c-3.2,5-5.6,8.9-8.3,12.5
	c-2.4,3.3-4,2.9-5.6-0.6C362.5,278.9,360.4,274.7,358.4,270.4z M296.1,304.7c0.1,0.3,0.2,0.7,0.3,1c4.6-1.2,9.2-2.5,13.8-3.7
	c-0.2-0.6-0.4-1.2-0.5-1.8C305.2,301.7,300.7,303.2,296.1,304.7z"/>
<path d="M558.4,625.6c-0.7-7.4-1.3-14.7-2-22.2c0.6,1.2,1.1,2.3,1.6,3.6c0.4-0.3,0.7-0.5,0.7-0.7c0.4-21.8,0.6-43.6-4.2-65
	c-2.5-11.3-8-21.5-18.7-27c-10.2-5.3-13.1-13.4-11.8-23.9c2-16.3,8-31.3,15-45.9c0.4,0.2,0.8,0.3,1.3,0.5c-1.4,3-3.2,5.9-4.1,9
	c-3.3,11.6-6.9,23.2-9.3,35c-1.5,7.3,1.5,13.7,8.5,17.5c19.2,10.4,24.1,28.3,24.7,48.1c0.7,22.6,1.1,45.2,1.5,67.8
	c0,1.2-0.9,2.4-1.3,3.6C559.7,625.8,559.1,625.7,558.4,625.6z"/>
<path d="M307.3,409.4c-0.5,2.4-0.9,4.6-1.3,6.8c-1.3,7.7-6.1,13.4-10.9,19.1c-4.4,5.3-8.6,10.9-12.7,16.4c-0.8,1.1-1.1,2.5-1.9,4.3
	c7.4,0.1,9.1-6.9,15.1-9.5c-4,4.2-7.1,7.9-10.6,11.1c-1.2,1.1-3.5,0.9-5.3,1.2c-0.1-1.8-1-4-0.2-5.2c5-7.8,10.4-15.3,15.6-22.9
	c2.2-3.2,4.1-6.4,6.2-9.7c-0.4-0.5-0.7-1-1.1-1.5c-5.2,1.1-10.5,2.1-15.7,3.2c-0.1-0.2-0.3-0.5-0.4-0.7c4.1-2.4,8.2-4.8,12.7-7.4
	c-5.8-4.9-11.8-4.7-18-3.1c7.8-5.2,15.4-1.2,22.9,0.8c0.3-0.7,0.8-1.2,0.7-1.6c-0.8-12.1-2.5-24.1-2.4-36.2
	c0.3-23.5-13.6-31.7-32.7-34.4c-5.9-0.8-11.9-1.1-17.8-1.8c-1.5-0.2-2.9-1.3-4-2.6c8.7,1,17.5,1.5,26,3.1c5.5,1,10.9,3.1,15.8,5.7
	c11,5.8,14,16.2,14.2,27.8c0.1,7.6-0.5,15.3,0.2,22.9c0.4,4.5,2.5,8.9,4,13.3C305.7,409,306.8,409.2,307.3,409.4z"/>
<path class="st0" d="M566.6,497c6.2-8.8,12.2-17.7,18.7-26.2c3-3.8,7.1-6.8,10.7-10.2c9-5.3,17.9-10.8,26.9-16
	c2.2-1.3,4.9-1.9,7.5-2.2c0.8-0.1,1.8,1.8,2.7,2.8c-1,0.5-2,1.5-3,1.4c-10-0.3-21.2,7.5-25.1,17.8c-2.3,2.3-4.7,4.7-7,7
	c-0.6,0-1.2,0.1-1.8,0.1c-1.7,0.6-3.9,0.6-4.9,1.8c-3.5,4.2-7.3,8.4-9.7,13.2c-4,8.4-11.5,13-18.4,18.3c-1,0.8-2.8,0.7-4.2,0.9
	l0.1,0.1C561.6,503,564.1,500,566.6,497z"/>
<path d="M566.6,497c-2.5,3-5,6.1-7.5,9.1c-3.6-0.1-3.7-2.1-3.2-5.1c2.5-16.4,5-32.8,7-49.3c1-8.5,1-17.1,1.3-25.7
	c0.1-1.8-0.5-3.7-1.1-5.3c-1.4-3.9-2.9-8.3-8.1-8.3c-4.9,0.1-10,0.5-12.2,6.1c-1.7-0.9-3.2-1.9-4.8-2.5c-6.6-2.7-8.7-8.2-5.5-14.8
	c-0.2,3.4-2,7.4,3.3,8.8c-1.6,3.6,1.5,4.5,3.3,4.1c1.6-0.3,3.2-2.6,4.2-4.4c1.6-2.8,2.7-5.8,4-8.7c-0.9,3.3-1.9,6.7-2.9,10.1
	c5.8,0,11.5-0.9,16.8,0.2c8,1.7,9.6,7.3,5.2,14.6c2-6.7,1.3-9.5-3.4-11.3c1.2,3.9,2.3,7.6,3.4,11.3c0,4.9,0.5,9.8,0.1,14.7
	c-1.3,14.5-3.3,28.9-4.1,43.4C562.1,488.1,565.1,492.6,566.6,497z"/>
<path class="st0" d="M547.2,400.9c-1.3,2.9-2.5,6-4,8.7c-1,1.8-2.5,4.1-4.2,4.4c-1.8,0.4-5-0.5-3.3-4.1c-5.2-1.4-3.5-5.4-3.3-8.8
	c3.7-9.9,9.6-18.4,16.7-26.1c1.6,2.2,3.2,4.4,4.8,6.6C551.7,388,549.5,394.4,547.2,400.9z"/>
<path d="M605,464.6c3.9-10.3,15.1-18.2,25.1-17.8c1,0,2-0.9,3-1.4c-0.9-1-1.9-2.9-2.7-2.8c-2.6,0.3-5.3,0.9-7.5,2.2
	c-9.1,5.2-18,10.6-26.9,16c0.6-0.9,1-2.1,1.8-2.6c9.2-5.5,18.5-11,27.9-16.2c1.7-1,4.2-1.2,6.2-0.8c1.3,0.3,2.9,2.3,3.1,3.7
	c0.4,3.3,0.5,6.8-0.1,10.1c-0.9,5-2.4,9.9-3.7,14.8c-1,3.7-2,7.5-3.4,11.1c-0.7,1.9-2.5,4.8-3.7,4.8c-3.3-0.1-3.3-3.2-2.8-5.7
	c1.3-6.3,2.8-12.6,4-18.9c0.5-2.5,0.9-5.1,0.7-7.5c-0.2-3.1-2.4-4.6-5.2-2.9c-3,1.7-5.7,4-8.2,6.3
	C609.9,459.2,607.5,461.9,605,464.6z M632.1,451.2c-4.9,3.7-7.9,15.7-5.5,21.1C630,465.8,634.4,459.8,632.1,451.2z"/>
<path d="M554,381.6c-1.6-2.2-3.2-4.4-4.8-6.6c0.7-2,1.1-3.5-1.7-4.6c-21.7-8.4-40.9-21.8-61.5-32.4c-7.4-3.8-14.8-7.7-21.7-12.7
	c6.5,3.3,13.1,6.4,19.6,9.8c14.9,7.9,29.7,16.1,44.7,23.8c6.7,3.4,13.9,6.2,21.1,8.5c1.8,0.6,4.6-1.9,7-2.9
	c-0.8,1.4-1.6,2.7-2.4,4.1c3.9,3.5,3.9-1.2,5.5-2.3c-0.5,1.6-1,3.2-1.5,4.8c2.6,2.3,5.6,4.2,7.7,6.8c1.3,1.6,1.4,4.3,2.1,6.5
	c-2.5,0-5,0.4-7.3-0.1c-1.5-0.4-2.6-2.2-3.8-3.4c2.9,1,5.7,1.9,8.6,2.9c0.2-0.5,0.4-1,0.6-1.6c-2.9-2.5-5.8-4.9-8.7-7.4
	c-0.6,0.3-1.1,0.6-1.7,0.9c0.5,1.8,0.9,3.5,1.4,5.3C556.1,381.3,555,381.4,554,381.6z"/>
<path d="M368.6,577.5c0.1,2,0.3,4.3,0.6,7.9c9.2-20.6,17.8-40.2,26.5-59.7c0.2,0.1,0.4,0.1,0.6,0.2c-2.5,6.5-4.8,13.1-7.4,19.6
	c-5.7,14.1-11.8,28.1-17.2,42.4c-1.2,3.2-0.3,7.3-0.3,11c0,2,0.1,4.1-0.4,5.9c-0.1,0.4-3.6,0.6-4.1-0.1c-1.3-1.7-2.8-4.2-2.5-6.1
	C365.3,591.5,367.1,584.4,368.6,577.5z"/>
<path d="M520.9,627.4c5-1.5,9.9-3,14.8-4.7c1.3-0.5,2.2-2,3.3-3c0.4,0.6,1.1,2.5,2.4,3.2c4.1,2.2,6,1,6.7-3.7
	c0.5-3.5,0.9-7.1,1.8-10.6c-0.2,4.3-0.3,8.6-0.7,12.9c-0.6,6.3-0.8,6.3-7,4.2c-0.4-0.1-0.9-0.1-1.7-0.1c0.8,1.9,2.1,3.4,2.1,5
	c0,1.8-1.1,3.6-1.7,5.3c-1.6-0.6-3.2-1.1-4.7-1.8c-0.7-0.3-1.3-1.1-1.5-1.9c-1.9-5-5.6-4.8-9.3-2.7c-4.7,2.8-9,6.2-13.6,9.2
	c-3.1,2.1-6.4,3.8-9.6,5.8c-0.4-0.5-0.7-0.9-1.1-1.4c1.6-1.4,3.1-2.7,4.7-4.1c1-0.1,2.2,0.2,2.8-0.2c5.5-3.9,10.8-7.9,16.2-11.9
	c-0.2-0.3-0.3-0.7-0.5-1C523.4,626.4,522.2,626.9,520.9,627.4z"/>
<path d="M400.3,519.8c5.6,9,10.6,19.8,18.1,28.3c9.5,10.8,21,19.7,31.7,29.4c9.8,8.9,20.1,17.4,25,30.5c0.7,2,2.5,3.5,3.2,5.5
	c0.6,1.4,0.4,3.2,0.6,4.8c-0.5,0-0.9,0.1-1.4,0.1c-0.3-0.4-0.8-0.7-1-1.1c-4.8-18.5-17.9-30.5-32.2-41.7
	c-16.3-12.9-30.6-27.5-40.1-46.3c-1.3-2.5-2.3-5.1-3.4-7.7C400.4,520.7,400.3,519.8,400.3,519.8z"/>
<path d="M566.1,299.1c14.8,12.4,12.5,32.4,2.7,46c0.7-1.9,1.2-4,2.1-5.8c4.5-9.2,6-18.5,1.8-28.4c-2.7-6.2-6.2-8.4-11.5-4.4
	c-8.8,6.5-17.9,6.9-27.7,3.4c2.1,0.1,4.3,0,6.4,0.5c9.6,2.2,16.8-1.6,22.8-8.8c0.9-1,2.2-1.7,3.3-2.6L566.1,299.1z"/>
<path d="M283.7,499.6c-0.8,6.3-1.8,12.8-2.5,19.3c-0.2,1.4,0,3.3,0.9,4.3c4.9,5.9,1.2,9.6-3.3,12.8c-9.5,6.7-13.2,16.7-16.2,27.2
	c-0.9,3.1-2.1,6.2-4.1,9c2-6.3,3.3-13,6.1-19c2.9-6.2,7.1-11.9,11.1-17.5c3.3-4.5,5.1-9,4-14.8C278.3,513.2,280.6,505.9,283.7,499.6
	z"/>
<path d="M369.6,427.4c4.7-3.4,8-2.6,9.8,2.7c0.7,2,1.5,4.3,1.3,6.3c-1.4,13.7,3.3,26.1,7.2,38.8c1.9,6.1,3.5,12.3,4.8,18.6
	c-4.9-13.9-9.9-27.7-14.7-41.6c-0.6-1.7,0.2-3.9,0.2-5.9c0.1-4.1,0.5-8.3,0-12.3C377.3,427,376.4,426.6,369.6,427.4z"/>
<path d="M559,505.9c1.4-0.3,3.2-0.2,4.2-0.9c6.9-5.3,14.4-9.8,18.4-18.3c2.3-4.8,6.2-9,9.7-13.2c1-1.1,3.2-1.2,4.9-1.8
	c-4,4.4-8,8.8-12,13.2c0.4,0.4,0.9,0.8,1.3,1.2c4.3-4.4,8.7-8.9,13-13.3c-5.4,5.9-10.6,12-16.2,17.7c-4,4.1-8.6,7.8-12.9,11.7
	c-1.4,1.2-2.7,2.4-4.2,3.5c-6.4,4.5-11.4,3.1-15.2-2.8C552,503.6,555.5,504.7,559,505.9z"/>
<path d="M113.2,580.3c-9.6,9.4-19.1,18.9-28.8,28.2c-0.8,0.7-2.5,0.5-3.7,0.8c0.2-1.3,0-3,0.8-3.9c2.7-3.2,5.3-8,8.7-8.7
	c10.6-2.1,14-12.8,22.6-16.9C112.9,579.9,113.1,580.1,113.2,580.3z"/>
<path d="M337.5,432.6c4.2-4,8.8-7.7,12.5-12.1c5.5-6.6,2.8-15-5.4-17.8c-3.7-1.3-7.6-1.7-11.4-3c4.2,0.6,8.6,0.7,12.7,1.9
	c8.1,2.3,11.5,12.8,6,19.1c-4,4.6-9.1,8.5-13.6,12.7C338,433.1,337.7,432.8,337.5,432.6z"/>
<path d="M279.1,466.5c14.4-8.1,28.8-16.2,43.3-24.3c0.2,0.4,0.5,0.9,0.7,1.3c-14.5,8-29,16-43.5,24
	C279.4,467.2,279.3,466.9,279.1,466.5z"/>
<path d="M533.1,594.5c4.7-1.6,9.3-3.2,14.1-4.5c0.6-0.2,2.3,1.4,2.6,2.4c0.3,1.1,0,2.8-0.7,3.6c-0.7,0.7-3,1.2-3.4,0.7
	c-3.8-4.1-7.9-2.7-12.2-0.8C533.3,595.5,533.2,595,533.1,594.5z"/>
<path d="M577.9,252.1c-0.9-4.3-1.3-8.8-2.7-13c-3-8.8-9-10.4-16.5-4.9c-1.1,0.8-2.2,1.7-3.4,2.2c3.1-4.3,7-7.3,12.7-6.7
	c5.6,0.5,7.8,4.8,8.8,9.5c1,4.3,1.2,8.7,1.8,13.1C578.3,252.2,578.1,252.1,577.9,252.1z"/>
<path class="st0" d="M520.9,627.4c1.2-0.5,2.5-0.9,3.7-1.4c0.2,0.3,0.3,0.7,0.5,1c-5.4,4-10.8,8-16.2,11.9c-0.7,0.5-1.9,0.2-2.8,0.2
	C511,635.2,516,631.3,520.9,627.4z"/>
<path class="st0" d="M559.8,366.4c-1.6,1.1-1.6,5.8-5.5,2.3c0.8-1.4,1.6-2.8,2.4-4.1c2.6-3.5,5.1-7.1,7.7-10.6
	c0.4,0.2,0.9,0.5,1.3,0.7C563.7,358.6,561.7,362.5,559.8,366.4z"/>
<path class="st0" d="M598.4,472.8c-4.3,4.4-8.7,8.9-13,13.3c-0.4-0.4-0.9-0.8-1.3-1.2c4-4.4,8-8.8,12-13.2c0.6,0,1.2-0.1,1.8-0.1
	C598.1,472,598.3,472.4,598.4,472.8z"/>
<path d="M132,563c3-3.2,6-6.4,8.9-9.6c1.5-1.7,2.8-3.5,4.4-5.5c0,0,0.7,0.3,2.4,1.1c-5.4,5.2-10.6,10-15.7,14.9
	C132,563.6,132,563.3,132,563z"/>
<path d="M546,561.3c-1-8.3-1.9-16.5-2.9-24.8c0.7-0.1,1.4-0.1,2-0.2c0.6,8.3,1.3,16.6,1.9,24.9C546.7,561.3,546.4,561.3,546,561.3z"
	/>
<path d="M132,563c0,0.3,0,0.6,0,0.9c-6.3,5.5-12.5,10.9-18.8,16.4c-0.2-0.2-0.3-0.3-0.5-0.5c5.8-5.5,11.6-11,17.4-16.4
	C130.5,563,131.4,563.1,132,563z"/>
<path d="M565.9,298.9c0.8-1.4,1.5-2.8,2.1-3.9c-3.6-0.8-7.2-1.7-10.8-2.6c0.1-0.5,0.2-1.1,0.2-1.6c5.7,3.3,11.1,4.1,15.9-1.4
	c0.3,0.4,0.7,0.9,1,1.3c-2.8,2.8-5.6,5.6-8.4,8.4C566.1,299.1,565.9,298.9,565.9,298.9z"/>
<path d="M557.7,280.3c-3.6,4-7.8,3.4-11.7,2c-3.6-1.3-4.2-4.7-3.7-8.5C544.7,281.7,545.4,282,557.7,280.3z"/>
<path d="M103.9,580.5c5.5-5.3,11.5-11.2,17.5-17.1c0.3,0.3,0.6,0.6,0.9,0.9C116,569.9,109.7,575.4,103.9,580.5z"/>
<path d="M361.2,371.5c-0.4-8.5-0.8-16.9-1.3-25.4c0.2,0,0.4,0,0.6,0c0.7,8.3,1.3,16.7,2,25C362.1,371.2,361.6,371.3,361.2,371.5z"/>
<path d="M719.7,184.9c-3.1,0.3-6.3,0.6-9.4,0.9c0-0.2-0.1-0.5-0.1-0.7c3-0.5,6-1.2,8.9-1.3c2.7-0.1,3.8,1.5,2,3.7
	c-1.8,2.1-4.1,3.8-6.2,5.7c-0.3-0.3-0.6-0.6-0.8-0.9c2.3-1.8,4.5-3.6,6.8-5.3C720.4,186.3,720.1,185.6,719.7,184.9z"/>
<path d="M544.1,263.6c1.4-6.3,2.8-12.6,4.2-18.8c0.4,0.1,0.7,0.2,1.1,0.2c-1.5,6.3-2.9,12.5-4.4,18.8
	C544.6,263.8,544.3,263.7,544.1,263.6z"/>
<path d="M225.6,493.1c-4.9,2.7-9.8,5.3-14.8,8c-0.2-0.3-0.4-0.7-0.6-1c4.9-2.7,9.8-5.4,14.7-8.2
	C225.2,492.3,225.4,492.7,225.6,493.1z"/>
<path d="M404,499.8c1.5-5.7,3-11.4,4.4-17.2c0.2,0,0.4,0.1,0.6,0.1c-1.3,5.7-2.6,11.4-3.9,17.1C404.7,499.8,404.4,499.8,404,499.8z"
	/>
<path class="st0" d="M369.4,296.8c-1.1,0.7-2.1,1.4-3.7,2.4c-1.8-5.3-3.6-10.5-5.4-15.6c-0.3-1-1-1.9-1.3-2.8
	c-1.3-3.4-3.2-6.8-0.5-10.5c0,0,0,0,0,0c2,4.3,4,8.6,5.9,12.9c1.5,3.6,3.2,3.9,5.6,0.6c2.7-3.7,5-7.6,8.3-12.5
	c-0.5,6.7-0.4,12.3-1.7,17.6c-0.6,2.4-3.9,4.2-5.9,6.2C370.1,295.8,369.8,296.3,369.4,296.8z"/>
<path class="st0" d="M369.4,296.8c0.4-0.5,0.8-1,1.2-1.6c1.7-1.2,3.4-2.5,5.1-3.7c0.5,0.1,1,0.3,1.4,0.4c-0.7,6.5-1.4,13-2.2,19.6
	C367.2,309.7,365.1,303.4,369.4,296.8z"/>
<path class="st0" d="M296.1,304.7c4.5-1.5,9-2.9,13.6-4.4c0.2,0.6,0.4,1.2,0.5,1.8c-4.6,1.2-9.2,2.5-13.8,3.7
	C296.4,305.4,296.2,305,296.1,304.7z"/>
<path class="st0" d="M566.4,425.7c-1.1-3.7-2.2-7.3-3.4-11.3C567.6,416.3,568.3,419,566.4,425.7
	C566.3,425.8,566.4,425.7,566.4,425.7z"/>
<path class="st0" d="M632.1,451.2c2.3,8.5-2.1,14.5-5.5,21.1C624.2,466.9,627.2,455,632.1,451.2z"/>
<path class="st0" d="M557.2,381.1c-0.5-1.8-0.9-3.5-1.4-5.3c0.6-0.3,1.1-0.6,1.7-0.9c2.9,2.5,5.8,4.9,8.7,7.4
	c-0.2,0.5-0.4,1-0.6,1.6c-2.9-1-5.7-1.9-8.6-2.9C557,380.9,557.2,381.1,557.2,381.1z"/>
</svg>
